<?xml version="1.0" standalone="no"?>
<!DOCTYPE svg PUBLIC "-//W3C//DTD SVG 1.1//EN" "http://www.w3.org/Graphics/SVG/1.1/DTD/svg11.dtd" >
<svg xmlns="http://www.w3.org/2000/svg" xmlns:xlink="http://www.w3.org/1999/xlink" version="1.1">
<metadata>
Created by FontForge 20170924 at Wed Jul  6 09:22:36 2016
 By root
(c)2013 - Sarchia Banokay -  All Rights Reserved.
</metadata>
<defs>
<font id="Sarchia_Iraq" horiz-adv-x="1139" >
  <font-face 
    font-family="Sarchia_Iraq"
    font-weight="400"
    font-stretch="normal"
    units-per-em="2048"
    panose-1="2 11 6 4 3 5 4 4 2 4"
    ascent="1638"
    descent="-410"
    x-height="1062"
    cap-height="1466"
    bbox="-200 -1263 3657 2071"
    underline-thickness="128"
    underline-position="-544"
    unicode-range="U+0020-FEFC"
  />
<missing-glyph horiz-adv-x="0" 
 />
    <glyph glyph-name="afii62834" unicode="&#xfedf;&#xfe82;" horiz-adv-x="1118" arabic-form="isolated" 
d="M1044 1117l-63 -177l-54 23l-13 -15l-7 -12q0 -42 -5.5 -86t-20.5 -100l-28 -102q-6 -45 -36 -101l47 -119l17 -65q0 -307 -88 -356l-35 -7h-166l-97 2q-82 0 -132 84q-17 37 -17 91v32q0 31 4 42q0 21 9 52q4 10 15 43h15l-2 -26q0 -28 5 -42.5t19 -35.5q23 -22 67 -33
q69 40 132.5 105.5t119.5 154.5l-54 90q-34 54 -153 189q-104 114 -190.5 193t-109.5 76l-14 -49l-6 -54l-6 -5l-5 -4l-43 80l-30 45q-46 68 -52 109q0 23 21.5 90t32.5 76q128 -67 225 -153q34 -20 90 -80l96 -98q60 -69 149 -192l34 -45l28 -48l52 -97l24 75l21 74
q16 61 16 156q0 58 -9 101l-72 63q-34 28 -34 88q0 30 32 104l37 84l17 37l20 35l17 -5l-17 -34l-11 -44l-4 -38q0 -54 91 -115zM832 201q-28 106 -35 112l-17 48l-24 50l-26 -44l-28 -37l-24 -30l-32 -36l-74 -72l59 -10l80 -1l82 3q22 0 39 17zM-182 1400q17 32 39 56
q28 41 46 58l43 45l32 33q33 26 80 26q26 -2 141 -39q45 -13 92 -13l41 4l121 43q39 20 106 67l2 -45l-47 -76l-45 -47q-59 -48 -135 -65l-43 -4l-92 19q-121 30 -141 30l-43 -4q-69 -28 -85 -45q-66 -41 -110 -91z" />
    <glyph glyph-name="afii62835" unicode="&#xfee0;&#xfe82;" horiz-adv-x="1742" arabic-form="final" 
d="M1752 0h-54q-99 0 -175 77.5t-114 227.5l-31 127l-11 168l-21 284q-106 -437 -229 -618q-141 -203 -421 -286q-74 -20 -277 -41l-235 -11l-126 5q-51 0 -82 10l11 22q87 11 246 50q98 22 231 67q182 61 331 147l2 73q0 87 -24.5 182t-70.5 169q-76 129 -112 129l-9 -2
l-15 -39l-9 -52l-10 -9l-15 -4l-83 197l-36 91l11 26l8 30l19 38q27 72 42 87q62 -22 175 -147q131 -143 179 -277l11 -27l10 -52q3 -18 5 -37t2 -59q0 -177 -58 -304q64 35 160 110q40 32 108 117q53 69 144 292q85 215 97 315q0 49 24 89q9 19 39 49q13 -37 19.5 -82
t6.5 -102l9 -289v-58l4 -63l4 -43q3 -24 9 -33q37 -170 149 -274q80 -75 145 -75h17v-195zM93 1400q17 32 39 56q28 41 46 58l43 45l32 33q33 26 80 26q26 -2 141 -39q45 -13 92 -13l41 4l121 43q39 20 106 67l2 -45l-47 -76l-45 -47q-59 -48 -135 -65l-43 -4l-92 19
q-121 30 -141 30l-43 -4q-69 -28 -85 -45q-66 -41 -110 -91z" />
    <glyph glyph-name="afii62836" unicode="&#xfedf;&#xfe84;" horiz-adv-x="1118" arabic-form="isolated" 
d="M1044 1117l-63 -177l-54 23l-13 -15l-7 -12q0 -42 -5.5 -86t-20.5 -100l-28 -102q-6 -45 -36 -101l47 -119l17 -65q0 -307 -88 -356l-35 -7h-166l-97 2q-82 0 -132 84q-17 37 -17 91v32q0 31 4 42q0 21 9 52q4 10 15 43h15l-2 -26q0 -28 5 -42.5t19 -35.5q23 -22 67 -33
q69 40 132.5 105.5t119.5 154.5l-54 90q-34 54 -153 189q-104 114 -190.5 193t-109.5 76l-14 -49l-6 -54l-6 -5l-5 -4l-43 80l-30 45q-46 68 -52 109q0 23 21.5 90t32.5 76q128 -67 225 -153q34 -20 90 -80l96 -98q60 -69 149 -192l34 -45l28 -48l52 -97l24 75l21 74
q16 61 16 156q0 58 -9 101l-72 63q-34 28 -34 88q0 30 32 104l37 84l17 37l20 35l17 -5l-17 -34l-11 -44l-4 -38q0 -54 91 -115zM832 201q-28 106 -35 112l-17 48l-24 50l-26 -44l-28 -37l-24 -30l-32 -36l-74 -72l59 -10l80 -1l82 3q22 0 39 17zM324 1490l4 -24
q0 -74 -132 -104l-21 -2l-31 4h-24l-19 -2q-19 -11 -24 -21l-15 15l18 24q21 12 69 23q51 0 79 20l3 17q-5 9 -9 11q-43 8 -63 50q-12 28 32 88.5t87 60.5l-6 -59q-22 -2 -43 -13l-18 -26q0 -13 52 -30q50 -6 61 -32z" />
    <glyph glyph-name="afii62837" unicode="&#xfee0;&#xfe84;" horiz-adv-x="1742" arabic-form="final" 
d="M1752 0h-54q-99 0 -175 77.5t-114 227.5l-31 127l-11 168l-21 284q-106 -437 -229 -618q-141 -203 -421 -286q-74 -20 -277 -41l-235 -11l-126 5q-51 0 -82 10l11 22q87 11 246 50q98 22 231 67q182 61 331 147l2 73q0 87 -24.5 182t-70.5 169q-76 129 -112 129l-9 -2
l-15 -39l-9 -52l-10 -9l-15 -4l-83 197l-36 91l11 26l8 30l19 38q27 72 42 87q62 -22 175 -147q131 -143 179 -277l11 -27l10 -52q3 -18 5 -37t2 -59q0 -177 -58 -304q64 35 160 110q40 32 108 117q53 69 144 292q85 215 97 315q0 49 24 89q9 19 39 49q13 -37 19.5 -82
t6.5 -102l9 -289v-58l4 -63l4 -43q3 -24 9 -33q37 -170 149 -274q80 -75 145 -75h17v-195zM324 1490l4 -24q0 -74 -132 -104l-21 -2l-31 4h-24l-19 -2q-19 -11 -24 -21l-15 15l18 24q21 12 69 23q51 0 79 20l3 17q-5 9 -9 11q-43 8 -63 50q-12 28 32 88.5t87 60.5l-6 -59
q-22 -2 -43 -13l-18 -26q0 -13 52 -30q50 -6 61 -32z" />
    <glyph glyph-name="afii62838" unicode="&#xfedf;&#xfe88;" horiz-adv-x="1118" arabic-form="isolated" 
d="M1044 1117l-63 -177l-54 23l-13 -15l-7 -12q0 -42 -5.5 -86t-20.5 -100l-28 -102q-6 -45 -36 -101l47 -119l17 -65q0 -307 -88 -356l-35 -7h-166l-97 2q-82 0 -132 84q-17 37 -17 91v32q0 31 4 42q0 21 9 52q4 10 15 43h15l-2 -26q0 -28 5 -42.5t19 -35.5q23 -22 67 -33
q69 40 132.5 105.5t119.5 154.5l-54 90q-34 54 -153 189q-104 114 -190.5 193t-109.5 76l-14 -49l-6 -54l-6 -5l-5 -4l-43 80l-30 45q-46 68 -52 109q0 23 21.5 90t32.5 76q128 -67 225 -153q34 -20 90 -80l96 -98q60 -69 149 -192l34 -45l28 -48l52 -97l24 75l21 74
q16 61 16 156q0 58 -9 101l-72 63q-34 28 -34 88q0 30 32 104l37 84l17 37l20 35l17 -5l-17 -34l-11 -44l-4 -38q0 -54 91 -115zM832 201q-28 106 -35 112l-17 48l-24 50l-26 -44l-28 -37l-24 -30l-32 -36l-74 -72l59 -10l80 -1l82 3q22 0 39 17zM324 -320l4 -24
q0 -74 -132 -104l-21 -2l-31 4h-24l-19 -2q-19 -11 -24 -21l-15 15l18 24q21 12 69 23q51 0 79 20l3 17q-5 9 -9 11q-43 8 -63 50q-12 28 32 88.5t87 60.5l-6 -59q-22 -2 -43 -13l-18 -26q0 -13 52 -30q50 -6 61 -32z" />
    <glyph glyph-name="afii62839" unicode="&#xfee0;&#xfe88;" horiz-adv-x="1742" arabic-form="final" 
d="M1752 0h-54q-99 0 -175 77.5t-114 227.5l-31 127l-11 168l-21 284q-106 -437 -229 -618q-141 -203 -421 -286q-74 -20 -277 -41l-235 -11l-126 5q-51 0 -82 10l11 22q87 11 246 50q98 22 231 67q182 61 331 147l2 73q0 87 -24.5 182t-70.5 169q-76 129 -112 129l-9 -2
l-15 -39l-9 -52l-10 -9l-15 -4l-83 197l-36 91l11 26l8 30l19 38q27 72 42 87q62 -22 175 -147q131 -143 179 -277l11 -27l10 -52q3 -18 5 -37t2 -59q0 -177 -58 -304q64 35 160 110q40 32 108 117q53 69 144 292q85 215 97 315q0 49 24 89q9 19 39 49q13 -37 19.5 -82
t6.5 -102l9 -289v-58l4 -63l4 -43q3 -24 9 -33q37 -170 149 -274q80 -75 145 -75h17v-195zM324 -320l4 -24q0 -74 -132 -104l-21 -2l-31 4h-24l-19 -2q-19 -11 -24 -21l-15 15l18 24q21 12 69 23q51 0 79 20l3 17q-5 9 -9 11q-43 8 -63 50q-12 28 32 88.5t87 60.5l-6 -59
q-22 -2 -43 -13l-18 -26q0 -13 52 -30q50 -6 61 -32z" />
    <glyph glyph-name="afii62840" unicode="&#xfedf;&#xfe8e;" horiz-adv-x="1118" arabic-form="isolated" 
d="M1044 1117l-63 -177l-54 23l-13 -15l-7 -12q0 -42 -5.5 -86t-20.5 -100l-28 -102q-6 -45 -36 -101l47 -119l17 -65q0 -307 -88 -356l-35 -7h-166l-97 2q-82 0 -132 84q-17 37 -17 91v32q0 31 4 42q0 21 9 52q4 10 15 43h15l-2 -26q0 -28 5 -42.5t19 -35.5q23 -22 67 -33
q69 40 132.5 105.5t119.5 154.5l-54 90q-34 54 -153 189q-104 114 -190.5 193t-109.5 76l-14 -49l-6 -54l-6 -5l-5 -4l-43 80l-30 45q-46 68 -52 109q0 23 21.5 90t32.5 76q128 -67 225 -153q34 -20 90 -80l96 -98q60 -69 149 -192l34 -45l28 -48l52 -97l24 75l21 74
q16 61 16 156q0 58 -9 101l-72 63q-34 28 -34 88q0 30 32 104l37 84l17 37l20 35l17 -5l-17 -34l-11 -44l-4 -38q0 -54 91 -115zM832 201q-28 106 -35 112l-17 48l-24 50l-26 -44l-28 -37l-24 -30l-32 -36l-74 -72l59 -10l80 -1l82 3q22 0 39 17z" />
    <glyph glyph-name="afii62841" unicode="&#xfee0;&#xfe8e;" horiz-adv-x="1742" arabic-form="final" 
d="M1752 0h-54q-99 0 -175 77.5t-114 227.5l-31 127l-11 168l-21 284q-106 -437 -229 -618q-141 -203 -421 -286q-74 -20 -277 -41l-235 -11l-126 5q-51 0 -82 10l11 22q87 11 246 50q98 22 231 67q182 61 331 147l2 73q0 87 -24.5 182t-70.5 169q-76 129 -112 129l-9 -2
l-15 -39l-9 -52l-10 -9l-15 -4l-83 197l-36 91l11 26l8 30l19 38q27 72 42 87q62 -22 175 -147q131 -143 179 -277l11 -27l10 -52q3 -18 5 -37t2 -59q0 -177 -58 -304q64 35 160 110q40 32 108 117q53 69 144 292q85 215 97 315q0 49 24 89q9 19 39 49q13 -37 19.5 -82
t6.5 -102l9 -289v-58l4 -63l4 -43q3 -24 9 -33q37 -170 149 -274q80 -75 145 -75h17v-195z" />
    <glyph glyph-name="lla1" unicode="&#xe008;&#xfe8e;" horiz-adv-x="1118" 
d="M1044 1117l-63 -177l-54 23l-13 -15l-7 -12q0 -42 -5.5 -86t-20.5 -100l-28 -102q-6 -45 -36 -101l47 -119l17 -65q0 -307 -88 -356l-35 -7h-166l-97 2q-82 0 -132 84q-17 37 -17 91v32q0 31 4 42q0 21 9 52q4 10 15 43h15l-2 -26q0 -28 5 -42.5t19 -35.5q23 -22 67 -33
q69 40 132.5 105.5t119.5 154.5l-54 90q-34 54 -153 189q-104 114 -190.5 193t-109.5 76l-14 -49l-6 -54l-6 -5l-5 -4l-43 80l-30 45q-46 68 -52 109q0 23 21.5 90t32.5 76q128 -67 225 -153q34 -20 90 -80l96 -98q60 -69 149 -192l34 -45l28 -48l52 -97l24 75l21 74
q16 61 16 156q0 58 -9 101l-72 63q-34 28 -34 88q0 30 32 104l37 84l17 37l20 35l17 -5l-17 -34l-11 -44l-4 -38q0 -54 91 -115zM832 201q-28 106 -35 112l-17 48l-24 50l-26 -44l-28 -37l-24 -30l-32 -36l-74 -72l59 -10l80 -1l82 3q22 0 39 17zM1147 1596
q-75 -32 -130 -150q-16 -39 -30 -84t-24 -96h-19q-10 55 -29.5 104.5t-52.5 97.5q-60 94 -127 118l9 102q32 -11 68.5 -32t67.5 -68q28 -40 41.5 -68.5t30.5 -81.5q43 204 195 253v-95z" />
    <glyph glyph-name="lla2" unicode="&#xe009;&#xfe8e;" horiz-adv-x="1742" 
d="M1752 0h-54q-99 0 -175 77.5t-114 227.5l-31 127l-11 168l-21 284q-106 -437 -229 -618q-141 -203 -421 -286q-74 -20 -277 -41l-235 -11l-126 5q-51 0 -82 10l11 22q87 11 246 50q98 22 231 67q182 61 331 147l2 73q0 87 -24.5 182t-70.5 169q-76 129 -112 129l-9 -2
l-15 -39l-9 -52l-10 -9l-15 -4l-83 197l-36 91l11 26l8 30l19 38q27 72 42 87q62 -22 175 -147q131 -143 179 -277l11 -27l10 -52q3 -18 5 -37t2 -59q0 -177 -58 -304q64 35 160 110q40 32 108 117q53 69 144 292q85 215 97 315q0 49 24 89q9 19 39 49q13 -37 19.5 -82
t6.5 -102l9 -289v-58l4 -63l4 -43q3 -24 9 -33q37 -170 149 -274q80 -75 145 -75h17v-195zM1567 1596q-75 -32 -130 -150q-16 -39 -30 -84t-24 -96h-19q-10 55 -29.5 104.5t-52.5 97.5q-60 94 -127 118l9 102q32 -11 68.5 -32t67.5 -68q28 -40 41.5 -68.5t30.5 -81.5
q43 204 195 253v-95z" />
    <glyph glyph-name="afii57369" unicode="&#x6a4;" horiz-adv-x="673" arabic-form="medial" 
d="M693 0h-41l-88 2q-35 0 -92 16.5t-150 54.5q-41 -26 -153 -54q-31 -8 -72 -13.5t-69 -5.5h-41v195h35l71 2l41 2l26 4q-37 48 -50 141q0 21 30.5 115t99.5 191q43 59 123 108q63 37 101 37l9 -2q61 -52 91 -147l15 -76l7 -67q0 -49 -42 -142q-34 -80 -69 -132l95 -26
l97 -8h26v-195zM492 363q0 41 -26.5 118.5t-76.5 99.5l-20 -2l-28 -6l-49 -18q-50 -28 -85 -82l-4 -8q0 -20 26 -59q37 -58 110 -112l17 -9l18 -8l60 41zM404 1524l-103 -166l-180 112l106 156zM620 1288l-103 -159l-180 103l102 158zM350 1288l-99 -159l-184 103l102 158z
" />
    <glyph glyph-name="afii57371" unicode="&#x6a4;" horiz-adv-x="1290" arabic-form="final" 
d="M958 220v20l-11 24q-12 80 -116 140q-24 15 -52 22.5t-46 7.5q-51 -11 -71 -32q-21 -17 -21 -67q0 -17 19 -37q32 -30 63 -45q78 -37 181 -37h35zM1029 4l-92 2l-41 1l-57 10l-95 18q-77 13 -114 45q-71 39 -71 158q0 99 62 233q56 119 130 184q15 13 50 19
q88 0 175 -117q36 -51 94 -166l29 -84l17 -59l6 -41q3 -4 41 -10l61 -5h30l28 3h18v-195h-89l-69 2q0 -80 -22 -184l-24 -95l-32 -80q-22 -52 -194 -110l-175 -43q-93 -9 -158 -9q-210 0 -341 108q-169 142 -169 431q0 92 33 198q4 18 8.5 32t23.5 55l56 127l22 -11
q-78 -201 -78 -317v-50l4 -30q44 -325 456 -325h37l37 4q88 0 133 11q18 0 54.5 9t84.5 26q144 47 166 91l6 12l1 13l-11 63l-3 9q-6 21 -10 26q-4 15 -7 19l-6 13zM848 1251l-103 -166l-180 112l106 156zM1064 1015l-103 -159l-180 103l102 158zM794 1015l-99 -159
l-184 103l102 158z" />
    <glyph glyph-name="afii57372" unicode="&#x6a4;" horiz-adv-x="824" arabic-form="initial" 
d="M698 495q0 -98 -61 -247q-45 -110 -73 -149q-33 -36 -117 -67l-93 -26l-114 -6h-247v195l232 4q198 0 274 43q58 28 87 88q14 26 14 54v33l-12 34l-3 18l-6 15l-19 34l-35 -66q-11 -39 -30 -57q-61 -65 -154 -65q-71 0 -139 45.5t-68 156.5q0 56 16 115.5t51 138.5
q62 134 134 195q21 15 52 19q26 0 47 -11q18 -4 56 -30l35 -36q73 -61 134 -225q39 -106 39 -203zM523 592v24l-5 11q-25 49 -86 94q-34 22 -61 32t-53 10q-41 -7 -68.5 -32t-27.5 -76q0 -29 52 -63q63 -26 123 -26q54 0 126 26zM404 1554l-103 -166l-180 112l106 156z
M620 1318l-103 -159l-180 103l102 158zM350 1318l-99 -159l-184 103l102 158z" />
    <glyph glyph-name="afii62958" unicode="&#x67e;" horiz-adv-x="2334" arabic-form="final" 
d="M2387 0h-62q-108 0 -180 60q-45 33 -78 100q-60 -65 -127 -99l-65 -29q-95 -37 -244 -54l-251 -18l-287 -17l-127 4l-188 7l-117 6l-112 24q-218 44 -350 176q-95 89 -95 309v26l4 39q6 43 17 67q22 71 41 97l20 -5l-7 -32l-17 -50l-13 -97l6 -36q16 -156 175 -229
l98 -33l136 -34l136 -20q28 -6 125 -6l359 -7q143 0 362 21.5t271 36.5q24 5 68 15.5t94 25.5q75 28 93 70l39 90l38 82l16 -17l-16 -45q-6 -28 -9.5 -55t-5.5 -43q15 -28 28.5 -48.5t30.5 -35.5q56 -51 158 -51h36v-195zM1326 -564l100 168l183 -112l-107 -158zM1108 -323
l104 158l181 -104l-105 -159zM1378 -323l100 158l185 -104l-105 -159z" />
    <glyph glyph-name="afii62956" unicode="&#x67e;" horiz-adv-x="366" arabic-form="initial" 
d="M257 451q0 -84 -31 -218t-70 -186l-93 -34q-26 -6 -46 -9.5t-41 -3.5h-52v195h75q170 0 187 53q0 35 -5.5 61t-22.5 76q-28 84 -54 114l-78 102q2 13 8.5 35.5t17.5 44.5l21 49l24 33q48 -26 100 -113q30 -52 45 -99.5t15 -99.5zM63 -495l101 166l182 -112l-104 -156z
M-154 -256l106 158l178 -104l-104 -159zM117 -256l101 158l184 -104l-104 -159z" />
    <glyph glyph-name="afii52957" unicode="&#x67e;" horiz-adv-x="577" arabic-form="medial" 
d="M650 0h-84q-179 0 -259 160q-41 -58 -98 -100q-82 -60 -162 -60h-54v195h55q84 0 163 37.5t102 85.5l31 67l45 105l17 -17l-17 -45q-5 -30 -9 -53t-4 -45q28 -58 58 -84q56 -51 158 -51h58v-195zM266 -495l101 166l182 -112l-104 -156zM48 -256l107 158l178 -104
l-104 -159zM320 -256l101 158l184 -104l-106 -159z" />
    <glyph glyph-name="afii62961" unicode="&#x686;" horiz-adv-x="1329" arabic-form="final" 
d="M959 311l-142 -28q-26 -4 -38 -7.5t-49 -18.5q-190 -56 -363 -233q-95 -94 -170 -249l-59 -180l-8 -66q0 -130 88 -242q76 -98 203 -165l102 -38q21 0 67 -13l78 -16q157 -28 341 -28q168 0 287 18l139 19q86 15 142 37l-4 -39l-434 -192l-165 -69q-62 -11 -134 -11
q-149 0 -331.5 53t-266.5 139q-60 60 -108 162q-69 143 -69 307q0 30 1 66.5t13 95t51 172.5q127 347 417 502l133 72q-71 26 -146.5 39t-174.5 13q-80 0 -117 -24q-54 -26 -106 -113l-21 9q51 149 108 216q84 101 213 101h41l28 -8l206 -32q21 0 52 -11l95 -18l34 -6l37 -6
l82 -1h315l-92 -174l-111 -11l-101 -11q0 -45 65 -91q77 -36 170 -36h76v-195h-99q-89 0 -165.5 37t-105.5 118q-10 18 -15 85l2 37q0 15 9 34zM694 -586l101 166l182 -110l-104 -158zM477 -346l104 158l180 -104l-104 -158zM748 -346l99 158l184 -104l-104 -158z" />
    <glyph glyph-name="afii62959" unicode="&#x686;" horiz-adv-x="1441" arabic-form="initial" 
d="M1467 421l-95 -181l-121 17l-125 7l-95 -3q-33 0 -52.5 -2t-55.5 -11q-39 -6 -60 -10.5t-46 -15.5l-217 -103q-97 -45 -206 -82t-230 -37h-177v195h177q171 0 378.5 70t228.5 115q-62 39 -188.5 75.5t-206.5 36.5l-43 -2q-18 0 -41 -8q-100 -18 -153 -61t-124 -153l-18 9
q77 187 180 283q119 114 296 114q112 0 216 -37q45 -15 89 -34q58 -28 93 -43q110 -46 211 -70l182 -39zM672 -450l101 166l182 -110l-104 -158zM454 -210l105 157l180 -105l-104 -156zM724 -210l101 157l184 -105l-104 -156z" />
    <glyph glyph-name="afii62960" unicode="&#x686;" horiz-adv-x="1478" arabic-form="medial" 
d="M1469 473l-78 -188l-73 5h-154q28 -95 204 -95h118v-195h-144q-106 0 -188 54q-42 37 -74 106l-8 56l-5 63q-37 -3 -73.5 -10.5t-68.5 -19.5q-44 -7 -87 -29l-218 -112l-52 -22q-22 -8 -56 -25l-110 -35l-52 -9l-60 -11l-124 -6h-179v195h179q106 0 188 12.5t203 55.5
q204 63 225 111l-177 73l-67 20q-43 10 -169 25l-38 -2l-37 -8q-93 -22 -152.5 -66t-124.5 -148l-18 9q74 185 182 283q119 114 294 114q121 0 242 -43l257 -91l106 -32l193 -26l95 -7zM605 -539l99 165l182 -111l-104 -157zM387 -301l105 158l180 -104l-104 -158zM657 -301
l101 158l184 -104l-104 -158z" />
    <glyph glyph-name="afii62962" unicode="&#x698;" horiz-adv-x="1163" arabic-form="final" 
d="M1171 0h-104q-26 0 -77 17l-93 43l-29 -6q0 -50 -12 -128q-7 -74 -44 -136.5t-196.5 -206t-209.5 -143.5q-110 0 -272 127q-123 95 -195 195l17 13q154 -195 286 -195q35 0 80 18q26 10 45.5 20t53.5 31q102 55 257 210q141 141 147 180q0 34 -43 102l-104 172
q-15 24 -25 56l17 85q15 80 32 101l54 -82l39 -63l45 -80q35 -43 122.5 -89t141.5 -46h67v-195zM670 1121l-103 -166l-180 112l106 156zM886 885l-103 -159l-180 103l102 158zM616 885l-99 -159l-184 103l102 158z" />
    <glyph glyph-name="afii62964" unicode="&#x6a9;" horiz-adv-x="1716" arabic-form="final" 
d="M1377 277l-11 -48l-15 -37q-41 -106 -153 -170q-39 -22 -95 -22h-428q-298 0 -383.5 17.5t-181.5 107t-96 303.5q0 56 30 144q24 65 50 102l20 -13l-27 -80q-19 -73 -19 -104l4 -26q28 -159 175 -228l59 -16l45 -6l26 -2h28l283 -4h408l33 2q15 0 41 10l43 20q20 8 39 21
q35 24 73 82q11 16 11 31l-28 65l-97 144l-130 199l-88 140q0 27 7.5 76.5t24.5 116.5q33 147 63 173l1041 224l-13 -49l-24 -63q-11 -30 -20.5 -49.5t-28.5 -47.5l-919 -206q-21 -6 -27 -25q0 -13 8 -22q11 -26 128 -197l257 -362l60 -74q37 -50 108 -130q89 -79 166 -79
h156v-195h-136q-86 0 -128 17q-84 13 -138 72l-91 108q-36 38 -108 147z" />
    <glyph glyph-name="afii52305" unicode="&#x6a9;" horiz-adv-x="1007" arabic-form="initial" 
d="M402 115q-45 -63 -132 -95q-58 -20 -127 -20h-146v195h141h50q37 6 72.5 10t80.5 35l26 23l35 39q17 24 24 48l-39 60l-57 82l-105 124l-46 -39l-84 153q-67 117 -67 132q0 67 41 218t67 177l1044 316q0 -31 -28.5 -116t-47.5 -103l-935 -287q-16 0 -22 -36l2 -11
l285 -415q48 -73 48 -197q0 -71 -23 -156.5t-57 -136.5z" />
    <glyph glyph-name="afii52306" unicode="&#x6a9;" horiz-adv-x="958" arabic-form="medial" 
d="M93 1037q8 -26 129 -197l255 -362l59 -74q39 -56 110 -130q89 -79 166 -79h154v-195h-134q-87 0 -130 17q-86 13 -136 72l-93 108q-35 43 -106 147l7 -70q0 -47 -11 -90l-11 -33l-11 -23l-11 -18q-32 -60 -114 -93q-43 -17 -119 -17h-104v195h106q110 0 147 15
q76 32 76 108q0 43 -28 108l-95 144l-132 199q-22 39 -41 69t-46 71q0 27 7.5 76.5t23.5 116.5q34 147 65 173l1041 224l-13 -49l-24 -63q-19 -48 -50 -97l-920 -206q-21 -6 -26 -25q0 -13 9 -22z" />
    <glyph glyph-name="afii62967" unicode="&#x6af;" horiz-adv-x="1716" arabic-form="final" 
d="M1377 277l-11 -48l-15 -37q-41 -106 -153 -170q-39 -22 -95 -22h-428q-298 0 -383.5 17.5t-181.5 107t-96 303.5q0 56 30 144q24 65 50 102l20 -13l-27 -80q-19 -73 -19 -104l4 -26q28 -159 175 -228l59 -16l45 -6l26 -2h28l283 -4h408l33 2q15 0 41 10l43 20q20 8 39 21
q35 24 73 82q11 16 11 31l-28 65l-97 144l-130 199l-88 140q0 27 7.5 76.5t24.5 116.5q33 147 63 173l1041 224l-13 -49l-24 -63q-11 -30 -20.5 -49.5t-28.5 -47.5l-919 -206q-21 -6 -27 -25q0 -13 8 -22q11 -26 128 -197l257 -362l60 -74q37 -50 108 -130q89 -79 166 -79
h156v-195h-136q-86 0 -128 17q-84 13 -138 72l-91 108q-36 38 -108 147zM2171 1695q-34 -106 -97 -129l-959 -199q17 77 45 88q20 26 106 48z" />
    <glyph glyph-name="afii62965" unicode="&#x6af;" horiz-adv-x="1007" arabic-form="initial" 
d="M402 115q-45 -63 -132 -95q-58 -20 -127 -20h-146v195h141h50q37 6 72.5 10t80.5 35l26 23l35 39q17 24 24 48l-39 60l-57 82l-105 124l-46 -39l-84 153q-67 117 -67 132q0 67 41 218t67 177l1044 316q0 -31 -28.5 -116t-47.5 -103l-935 -287q-16 0 -22 -36l2 -11
l285 -415q48 -73 48 -197q0 -71 -23 -156.5t-57 -136.5zM1256 1807q-28 -122 -102 -153l-999 -290q22 90 48 109q25 28 109 57z" />
    <glyph glyph-name="afii62966" unicode="&#x6af;" horiz-adv-x="958" arabic-form="medial" 
d="M93 1037q8 -26 129 -197l255 -362l59 -74q39 -56 110 -130q89 -79 166 -79h154v-195h-134q-87 0 -130 17q-86 13 -136 72l-93 108q-35 43 -106 147l7 -70q0 -47 -11 -90l-11 -33l-11 -23l-11 -18q-32 -60 -114 -93q-43 -17 -119 -17h-104v195h106q110 0 147 15
q76 32 76 108q0 43 -28 108l-95 144l-132 199q-22 39 -41 69t-46 71q0 27 7.5 76.5t23.5 116.5q34 147 65 173l1041 224l-13 -49l-24 -63q-19 -48 -50 -97l-920 -206q-21 -6 -26 -25q0 -13 9 -22zM1141 1695q-34 -106 -97 -129l-959 -199q17 77 45 88q20 26 106 48z" />
    <glyph glyph-name="afii52364" unicode="&#x6cc;" horiz-adv-x="2941" arabic-form="final" 
d="M2953 0h-34q-232 0 -325 -31q-64 -19 -56 -49l141 -57l114 -49q113 -50 149 -121l2 -13q0 -20 -23.5 -128t-55.5 -153q-16 -35 -154 -106q-151 -82 -373 -132q-288 -65 -590 -65l-149 3l-229 8q-117 0 -212 18l-123 23q-274 44 -475 123q-87 35 -152 69q-51 20 -126 71
t-221 172l-48 54l48 13l334 -154q210 -95 649 -151q373 -46 676 -46q170 0 328 13t286.5 38t212.5 52t156 66q106 56 118 99q0 24 -69 65q-54 30 -93 45l-179 63q-41 18 -65 38.5t-24 41.5q0 19 5.5 44t25.5 79q41 105 54 124q23 32 106 74q114 54 239 54h132v-195z" />
    <glyph glyph-name="afii52399" unicode="&#x621;" horiz-adv-x="781" arabic-form="isolated" 
d="M692 356q-21 -75 -36 -93.5t-57 -40.5l-542 -262v26q0 61 100 122q23 13 155 71q-203 39 -255 124q-17 27 -17 60q0 41 35 123l43 74l58 73q115 142 212 142q47 0 83 -39.5t36 -85.5q0 -49 -61 -142q-63 92 -138 92q-56 0 -110 -45q-44 -50 -44 -106q0 -51 106 -97.5
t212 -46.5q82 0 143 23q30 7 77 28z" />
    <glyph glyph-name="afii62753" unicode="&#x622;" horiz-adv-x="619" arabic-form="final" 
d="M669 0h-59q-60 0 -125 26q-86 32 -132 84l-39 54q-32 67 -32 216v52v22q0 77 -6 127l-20 154l-52 246l-6 36l-7 22l65 132q4 -9 6 -17q13 -35 16 -54l11 -63l8 -60l32 -227q0 -180 20 -329q0 -43 39 -103q32 -39 80 -70l34 -21l43 -18q42 -14 68 -14h56v-195zM42 1201
q17 32 39 56q28 41 46 57l43 45l32 34q33 26 80 26q26 -2 141 -39q45 -13 92 -13l41 3l121 43q39 21 106 67l2 -45l-47 -76l-45 -46q-59 -49 -135 -66l-43 -3l-92 18q-121 30 -141 30l-43 -4q-69 -28 -85 -44q-66 -41 -110 -92z" />
    <glyph glyph-name="afii62754" unicode="&#x623;" horiz-adv-x="597" arabic-form="final" 
d="M425 1439l4 -24q0 -74 -132 -104l-21 -2l-31 4h-24l-19 -2q-19 -11 -24 -21l-15 15l18 24q21 12 69 23q51 0 79 20l3 17q-5 9 -9 11q-43 8 -63 50q-12 28 32 88.5t87 60.5l-6 -59q-22 -2 -43 -13l-18 -26q0 -13 52 -30q50 -6 61 -32zM669 0h-59q-60 0 -125 26
q-86 32 -132 84l-39 54q-32 67 -32 216v52v22q0 77 -6 127l-20 154l-52 246l-6 36l-7 22l65 132q4 -9 6 -17q13 -35 16 -54l11 -63l8 -60l32 -227q0 -180 20 -329q0 -43 39 -103q32 -39 80 -70l34 -21l43 -18q42 -14 68 -14h56v-195z" />
    <glyph glyph-name="afii62755" unicode="&#x624;" horiz-adv-x="1145" arabic-form="final" 
d="M1171 -1h-173q-62 -179 -237 -349q-24 -24 -63 -50q-17 -13 -45.5 -32.5t-64.5 -39.5q-102 -62 -167 -88q-43 6 -218 88l-63 28l-47 24l-137 74l-119 64l7 14q119 -54 236 -91l61 -17l107 -24l44 -2l41 2q43 0 198 86q70 39 111 63q51 30 79 52q134 101 178 201l-69 2
l-48 13q-52 11 -121 50q-80 47 -80 162q0 50 11 99.5t37 105.5q52 110 121 173q36 32 97 32q43 0 71 -23q56 -50 97 -149l29 -188l4 -22l2 -19v-29l-6 -14h127v-196zM942 199l2 19v11l-6 54q-13 52 -64 110t-105 58q-43 -10 -72.5 -42.5t-29.5 -78.5q5 -56 115 -97
q73 -26 160 -34zM486 1093l4 -24q0 -74 -132 -104l-21 -2l-31 4h-24l-19 -2q-19 -11 -24 -21l-15 15l18 24q21 12 69 23q51 0 79 20l3 17q-5 9 -9 11q-43 8 -63 50q-12 28 32 88.5t87 60.5l-6 -59q-22 -2 -43 -13l-18 -26q0 -13 52 -30q50 -6 61 -32z" />
    <glyph glyph-name="afii62756" unicode="&#x625;" horiz-adv-x="636" arabic-form="final" 
d="M669 0h-59q-60 0 -125 26q-86 32 -132 84l-39 54q-32 67 -32 216v52v22q0 77 -6 127l-20 154l-52 246l-6 36l-7 22l65 132q4 -9 6 -17q13 -35 16 -54l11 -63l8 -60l32 -227q0 -180 20 -329q0 -43 39 -103q32 -39 80 -70l34 -21l43 -18q42 -14 68 -14h56v-195zM416 -290
l4 -24q0 -74 -132 -104l-21 -2l-31 4h-24l-19 -2q-19 -11 -24 -21l-15 15l18 24q21 12 69 23q51 0 79 20l3 17q-5 9 -9 11q-43 8 -63 50q-12 28 32 88.5t87 60.5l-6 -59q-22 -2 -43 -13l-18 -26q0 -13 52 -30q50 -6 61 -32z" />
    <glyph glyph-name="afii62759" unicode="&#x626;" horiz-adv-x="2941" arabic-form="final" 
d="M2953 0h-34q-232 0 -325 -31q-64 -19 -56 -49l141 -57l114 -49q113 -50 149 -121l2 -13q0 -20 -23.5 -128t-55.5 -153q-16 -35 -154 -106q-151 -82 -373 -132q-288 -65 -590 -65l-149 3l-229 8q-117 0 -212 18l-123 23q-274 44 -475 123q-87 35 -152 69q-51 20 -126 71
t-221 172l-48 54l48 13l334 -154q210 -95 649 -151q373 -46 676 -46q170 0 328 13t286.5 38t212.5 52t156 66q106 56 118 99q0 24 -69 65q-54 30 -93 45l-179 63q-41 18 -65 38.5t-24 41.5q0 19 5.5 44t25.5 79q41 105 54 124q23 32 106 74q114 54 239 54h132v-195zM701 625
l4 -24q0 -74 -132 -104l-21 -2l-31 4h-24l-19 -2q-19 -11 -24 -21l-15 15l18 24q21 12 69 23q51 0 79 20l3 17q-5 9 -9 11q-43 8 -63 50q-12 28 32 88.5t87 60.5l-6 -59q-22 -2 -43 -13l-18 -26q0 -13 52 -30q50 -6 61 -32z" />
    <glyph glyph-name="afii62757" unicode="&#x626;" horiz-adv-x="519" arabic-form="initial" 
d="M356 372q0 -152 -56 -251q-69 -119 -212 -119h-95v167h95q63 0 124 23q80 28 80 82v18q-2 6 -2.5 9.5t-10.5 16.5l-57 95l-17 34l-4 26l2 24q0 15 17 30l72 115q13 -31 27 -68.5t21.5 -68t11.5 -60.5t4 -73zM478 920q-14 -73 -46 -90l-378 -109q13 52 50 80q23 16 88 41
q-90 44 -90 108q0 29 25 61q41 60 113 115q63 47 110 47q30 0 51.5 -20.5t21.5 -55.5q0 -34 -41 -93q-73 44 -112 44q-26 0 -91 -44l48 -43l52 -34q49 -22 95 -28l43 4z" />
    <glyph glyph-name="afii62758" unicode="&#x626;" horiz-adv-x="519" arabic-form="medial" 
d="M616 179h-192q-24 0 -66.5 49t-48.5 107q-28 -61 -88.5 -108.5t-123.5 -47.5h-97v165h97q44 0 106 38q74 42 158 156l15 -6q11 -96 24 -115q26 -73 99 -73h117v-165zM544 847q-17 -71 -49 -87l-378 -108q17 54 51 80l89 41q-52 22 -73 46q-16 28 -20 62q0 22 22 59
q69 84 124 124t101 40q30 0 53 -22q14 -17 22 -54q0 -36 -41 -95q-67 44 -112 44q-31 0 -91 -44q50 -49 99 -75q28 -13 50 -20.5t43 -7.5h20l23 4l39 6z" />
    <glyph glyph-name="afii62760" unicode="&#x627;" horiz-adv-x="636" arabic-form="final" 
d="M669 0h-59q-60 0 -125 26q-86 32 -132 84l-39 54q-32 67 -32 216v52v22q0 77 -6 127l-20 154l-52 246l-6 36l-7 22l65 132q4 -9 6 -17q13 -35 16 -54l11 -63l8 -60l32 -227q0 -180 20 -329q0 -43 39 -103q32 -39 80 -70l34 -21l43 -18q42 -14 68 -14h56v-195z" />
    <glyph glyph-name="afii62763" unicode="&#x628;" horiz-adv-x="2334" arabic-form="final" 
d="M2387 0h-62q-108 0 -180 60q-45 33 -78 100q-60 -65 -127 -99l-65 -29q-95 -37 -244 -54l-251 -18l-287 -17l-127 4l-188 7l-117 6l-112 24q-218 44 -350 176q-95 89 -95 309v26l4 39q6 43 17 67q22 71 41 97l20 -5l-7 -32l-17 -50l-13 -97l6 -36q16 -156 175 -229
l98 -33l136 -34l136 -20q28 -6 125 -6l359 -7q143 0 362 21.5t271 36.5q24 5 68 15.5t94 25.5q75 28 93 70l39 90l38 82l16 -17l-16 -45q-6 -28 -9.5 -55t-5.5 -43q15 -28 28.5 -48.5t30.5 -35.5q56 -51 158 -51h36v-195zM1460 -350l-106 -163l-179 108l106 163z" />
    <glyph glyph-name="afii62761" unicode="&#x628;" horiz-adv-x="409" arabic-form="initial" 
d="M300 451q0 -84 -31 -218t-70 -186l-93 -34q-26 -6 -46 -9.5t-41 -3.5h-52v195h75q170 0 187 53q0 35 -5.5 61t-22.5 76q-28 84 -54 114l-78 102q2 13 8.5 35.5t17.5 44.5l21 49l24 33q48 -26 100 -113q30 -52 45 -99.5t15 -99.5zM291 -355l-99 -160l-184 108l102 158z
" />
    <glyph glyph-name="afii62762" unicode="&#x628;" horiz-adv-x="621" arabic-form="medial" 
d="M650 0h-84q-179 0 -259 160q-41 -58 -98 -100q-82 -60 -162 -60h-54v195h55q84 0 163 37.5t102 85.5l31 67l45 105l17 -17l-17 -45q-5 -30 -9 -53t-4 -45q28 -58 58 -84q56 -51 158 -51h58v-195zM469 -273l-102 -162l-185 106l105 158z" />
    <glyph glyph-name="afii62764" unicode="&#x629;" horiz-adv-x="999" arabic-form="final" 
d="M1010 0h-69q-78 0 -141 58q-88 78 -127 257l-19 113l-83 -104q-60 -76 -101 -108l-61 -11l-97 -4h-49h-33q-58 0 -93 9q-69 15 -95 39l9 36l36 52q22 35 94 119l45 34l86 42l111 38l222 69v203l56 122l17 -9q-12 -72 -12 -194q0 -288 68 -420q22 -45 80 -97
q59 -49 111 -49h45v-195zM654 454v15l-2 26q0 24 -3 32v84l-50 -47l-54 -46q-28 -23 -228 -73q-72 -17 -78 -39q8 -22 78 -22l71 -8l78 -2h52l19 2q17 0 43 13q39 21 74 65zM893 1190l-106 -164l-182 108l108 159zM618 1190l-97 -164l-184 108l100 159z" />
    <glyph glyph-name="afii62767" unicode="&#x62a;" horiz-adv-x="2377" arabic-form="final" 
d="M1501 927l-105 -164l-182 108l104 159zM1225 927l-99 -164l-182 108l100 159zM2387 0h-62q-108 0 -180 60q-45 33 -78 100q-60 -65 -127 -99l-65 -29q-95 -37 -244 -54l-251 -18l-287 -17l-127 4l-188 7l-117 6l-112 24q-218 44 -350 176q-95 89 -95 309v26l4 39
q6 43 17 67q22 71 41 97l20 -5l-7 -32l-17 -50l-13 -97l6 -36q16 -156 175 -229l98 -33l136 -34l136 -20q28 -6 125 -6l359 -7q143 0 362 21.5t271 36.5q24 5 68 15.5t94 25.5q75 28 93 70l39 90l38 82l16 -17l-16 -45q-6 -28 -9.5 -55t-5.5 -43q15 -28 28.5 -48.5
t30.5 -35.5q56 -51 158 -51h36v-195z" />
    <glyph glyph-name="afii62765" unicode="&#x62a;" horiz-adv-x="433" arabic-form="initial" 
d="M482 1005l-102 -163l-185 111l107 157zM210 1005l-100 -163l-182 111l104 157zM363 451q0 -94 -33 -222q-17 -73 -36 -114l-33 -68l100 -21l-31 6q-30 0 -58 -1t-67 -9q-62 -22 -123 -22h-95v195h115h64q39 6 75 10t49 43q-16 169 -81 251l-79 102l32 88l9 15
q11 33 24 46l4 4l8 9q46 -31 95 -113q61 -104 61 -199z" />
    <glyph glyph-name="afii62766" unicode="&#x62a;" horiz-adv-x="577" arabic-form="medial" 
d="M620 830l-102 -158l-183 108l101 156zM350 830l-102 -158l-183 108l106 156zM650 0h-84q-179 0 -259 160q-41 -58 -98 -100q-82 -60 -162 -60h-54v195h55q84 0 163 37.5t102 85.5l31 67l45 105l17 -17l-17 -45q-5 -30 -9 -53t-4 -45q28 -58 58 -84q56 -51 158 -51h58
v-195z" />
    <glyph glyph-name="afii62770" unicode="&#x62b;" horiz-adv-x="2334" arabic-form="final" 
d="M1257 1132l-103 -166l-180 112l106 156zM1473 896l-103 -159l-180 103l102 158zM1203 896l-99 -159l-184 103l102 158zM2387 0h-62q-108 0 -180 60q-45 33 -78 100q-60 -65 -127 -99l-65 -29q-95 -37 -244 -54l-251 -18l-287 -17l-127 4l-188 7l-117 6l-112 24
q-218 44 -350 176q-95 89 -95 309v26l4 39q6 43 17 67q22 71 41 97l20 -5l-7 -32l-17 -50l-13 -97l6 -36q16 -156 175 -229l98 -33l136 -34l136 -20q28 -6 125 -6l359 -7q143 0 362 21.5t271 36.5q24 5 68 15.5t94 25.5q75 28 93 70l39 90l38 82l16 -17l-16 -45
q-6 -28 -9.5 -55t-5.5 -43q15 -28 28.5 -48.5t30.5 -35.5q56 -51 158 -51h36v-195z" />
    <glyph glyph-name="afii62768" unicode="&#x62b;" horiz-adv-x="456" arabic-form="initial" 
d="M266 1242l-106 -160l-180 106l106 158zM482 1005l-102 -163l-185 111l107 157zM210 1005l-100 -163l-182 111l104 157zM363 451q0 -94 -33 -222q-17 -73 -36 -114l-33 -68l100 -21l-31 6q-30 0 -58 -1t-67 -9q-62 -22 -123 -22h-95v195h115h64q39 6 75 10t49 43
q-16 169 -81 251l-79 102l32 88l9 15q11 33 24 46l4 4l8 9q46 -31 95 -113q61 -104 61 -199z" />
    <glyph glyph-name="afii62769" unicode="&#x62b;" horiz-adv-x="599" arabic-form="medial" 
d="M402 1020l-100 -164l-183 108l103 162zM616 784l-100 -164l-183 110l103 162zM344 784l-102 -164l-181 110l103 162zM650 0h-84q-179 0 -259 160q-41 -58 -98 -100q-82 -60 -162 -60h-54v195h55q84 0 163 37.5t102 85.5l31 67l45 105l17 -17l-17 -45q-5 -30 -9 -53
t-4 -45q28 -58 58 -84q56 -51 158 -51h58v-195z" />
    <glyph glyph-name="afii62773" unicode="&#x62c;" horiz-adv-x="1329" arabic-form="final" 
d="M959 311l-142 -28q-26 -4 -38 -7.5t-49 -18.5q-190 -56 -363 -233q-95 -94 -170 -249l-59 -180l-8 -66q0 -130 88 -242q76 -98 203 -165l102 -38q21 0 67 -13l78 -16q157 -28 341 -28q168 0 287 18l139 19q86 15 142 37l-4 -39l-434 -192l-165 -69q-62 -11 -134 -11
q-149 0 -331.5 53t-266.5 139q-60 60 -108 162q-69 143 -69 307q0 30 1 66.5t13 95t51 172.5q127 347 417 502l133 72q-71 26 -146.5 39t-174.5 13q-80 0 -117 -24q-54 -26 -106 -113l-21 9q51 149 108 216q84 101 213 101h41l28 -8l206 -32q21 0 52 -11l95 -18l34 -6l37 -6
l82 -1h315l-92 -174l-111 -11l-101 -11q0 -45 65 -91q77 -36 170 -36h76v-195h-99q-89 0 -165.5 37t-105.5 118q-10 18 -15 85l2 37q0 15 9 34zM996 -340l-100 -168l-185 112l103 156z" />
    <glyph glyph-name="afii62771" unicode="&#x62c;" horiz-adv-x="1441" arabic-form="initial" 
d="M1467 421l-95 -181l-121 17l-125 7l-95 -3q-33 0 -52.5 -2t-55.5 -11q-39 -6 -60 -10.5t-46 -15.5l-217 -103q-97 -45 -206 -82t-230 -37h-177v195h177q171 0 378.5 70t228.5 115q-62 39 -188.5 75.5t-206.5 36.5l-43 -2q-18 0 -41 -8q-100 -18 -153 -61t-124 -153l-18 9
q77 187 180 283q119 114 296 114q112 0 216 -37q45 -15 89 -34q58 -28 93 -43q110 -46 211 -70l182 -39zM918 -229l-104 -165l-183 110l106 158z" />
    <glyph glyph-name="afii62772" unicode="&#x62c;" horiz-adv-x="1478" arabic-form="medial" 
d="M1469 473l-78 -188l-73 5h-154q28 -95 204 -95h118v-195h-144q-106 0 -188 54q-42 37 -74 106l-8 56l-5 63q-37 -3 -73.5 -10.5t-68.5 -19.5q-44 -7 -87 -29l-218 -112l-52 -22q-22 -8 -56 -25l-110 -35l-52 -9l-60 -11l-124 -6h-179v195h179q106 0 188 12.5t203 55.5
q204 63 225 111l-177 73l-67 20q-43 10 -169 25l-38 -2l-37 -8q-93 -22 -152.5 -66t-124.5 -148l-18 9q74 185 182 283q119 114 294 114q121 0 242 -43l257 -91l106 -32l193 -26l95 -7zM920 -229l-103 -165l-184 110l106 158z" />
    <glyph glyph-name="afii62776" unicode="&#x62d;" horiz-adv-x="1329" arabic-form="final" 
d="M959 311l-142 -28q-26 -4 -38 -7.5t-49 -18.5q-190 -56 -363 -233q-95 -94 -170 -249l-59 -180l-8 -66q0 -130 88 -242q76 -98 203 -165l102 -38q21 0 67 -13l78 -16q157 -28 341 -28q168 0 287 18l139 19q86 15 142 37l-4 -39l-434 -192l-165 -69q-62 -11 -134 -11
q-149 0 -331.5 53t-266.5 139q-60 60 -108 162q-69 143 -69 307q0 30 1 66.5t13 95t51 172.5q127 347 417 502l133 72q-71 26 -146.5 39t-174.5 13q-80 0 -117 -24q-54 -26 -106 -113l-21 9q51 149 108 216q84 101 213 101h41l28 -8l206 -32q21 0 52 -11l95 -18l34 -6l37 -6
l82 -1h315l-92 -174l-111 -11l-101 -11q0 -45 65 -91q77 -36 170 -36h76v-195h-99q-89 0 -165.5 37t-105.5 118q-10 18 -15 85l2 37q0 15 9 34z" />
    <glyph glyph-name="afii62774" unicode="&#x62d;" horiz-adv-x="1528" arabic-form="initial" 
d="M1467 421l-95 -181l-121 17l-125 7l-95 -3q-33 0 -52.5 -2t-55.5 -11q-39 -6 -60 -10.5t-46 -15.5l-217 -103q-97 -45 -206 -82t-230 -37h-177v195h177q171 0 378.5 70t228.5 115q-62 39 -188.5 75.5t-206.5 36.5l-43 -2q-18 0 -41 -8q-100 -18 -153 -61t-124 -153l-18 9
q77 187 180 283q119 114 296 114q112 0 216 -37q45 -15 89 -34q58 -28 93 -43q110 -46 211 -70l182 -39z" />
    <glyph glyph-name="afii62775" unicode="&#x62d;" horiz-adv-x="1478" arabic-form="medial" 
d="M1469 473l-78 -188l-73 5h-154q28 -95 204 -95h118v-195h-144q-106 0 -188 54q-42 37 -74 106l-8 56l-5 63q-37 -3 -73.5 -10.5t-68.5 -19.5q-44 -7 -87 -29l-218 -112l-52 -22q-22 -8 -56 -25l-110 -35l-52 -9l-60 -11l-124 -6h-179v195h179q106 0 188 12.5t203 55.5
q204 63 225 111l-177 73l-67 20q-43 10 -169 25l-38 -2l-37 -8q-93 -22 -152.5 -66t-124.5 -148l-18 9q74 185 182 283q119 114 294 114q121 0 242 -43l257 -91l106 -32l193 -26l95 -7z" />
    <glyph glyph-name="afii62779" unicode="&#x62e;" horiz-adv-x="1308" arabic-form="final" 
d="M894 964l-103 -167l-184 110l104 158zM959 311l-142 -28q-26 -4 -38 -7.5t-49 -18.5q-190 -56 -363 -233q-95 -94 -170 -249l-59 -180l-8 -66q0 -130 88 -242q76 -98 203 -165l102 -38q21 0 67 -13l78 -16q157 -28 341 -28q168 0 287 18l139 19q86 15 142 37l-4 -39
l-434 -192l-165 -69q-62 -11 -134 -11q-149 0 -331.5 53t-266.5 139q-60 60 -108 162q-69 143 -69 307q0 30 1 66.5t13 95t51 172.5q127 347 417 502l133 72q-71 26 -146.5 39t-174.5 13q-80 0 -117 -24q-54 -26 -106 -113l-21 9q51 149 108 216q84 101 213 101h41l28 -8
l206 -32q21 0 52 -11l95 -18l34 -6l37 -6l82 -1h315l-92 -174l-111 -11l-101 -11q0 -45 65 -91q77 -36 170 -36h76v-195h-99q-89 0 -165.5 37t-105.5 118q-10 18 -15 85l2 37q0 15 9 34z" />
    <glyph glyph-name="afii62777" unicode="&#x62e;" horiz-adv-x="1441" arabic-form="initial" 
d="M600 1275l-105 -158l-182 102l108 155zM1467 421l-95 -181l-121 17l-125 7l-95 -3q-33 0 -52.5 -2t-55.5 -11q-39 -6 -60 -10.5t-46 -15.5l-217 -103q-97 -45 -206 -82t-230 -37h-177v195h177q171 0 378.5 70t228.5 115q-62 39 -188.5 75.5t-206.5 36.5l-43 -2
q-18 0 -41 -8q-100 -18 -153 -61t-124 -153l-18 9q77 187 180 283q119 114 296 114q112 0 216 -37q45 -15 89 -34q58 -28 93 -43q110 -46 211 -70l182 -39z" />
    <glyph glyph-name="afii62778" unicode="&#x62e;" horiz-adv-x="1478" arabic-form="medial" 
d="M600 1275l-105 -158l-182 102l108 155zM1469 473l-78 -188l-73 5h-154q28 -95 204 -95h118v-195h-144q-106 0 -188 54q-42 37 -74 106l-8 56l-5 63q-37 -3 -73.5 -10.5t-68.5 -19.5q-44 -7 -87 -29l-218 -112l-52 -22q-22 -8 -56 -25l-110 -35l-52 -9l-60 -11l-124 -6
h-179v195h179q106 0 188 12.5t203 55.5q204 63 225 111l-177 73l-67 20q-43 10 -169 25l-38 -2l-37 -8q-93 -22 -152.5 -66t-124.5 -148l-18 9q74 185 182 283q119 114 294 114q121 0 242 -43l257 -91l106 -32l193 -26l95 -7z" />
    <glyph glyph-name="afii62780" unicode="&#x62f;" horiz-adv-x="1377" arabic-form="final" 
d="M1441 0h-106q-56 0 -121 47q-22 11 -67 72l-39 52l-52 82q-6 13 -19 15l-19 -7q-67 -93 -204 -177q-179 -104 -347 -104q-167 0 -245 139q-51 90 -51 255q0 56 7.5 103.5t29 118.5t66.5 165l13 -13l-23 -59q-20 -63 -32 -123t-12 -114l2 -31q0 -114 100 -173
q80 -49 201 -49q149 0 307 86q45 26 67 69l36 78l-4 15l-54 234l-39 194l-22 54l-21 60l9 41l13 54q15 57 21 65q9 -2 19 -28v-15l1 -8l6 -18l35 -164l53 -240q11 -54 44 -164l28 -71l43 -65q20 -32 80 -71l91 -59q78 -51 144 -51h61v-195z" />
    <glyph glyph-name="afii62781" unicode="&#x630;" horiz-adv-x="1377" arabic-form="final" 
d="M1441 0h-106q-56 0 -121 47q-22 11 -67 72l-39 52l-52 82q-6 13 -19 15l-19 -7q-67 -93 -204 -177q-179 -104 -347 -104q-167 0 -245 139q-51 90 -51 255q0 56 7.5 103.5t29 118.5t66.5 165l13 -13l-23 -59q-20 -63 -32 -123t-12 -114l2 -31q0 -114 100 -173
q80 -49 201 -49q149 0 307 86q45 26 67 69l36 78l-4 15l-54 234l-39 194l-22 54l-21 60l9 41l13 54q15 57 21 65q9 -2 19 -28v-15l1 -8l6 -18l35 -164l53 -240q11 -54 44 -164l28 -71l43 -65q20 -32 80 -71l91 -59q78 -51 144 -51h61v-195zM883 1447l-99 -160l-183 106
l101 158z" />
    <glyph glyph-name="afii62782" unicode="&#x631;" horiz-adv-x="1083" arabic-form="final" 
d="M1171 0h-104q-26 0 -77 17l-93 43l-29 -6q0 -50 -12 -128q-7 -74 -44 -136.5t-196.5 -206t-209.5 -143.5q-110 0 -272 127q-123 95 -195 195l17 13q154 -195 286 -195q35 0 80 18q26 10 45.5 20t53.5 31q102 55 257 210q141 141 147 180q0 34 -43 102l-104 172
q-15 24 -25 56l17 85q15 80 32 101l54 -82l39 -63l45 -80q35 -43 122.5 -89t141.5 -46h67v-195z" />
    <glyph glyph-name="afii62783" unicode="&#x632;" horiz-adv-x="1163" arabic-form="final" 
d="M627 862l-108 -160l-178 110l106 156zM1171 0h-104q-26 0 -77 17l-93 43l-29 -6q0 -50 -12 -128q-7 -74 -44 -136.5t-196.5 -206t-209.5 -143.5q-110 0 -272 127q-123 95 -195 195l17 13q154 -195 286 -195q35 0 80 18q26 10 45.5 20t53.5 31q102 55 257 210
q141 141 147 180q0 34 -43 102l-104 172q-15 24 -25 56l17 85q15 80 32 101l54 -82l39 -63l45 -80q35 -43 122.5 -89t141.5 -46h67v-195z" />
    <glyph glyph-name="afii62786" unicode="&#x633;" horiz-adv-x="2245" arabic-form="final" 
d="M1021 58q0 -56 -2 -85.5t-9 -83.5t-15.5 -81t-13.5 -39t-16 -33q-44 -87 -210 -156q-71 -28 -144.5 -43t-155.5 -15q-156 0 -264 58q-112 67 -145 229v31q0 77 59 290l15 54l20 58l62 179l22 -10l-76 -234q-52 -168 -50 -197q0 -127 93 -195q54 -38 219 -75l82 -7
q71 0 143.5 15.5t160.5 52.5q143 64 166 142v24q0 28 -6 51t-9 36l-41 117l-10 27q-3 18 -13 27l-67 135l6 50l19 52q16 48 41 71l80 -136l24 -47l20 -50q32 -43 158 -82q41 -7 101.5 -13t120.5 -6q315 0 398 121q25 60 79 256l18 -15l-33 -142l-32 -160l26 -54l47 -65
q2 -9 17 -13q11 0 16 22l105 389l16 -13l-46 -208q9 -45 89 -78q43 -14 101 -14h69v-195h-101q-74 0 -128 43q-23 17 -68 106l-70 -290q-28 13 -67 89l-71 147q-48 -41 -162 -68t-220 -27q-240 0 -348 58z" />
    <glyph glyph-name="afii62784" unicode="&#x633;" horiz-adv-x="1489" arabic-form="initial" 
d="M1469 361q0 -22 -6.5 -48t-21.5 -67l-45 -118q-9 -26 -20 -48t-32 -52q-61 0 -130 37l-117 90q-53 -53 -216 -75l-244 -32q-71 0 -71 47v15q-24 -13 -71.5 -29t-118.5 -36q-177 -45 -309 -45h-70v195h64q144 0 324.5 32t267.5 95q62 43 107 142l70 156l12 -9l-51 -157
l-67 -186q8 -9 13 -11h45l104 6l88 7q110 19 160 80l37 99l43 152l19 -13l-38 -141q-15 -62 -30 -160q12 -23 66 -58l78 -37l15 -6h18l17 6q6 9 9.5 21t7.5 25l2 30q0 45 -11 88l-36 111l88 127l31 33l15 -108l6 -134z" />
    <glyph glyph-name="afii62785" unicode="&#x633;" horiz-adv-x="1351" arabic-form="medial" 
d="M1365 0h-105q-74 0 -128 43q-22 26 -67 106l-69 -290q-28 11 -67 89l-73 147q-93 -93 -389 -93h-54q-41 0 -55 5.5t-36 40.5l-106 -37q-54 -11 -123 -11h-100v195h65q145 0 240 25q151 39 218 186l70 154l21 -5l-117 -330l-2 -20l7 -6h49h31h26h23q78 0 111 10
q108 18 161 81l20 75l52 181l21 -15l-34 -142l-33 -160l28 -54l13 -20l3 -10l4 -4l26 -31q8 -11 15 -13q15 0 19 22l102 389l17 -13l-45 -208q9 -43 88 -78q24 -6 48 -10t52 -4h73v-195z" />
    <glyph glyph-name="afii62789" unicode="&#x634;" horiz-adv-x="2245" arabic-form="final" 
d="M1567 1087l-106 -160l-181 108l108 158zM1781 855l-103 -162l-184 108l104 158zM1511 855l-103 -162l-178 108l100 158zM1021 58q0 -56 -2 -85.5t-9 -83.5t-15.5 -81t-13.5 -39t-16 -33q-44 -87 -210 -156q-71 -28 -144.5 -43t-155.5 -15q-156 0 -264 58
q-112 67 -145 229v31q0 77 59 290l15 54l20 58l62 179l22 -10l-76 -234q-52 -168 -50 -197q0 -127 93 -195q54 -38 219 -75l82 -7q71 0 143.5 15.5t160.5 52.5q143 64 166 142v24q0 28 -6 51t-9 36l-41 117l-10 27q-3 18 -13 27l-67 135l6 50l19 52q16 48 41 71l80 -136
l24 -47l20 -50q32 -43 158 -82q41 -7 101.5 -13t120.5 -6q315 0 398 121q25 60 79 256l18 -15l-33 -142l-32 -160l26 -54l47 -65q2 -9 17 -13q11 0 16 22l105 389l16 -13l-46 -208q9 -45 89 -78q43 -14 101 -14h69v-195h-101q-74 0 -128 43q-23 17 -68 106l-70 -290
q-28 13 -67 89l-71 147q-48 -41 -162 -68t-220 -27q-240 0 -348 58z" />
    <glyph glyph-name="afii62787" unicode="&#x634;" horiz-adv-x="1489" arabic-form="initial" 
d="M1126 1171l-106 -171l-182 117l104 153zM1342 929l-106 -158l-180 108l106 156zM1065 929l-101 -158l-180 108l108 156zM1469 361q0 -22 -6.5 -48t-21.5 -67l-45 -118q-9 -26 -20 -48t-32 -52q-61 0 -130 37l-117 90q-53 -53 -216 -75l-244 -32q-71 0 -71 47v15
q-24 -13 -71.5 -29t-118.5 -36q-177 -45 -309 -45h-70v195h64q144 0 324.5 32t267.5 95q62 43 107 142l70 156l12 -9l-51 -157l-67 -186q8 -9 13 -11h45l104 6l88 7q110 19 160 80l37 99l43 152l19 -13l-38 -141q-15 -62 -30 -160q12 -23 66 -58l78 -37l15 -6h18l17 6
q6 9 9.5 21t7.5 25l2 30q0 45 -11 88l-36 111l88 127l31 33l15 -108l6 -134z" />
    <glyph glyph-name="afii62788" unicode="&#x634;" horiz-adv-x="1351" arabic-form="medial" 
d="M942 1087l-102 -160l-183 108l106 158zM1162 855l-106 -162l-185 108l106 158zM892 855l-108 -162l-177 108l100 158zM1365 0h-105q-74 0 -128 43q-22 26 -67 106l-69 -290q-28 11 -67 89l-73 147q-93 -93 -389 -93h-54q-41 0 -55 5.5t-36 40.5l-106 -37
q-54 -11 -123 -11h-100v195h65q145 0 240 25q151 39 218 186l70 154l21 -5l-117 -330l-2 -20l7 -6h49h31h26h23q78 0 111 10q108 18 161 81l20 75l52 181l21 -15l-34 -142l-33 -160l28 -54l13 -20l3 -10l4 -4l26 -31q8 -11 15 -13q15 0 19 22l102 389l17 -13l-45 -208
q9 -43 88 -78q24 -6 48 -10t52 -4h73v-195z" />
    <glyph glyph-name="afii62792" unicode="&#x635;" horiz-adv-x="2202" arabic-form="final" 
d="M2074 406q2 7 -28 59q-39 51 -84 79q-18 11 -59 18l-65 10q-67 0 -99 -25l-156 -134l-235 -206h99l83 11q71 0 131 13l80 18q59 15 115 34t116 48q100 51 102 75zM1368 305l267 235l117 97l91 74q54 30 95 30q76 0 153 -61q61 -53 87 -148q0 -24 -9 -54.5t-35 -86.5
l-49 -93l-56 -82l-20 -17l-28 -18l60 1l121 13h50v-195h-1048q-58 0 -101 11t-65 34l-2 -89l-11 -80q-17 -97 -43 -140q-50 -91 -207 -153q-72 -27 -151 -44t-152 -17q-82 0 -146 13t-122 47q-108 61 -142 227l-2 20v11q0 84 62 290l33 112l64 179l22 -10l-76 -234
q-43 -132 -52 -197q0 -168 178 -233l134 -37l51 -4l33 -3q71 0 143.5 15.5t160.5 52.5q143 64 165 142l2 24q0 28 -14 79t-42 121t-91 193q0 39 24 104q19 48 39 69l64 -108l28 -64l28 -61q20 -39 108 -50l70 -11l38 -4h41l27 2z" />
    <glyph glyph-name="afii62790" unicode="&#x635;" horiz-adv-x="2005" arabic-form="initial" 
d="M1962 588l2 -13q0 -41 -44 -130l-25 -48l-28 -47l-24 -37l-28 -43q-44 -47 -119 -91q-54 -30 -179 -80q-83 -25 -193 -41q-52 -8 -119 -13.5t-127 -5.5l-11 -55l-11 -56l-26 -97l-23 -7l2 42l19 169h-285l-13 2l-49 6l-76 4q-41 9 -41 46l2 17q-24 -13 -71.5 -29
t-118.5 -36q-177 -45 -309 -45h-70v195h64q144 0 324.5 32t267.5 95q62 43 107 142l70 156l12 -9l-51 -157l-67 -186q10 -11 17 -15l61 -5l94 -2h80l20 2l41 1q15 0 24 8l86 93l478 419q26 15 47.5 21.5t47.5 6.5q82 0 154 -59.5t88 -149.5zM1860 464q-4 9 -7 14
q-12 21 -27 41q-31 47 -83 81l-56 20l-69 11q-58 0 -95 -26l-156 -134l-237 -207h95l88 8h29q19 0 34 4l65 11l86 20l115 36l114 44q93 51 104 77z" />
    <glyph glyph-name="afii62791" unicode="&#x635;" horiz-adv-x="1798" arabic-form="medial" 
d="M1806 0h-994l-41 -115l-34 -106l-22 -2l6 47q11 102 35 176h-311l-54 2q-9 0 -15 30q0 18 4 22q-108 -54 -313 -54h-70v195h130l50 2h43l37 2q43 0 60.5 2t52 14t91.5 50t96 104l82 195l16 -9l-54 -155l-61 -175l-2 -15l9 -9q17 -4 67.5 -5t87.5 -1l128 2l21 2l24 4
l84 89l400 358l80 61q41 30 93 30q77 0 153 -63q67 -56 89 -146v-14q0 -45 -43 -131q-48 -95 -107 -171l-21 -17l-26 -18l58 1l121 13h50v-195zM1670 406q6 22 -45 74q-39 41 -69 64q-55 28 -124 28q-82 0 -177 -90l-80 -69l-233 -206h97l84 11l61 2q22 2 52 7.5t60 12.5
l39 9q45 12 88.5 26.5t95.5 37.5q151 56 151 93z" />
    <glyph glyph-name="afii62795" unicode="&#x636;" horiz-adv-x="2202" arabic-form="final" 
d="M1629 946l-102 -164l-181 114l101 156zM2074 406q2 7 -28 59q-39 51 -84 79q-18 11 -59 18l-65 10q-67 0 -99 -25l-156 -134l-235 -206h99l83 11q71 0 131 13l80 18q59 15 115 34t116 48q100 51 102 75zM1368 305l267 235l117 97l91 74q54 30 95 30q76 0 153 -61
q61 -53 87 -148q0 -24 -9 -54.5t-35 -86.5l-49 -93l-56 -82l-20 -17l-28 -18l60 1l121 13h50v-195h-1048q-58 0 -101 11t-65 34l-2 -89l-11 -80q-17 -97 -43 -140q-50 -91 -207 -153q-72 -27 -151 -44t-152 -17q-82 0 -146 13t-122 47q-108 61 -142 227l-2 20v11
q0 84 62 290l33 112l64 179l22 -10l-76 -234q-43 -132 -52 -197q0 -168 178 -233l134 -37l51 -4l33 -3q71 0 143.5 15.5t160.5 52.5q143 64 165 142l2 24q0 28 -14 79t-42 121t-91 193q0 39 24 104q19 48 39 69l64 -108l28 -64l28 -61q20 -39 108 -50l70 -11l38 -4h41l27 2z
" />
    <glyph glyph-name="afii62793" unicode="&#x636;" horiz-adv-x="2005" arabic-form="initial" 
d="M1454 989l-106 -164l-181 113l99 155zM1962 588l2 -13q0 -41 -44 -130l-25 -48l-28 -47l-24 -37l-28 -43q-44 -47 -119 -91q-54 -30 -179 -80q-83 -25 -193 -41q-52 -8 -119 -13.5t-127 -5.5l-11 -55l-11 -56l-26 -97l-23 -7l2 42l19 169h-285l-13 2l-49 6l-76 4
q-41 9 -41 46l2 17q-24 -13 -71.5 -29t-118.5 -36q-177 -45 -309 -45h-70v195h64q144 0 324.5 32t267.5 95q62 43 107 142l70 156l12 -9l-51 -157l-67 -186q10 -11 17 -15l61 -5l94 -2h80l20 2l41 1q15 0 24 8l86 93l478 419q26 15 47.5 21.5t47.5 6.5q82 0 154 -59.5
t88 -149.5zM1860 464q-4 9 -7 14q-12 21 -27 41q-31 47 -83 81l-56 20l-69 11q-58 0 -95 -26l-156 -134l-237 -207h95l88 8h29q19 0 34 4l65 11l86 20l115 36l114 44q93 51 104 77z" />
    <glyph glyph-name="afii62794" unicode="&#x636;" horiz-adv-x="1798" arabic-form="medial" 
d="M1192 955l-105 -164l-180 110l102 160zM1806 0h-994l-41 -115l-34 -106l-22 -2l6 47q11 102 35 176h-311l-54 2q-9 0 -15 30q0 18 4 22q-108 -54 -313 -54h-70v195h130l50 2h43l37 2q43 0 60.5 2t52 14t91.5 50t96 104l82 195l16 -9l-54 -155l-61 -175l-2 -15l9 -9
q17 -4 67.5 -5t87.5 -1l128 2l21 2l24 4l84 89l400 358l80 61q41 30 93 30q77 0 153 -63q67 -56 89 -146v-14q0 -45 -43 -131q-48 -95 -107 -171l-21 -17l-26 -18l58 1l121 13h50v-195zM1670 406q6 22 -45 74q-39 41 -69 64q-55 28 -124 28q-82 0 -177 -90l-80 -69
l-233 -206h97l84 11l61 2q22 2 52 7.5t60 12.5l39 9q45 12 88.5 26.5t95.5 37.5q151 56 151 93z" />
    <glyph glyph-name="afii62798" unicode="&#x637;" horiz-adv-x="1172" arabic-form="final" 
d="M1188 0h-177l-136 -1l-238 1q-64 0 -190 24l-104 23q-19 5 -36 10.5t-82 30.5q-164 57 -260 113l13 21l244 -6l89 63v110l-13 97l-30 169l-39 313l-86 67q-44 45 -57 99q0 35 24 120t59 150l17 -6q-11 -13 -17 -44l-5 -49q-8 -67 89 -125l77 -28q13 -5 30.5 -11.5
t30.5 -14.5l-45 -180l-18 4l-17 5q-8 -5 -11 -17q0 -9 -6 -15l47 -262q20 -123 20 -186v-34l-2 -17v-22q0 -11 -3 -26l-6 -37l-15 -41l372 279l58 39l82 56q36 15 49 18.5t33 3.5q78 0 158 -67t80 -154q0 -28 -28 -84l-119 -166l-31 -20l-34 -22l84 5l87 9h62v-195z
M1052 346q4 13 -26 64.5t-76 82.5l-28 19q-38 15 -84 24l-26 2q-45 0 -82 -22l-151 -105l-24 -16l-28 -19l-80 -63l-136 -103l39 -1l84 -2l74 2h60l71 9l124 15l177 50q106 37 112 63z" />
    <glyph glyph-name="afii62796" unicode="&#x637;" horiz-adv-x="1172" arabic-form="initial" 
d="M1167 473q0 -52 -59 -160q-52 -93 -101 -147q-65 -71 -290 -125q-88 -19 -173.5 -30t-152.5 -11h-199l-43 -115l-34 -106l-20 -2l4 47q3 28 12.5 73.5t24.5 102.5h-149v195h220l104 84v110l-13 97l-30 169l-39 313l-86 67q-44 45 -57 99q0 35 24 120t59 150l17 -6
q-11 -13 -17 -44l-5 -49q-8 -67 89 -125l77 -28q13 -5 30.5 -11.5t30.5 -14.5l-45 -180l-18 4l-17 5q-8 -5 -11 -17q0 -9 -6 -15l47 -262q20 -123 20 -186v-34l-2 -17v-22q0 -11 -3 -26l-6 -37l-15 -41l372 279l58 39l82 56q36 15 49 18.5t33 3.5q78 0 158 -67t80 -154z
M1052 346q4 13 -26 64.5t-76 82.5l-28 19q-38 15 -84 24l-26 2q-45 0 -82 -22l-103 -71l-329 -244l20 -2h23l191 4l60 4q22 0 48.5 5.5t42.5 9.5q56 11 92 11l52 15q31 7 50 12.5t63 22.5q106 37 112 63z" />
    <glyph glyph-name="afii62797" unicode="&#x637;" horiz-adv-x="1172" arabic-form="medial" 
d="M1188 0h-996l-43 -115l-34 -106l-20 -2l4 47q3 28 12.5 73.5t24.5 102.5h-149v195h220l104 84v110l-13 97l-30 169l-39 313l-86 67q-44 45 -57 99q0 35 24 120t59 150l17 -6q-11 -13 -17 -44l-5 -49q-8 -67 89 -125l77 -28q13 -5 30.5 -11.5t30.5 -14.5l-45 -180l-18 4
l-17 5q-8 -5 -11 -17q0 -9 -6 -15l47 -262q20 -123 20 -186v-34l-2 -17v-22q0 -11 -3 -26l-6 -37l-15 -41l372 279l58 39l82 56q36 15 49 18.5t33 3.5q78 0 158 -67t80 -154q0 -28 -28 -84l-119 -166l-31 -20l-34 -22l84 5l87 9h62v-195zM1052 346q4 13 -26 64.5t-76 82.5
l-28 19q-38 15 -84 24l-26 2q-45 0 -82 -22l-103 -71l-329 -244l20 -2h23l191 4l60 4q22 0 48.5 5.5t42.5 9.5q56 11 92 11l52 15q31 7 50 12.5t63 22.5q106 37 112 63z" />
    <glyph glyph-name="afii62801" unicode="&#x638;" horiz-adv-x="1172" arabic-form="final" 
d="M1188 0h-177l-136 -1l-238 1q-64 0 -190 24l-104 23q-19 5 -36 10.5t-82 30.5q-164 57 -260 113l13 21l244 -6l89 63v110l-13 97l-30 169l-39 313l-86 67q-44 45 -57 99q0 35 24 120t59 150l17 -6q-11 -13 -17 -44l-5 -49q-8 -67 89 -125l77 -28q13 -5 30.5 -11.5
t30.5 -14.5l-45 -180l-18 4l-17 5q-8 -5 -11 -17q0 -9 -6 -15l47 -262q20 -123 20 -186v-34l-2 -17v-22q0 -11 -3 -26l-6 -37l-15 -41l372 279l58 39l82 56q36 15 49 18.5t33 3.5q78 0 158 -67t80 -154q0 -28 -28 -84l-119 -166l-31 -20l-34 -22l84 5l87 9h62v-195z
M1052 346q4 13 -26 64.5t-76 82.5l-28 19q-38 15 -84 24l-26 2q-45 0 -82 -22l-151 -105l-24 -16l-28 -19l-80 -63l-136 -103l39 -1l84 -2l74 2h60l71 9l124 15l177 50q106 37 112 63zM842 1043l-90 -159l-145 103l91 162z" />
    <glyph glyph-name="afii62799" unicode="&#x638;" horiz-adv-x="1195" arabic-form="initial" 
d="M782 1087l-88 -158l-148 102l91 162zM1082 475q0 -183 -240 -326q-116 -63 -265 -104q-138 -32 -324 -32h-284v166h96q82 0 134 69q23 41 43 121q7 35 11 73t4 98q0 221 -34 400l-76 408v30l11 46q6 34 58 97l117 -169q-44 -34 -55.5 -74t-11.5 -111l39 -273
q17 -116 17 -265v-74l-2 -17v-24l-5 -26l-2 -41q0 -36 -23 -140l66 69l26 26l35 30q95 104 218 181q149 91 262 91q84 0 138 -73q47 -67 47 -156zM974 391q0 54 -134 91l-77 8q-145 0 -260 -69q-47 -30 -118 -97q-52 -52 -124 -145h59q71 0 166 16q227 40 400 129
q82 37 88 67z" />
    <glyph glyph-name="afii62800" unicode="&#x638;" horiz-adv-x="1172" arabic-form="medial" 
d="M812 920l-105 -168l-180 112l102 158zM1188 0h-996l-43 -115l-34 -106l-20 -2l4 47q3 28 12.5 73.5t24.5 102.5h-149v195h220l104 84v110l-13 97l-30 169l-39 313l-86 67q-44 45 -57 99q0 35 24 120t59 150l17 -6q-11 -13 -17 -44l-5 -49q-8 -67 89 -125l77 -28
q13 -5 30.5 -11.5t30.5 -14.5l-45 -180l-18 4l-17 5q-8 -5 -11 -17q0 -9 -6 -15l47 -262q20 -123 20 -186v-34l-2 -17v-22q0 -11 -3 -26l-6 -37l-15 -41l372 279l58 39l82 56q36 15 49 18.5t33 3.5q78 0 158 -67t80 -154q0 -28 -28 -84l-119 -166l-31 -20l-34 -22l84 5l87 9
h62v-195zM1052 346q4 13 -26 64.5t-76 82.5l-28 19q-38 15 -84 24l-26 2q-45 0 -82 -22l-103 -71l-329 -244l20 -2h23l191 4l60 4q22 0 48.5 5.5t42.5 9.5q56 11 92 11l52 15q31 7 50 12.5t63 22.5q106 37 112 63z" />
    <glyph glyph-name="afii62804" unicode="&#x639;" horiz-adv-x="1089" arabic-form="final" 
d="M138 -405l-8 -66q0 -130 88 -242q76 -98 203 -165l102 -38q21 0 67 -13l78 -16q157 -28 341 -28q168 0 287 18l139 19q86 15 142 37l-4 -39l-434 -192l-165 -69q-62 -11 -134 -11q-149 0 -331.5 53t-266.5 139q-60 60 -108 162q-69 143 -69 307q0 30 1 66.5t13 95
t51 172.5q67 184 170 303l82 83q37 38 95 75l111 65q-26 73 -98 113q-39 21 -79 30l-40 8l-43 5q-36 0 -60 -9l-2 13q0 41 32.5 130.5t60.5 100.5l99 13l106 6l45 -2l44 -4l38 -2q48 -11 113 -45q30 -16 54 -48q47 -52 47 -127q0 -126 -134 -236q0 -26 37 -43t108 -17
l115 -2h69v-195h-123q-171 0 -252 46.5t-109 156.5q-288 -130 -421 -435z" />
    <glyph glyph-name="afii62802" unicode="&#x639;" horiz-adv-x="929" arabic-form="initial" 
d="M842 248q0 -12 -33.5 -85.5t-47.5 -89.5l-173 -26l-249 -30q-134 -17 -218 -17h-128v195h39q13 0 15 21l-30 61l-13 25l-4 13l-1 15l-2 35l3 56l13 24l11 28q45 104 139 182.5t172 78.5q130 0 240 -75l36 -24l44 -30l47 -50l-4 -32q-22 13 -162.5 48.5t-168.5 35.5
q-71 0 -161.5 -31.5t-112.5 -85.5q-4 -30 24 -79q43 -59 92 -98q54 -39 143 -64l84 -16l100 -4h125l63 2h36l22 2z" />
    <glyph glyph-name="afii62803" unicode="&#x639;" horiz-adv-x="884" arabic-form="medial" 
d="M897 0h-117q-91 0 -171 34.5t-119 106.5q-39 -27 -79 -52q-22 -15 -70 -42q-110 -47 -272 -47h-83v195h57q309 0 402 138q-19 49 -101 91q-42 23 -79.5 33t-78.5 10q-31 0 -52 -9l-4 13q0 45 32.5 130.5t60.5 100.5l101 13l104 6l43 -2l43 -2q26 0 43 -6l43 -13
q81 -26 125 -81t44 -124q0 -136 -136 -236q0 -32 86 -50q56 -12 111 -12h67v-195z" />
    <glyph glyph-name="afii62807" unicode="&#x63a;" horiz-adv-x="1089" arabic-form="final" 
d="M793 1106l-99 -162l-182 108l99 158zM138 -405l-8 -66q0 -130 88 -242q76 -98 203 -165l102 -38q21 0 67 -13l78 -16q157 -28 341 -28q168 0 287 18l139 19q86 15 142 37l-4 -39l-434 -192l-165 -69q-62 -11 -134 -11q-149 0 -331.5 53t-266.5 139q-60 60 -108 162
q-69 143 -69 307q0 30 1 66.5t13 95t51 172.5q67 184 170 303l82 83q37 38 95 75l111 65q-26 73 -98 113q-39 21 -79 30l-40 8l-43 5q-36 0 -60 -9l-2 13q0 41 32.5 130.5t60.5 100.5l99 13l106 6l45 -2l44 -4l38 -2q48 -11 113 -45q30 -16 54 -48q47 -52 47 -127
q0 -126 -134 -236q0 -26 37 -43t108 -17l115 -2h69v-195h-123q-171 0 -252 46.5t-109 156.5q-288 -130 -421 -435z" />
    <glyph glyph-name="afii62805" unicode="&#x63a;" horiz-adv-x="929" arabic-form="initial" 
d="M492 1061l-103 -162l-182 106l100 160zM842 248q0 -12 -33.5 -85.5t-47.5 -89.5l-173 -26l-249 -30q-134 -17 -218 -17h-128v195h39q13 0 15 21l-30 61l-13 25l-4 13l-1 15l-2 35l3 56l13 24l11 28q45 104 139 182.5t172 78.5q130 0 240 -75l36 -24l44 -30l47 -50l-4 -32
q-22 13 -162.5 48.5t-168.5 35.5q-71 0 -161.5 -31.5t-112.5 -85.5q-4 -30 24 -79q43 -59 92 -98q54 -39 143 -64l84 -16l100 -4h125l63 2h36l22 2z" />
    <glyph glyph-name="afii62806" unicode="&#x63a;" horiz-adv-x="884" arabic-form="medial" 
d="M547 1078l-102 -169l-181 113l99 158zM897 0h-117q-91 0 -171 34.5t-119 106.5q-39 -27 -79 -52q-22 -15 -70 -42q-110 -47 -272 -47h-83v195h57q309 0 402 138q-19 49 -101 91q-42 23 -79.5 33t-78.5 10q-31 0 -52 -9l-4 13q0 45 32.5 130.5t60.5 100.5l101 13l104 6
l43 -2l43 -2q26 0 43 -6l43 -13q81 -26 125 -81t44 -124q0 -136 -136 -236q0 -32 86 -50q56 -12 111 -12h67v-195z" />
    <glyph glyph-name="afii62810" unicode="&#x641;" horiz-adv-x="2777" arabic-form="final" 
d="M2565 1246l-103 -162l-184 109l102 159zM2587 363q0 48 -24 114q-30 83 -78 104l-23 -2l-46 -11l-26 -13q-53 -30 -90 -82l-2 -9q0 -13 28 -58q28 -52 108 -112l36 -17l65 41zM2256 203q-34 50 -51 141q0 23 31 116t100 190q44 61 121 108q31 18 55.5 27.5t46.5 9.5
l13 -2q54 -50 88 -147q22 -67 22 -143q0 -19 -4.5 -37.5t-25.5 -70.5l-17 -41l-22 -52l-19 -38l-20 -35q22 -19 87 -30l39 -4h86v-195h-132l-43 6q-65 11 -115 35q-52 15 -88 39q-65 -39 -203 -83l-126 -39l-157 -38q-46 -11 -135.5 -24t-236.5 -30l-248 -22l-238 -7l-143 3
q-107 0 -201.5 12.5t-197.5 34.5q-268 56 -387 174q-41 40 -75 125l-16 84l-4 97q0 57 28 145q20 58 50 99l22 -10l-13 -33q-3 -19 -18 -52l-11 -51l-2 -48v-13l2 -15q22 -160 175 -229q100 -48 249 -71l153 -22l130 -6l367 -7l248 7q46 0 110.5 6.5t155.5 18.5l264 33
q162 22 257 52q43 13 49 32z" />
    <glyph glyph-name="afii62808" unicode="&#x641;" horiz-adv-x="824" arabic-form="initial" 
d="M469 1309l-102 -162l-185 110l105 158zM698 495q0 -98 -61 -247q-45 -110 -73 -149q-33 -36 -117 -67l-93 -26l-114 -6h-247v195l232 4q198 0 274 43q58 28 87 88q14 26 14 54v33l-12 34l-3 18l-6 15l-19 34l-35 -66q-11 -39 -30 -57q-61 -65 -154 -65q-71 0 -139 45.5
t-68 156.5q0 56 16 115.5t51 138.5q62 134 134 195q21 15 52 19q26 0 47 -11q18 -4 56 -30l35 -36q73 -61 134 -225q39 -106 39 -203zM523 592v24l-5 11q-25 49 -86 94q-34 22 -61 32t-53 10q-41 -7 -68.5 -32t-27.5 -76q0 -29 52 -63q63 -26 123 -26q54 0 126 26z" />
    <glyph glyph-name="afii62809" unicode="&#x641;" horiz-adv-x="673" arabic-form="medial" 
d="M469 1246l-102 -162l-185 109l105 159zM693 0h-41l-88 2q-35 0 -92 16.5t-150 54.5q-41 -26 -153 -54q-31 -8 -72 -13.5t-69 -5.5h-41v195h35l71 2l41 2l26 4q-37 48 -50 141q0 21 30.5 115t99.5 191q43 59 123 108q63 37 101 37l9 -2q61 -52 91 -147l15 -76l7 -67
q0 -49 -42 -142q-34 -80 -69 -132l95 -26l97 -8h26v-195zM492 363q0 41 -26.5 118.5t-76.5 99.5l-20 -2l-28 -6l-49 -18q-50 -28 -85 -82l-4 -8q0 -20 26 -59q37 -58 110 -112l17 -9l18 -8l60 41z" />
    <glyph glyph-name="afii62813" unicode="&#x642;" horiz-adv-x="1290" arabic-form="final" 
d="M1057 989l-103 -159l-182 108l106 155zM783 989l-103 -159l-178 108l104 155zM958 220v20l-11 24q-12 80 -116 140q-24 15 -52 22.5t-46 7.5q-51 -11 -71 -32q-21 -17 -21 -67q0 -17 19 -37q32 -30 63 -45q78 -37 181 -37h35zM1029 4l-92 2l-41 1l-57 10l-95 18
q-77 13 -114 45q-71 39 -71 158q0 99 62 233q56 119 130 184q15 13 50 19q88 0 175 -117q36 -51 94 -166l29 -84l17 -59l6 -41q3 -4 41 -10l61 -5h30l28 3h18v-195h-89l-69 2q0 -80 -22 -184l-24 -95l-32 -80q-22 -52 -194 -110l-175 -43q-93 -9 -158 -9q-210 0 -341 108
q-169 142 -169 431q0 92 33 198q4 18 8.5 32t23.5 55l56 127l22 -11q-78 -201 -78 -317v-50l4 -30q44 -325 456 -325h37l37 4q88 0 133 11q18 0 54.5 9t84.5 26q144 47 166 91l6 12l1 13l-11 63l-3 9q-6 21 -10 26q-4 15 -7 19l-6 13z" />
    <glyph glyph-name="afii62811" unicode="&#x642;" horiz-adv-x="824" arabic-form="initial" 
d="M627 1331l-104 -160l-179 106l103 158zM359 1331l-106 -160l-184 106l110 158zM698 495q0 -98 -61 -247q-45 -110 -73 -149q-33 -36 -117 -67l-93 -26l-114 -6h-247v195l232 4q198 0 274 43q58 28 87 88q14 26 14 54v33l-12 34l-3 18l-6 15l-19 34l-35 -66
q-11 -39 -30 -57q-61 -65 -154 -65q-71 0 -139 45.5t-68 156.5q0 56 16 115.5t51 138.5q62 134 134 195q21 15 52 19q26 0 47 -11q18 -4 56 -30l35 -36q73 -61 134 -225q39 -106 39 -203zM523 592v24l-5 11q-25 49 -86 94q-34 22 -61 32t-53 10q-41 -7 -68.5 -32t-27.5 -76
q0 -29 52 -63q63 -26 123 -26q54 0 126 26z" />
    <glyph glyph-name="afii62812" unicode="&#x642;" horiz-adv-x="673" arabic-form="medial" 
d="M693 0h-41l-88 2q-35 0 -92 16.5t-150 54.5q-41 -26 -153 -54q-31 -8 -72 -13.5t-69 -5.5h-41v195h35l71 2l41 2l26 4q-37 48 -50 141q0 21 30.5 115t99.5 191q43 59 123 108q63 37 101 37l9 -2q61 -52 91 -147l15 -76l7 -67q0 -49 -42 -142q-34 -80 -69 -132l95 -26
l97 -8h26v-195zM492 363q0 41 -26.5 118.5t-76.5 99.5l-20 -2l-28 -6l-49 -18q-50 -28 -85 -82l-4 -8q0 -20 26 -59q37 -58 110 -112l17 -9l18 -8l60 41zM601 1247l-106 -158l-177 104l103 161zM330 1247l-101 -158l-184 104l104 161z" />
    <glyph glyph-name="afii62816" unicode="&#x643;" horiz-adv-x="1716" arabic-form="final" 
d="M1377 277l-11 -48l-15 -37q-41 -106 -153 -170q-39 -22 -95 -22h-428q-298 0 -383.5 17.5t-181.5 107t-96 303.5q0 56 30 144q24 65 50 102l20 -13l-27 -80q-19 -73 -19 -104l4 -26q28 -159 175 -228l59 -16l45 -6l26 -2h28l283 -4h408l33 2q15 0 41 10l43 20q20 8 39 21
q35 24 73 82q11 16 11 31l-28 65l-97 144l-130 199l-88 140q0 27 7.5 76.5t24.5 116.5q33 147 63 173l1041 224l-13 -49l-24 -63q-11 -30 -20.5 -49.5t-28.5 -47.5l-919 -206q-21 -6 -27 -25q0 -13 8 -22q11 -26 128 -197l257 -362l60 -74q37 -50 108 -130q89 -79 166 -79
h156v-195h-136q-86 0 -128 17q-84 13 -138 72l-91 108q-36 38 -108 147z" />
    <glyph glyph-name="afii57410" unicode="&#x643;" horiz-adv-x="1007" arabic-form="initial" 
d="M402 115q-45 -63 -132 -95q-58 -20 -127 -20h-146v195h141h50q37 6 72.5 10t80.5 35l26 23l35 39q17 24 24 48l-39 60l-57 82l-105 124l-46 -39l-84 153q-67 117 -67 132q0 67 41 218t67 177l1044 316q0 -31 -28.5 -116t-47.5 -103l-935 -287q-16 0 -22 -36l2 -11
l285 -415q48 -73 48 -197q0 -71 -23 -156.5t-57 -136.5z" />
    <glyph glyph-name="afii62815" unicode="&#x643;" horiz-adv-x="958" arabic-form="medial" 
d="M93 1037q8 -26 129 -197l255 -362l59 -74q39 -56 110 -130q89 -79 166 -79h154v-195h-134q-87 0 -130 17q-86 13 -136 72l-93 108q-35 43 -106 147l7 -70q0 -47 -11 -90l-11 -33l-11 -23l-11 -18q-32 -60 -114 -93q-43 -17 -119 -17h-104v195h106q110 0 147 15
q76 32 76 108q0 43 -28 108l-95 144l-132 199q-22 39 -41 69t-46 71q0 27 7.5 76.5t23.5 116.5q34 147 65 173l1041 224l-13 -49l-24 -63q-19 -48 -50 -97l-920 -206q-21 -6 -26 -25q0 -13 9 -22z" />
    <glyph glyph-name="afii62819" unicode="&#x644;" horiz-adv-x="1260" arabic-form="final" 
d="M1051 80l-2 -43l-4 -44v-33q-5 -17 -7 -25q0 -16 -9 -33q-34 -144 -88 -211t-192 -126q-70 -30 -146.5 -46.5t-152.5 -16.5q-166 0 -265 57q-112 71 -143 231l-2 32q0 52 12 114.5t46 173.5l100 294l23 -13l-81 -233q-46 -139 -46 -198q0 -123 91 -192q60 -45 220 -78
l71 -8q69 0 139.5 16t161.5 57q153 69 181 143l18 54l12 65l-6 104l-2 181v48q-5 22 -7 32l-6 52q0 33 -9 58l-17 158l-9 72l-13 84l-84 67q-39 32 -61 101q0 56 52 195l31 73l21 -8l-15 -24q0 -15 -6 -20l-3 -47q0 -35 21 -66t68 -60l138 -54l-45 -179l-20 2l-17 7l-11 -18
l-4 -14l35 -197q32 -193 32 -242v-35q26 -60 123 -88l48 -4h43v-195h-67q-39 0 -83 21.5t-64 58.5z" />
    <glyph glyph-name="afii62817" unicode="&#x644;" horiz-adv-x="446" arabic-form="initial" 
d="M408 963l-45 -179l-22 2l-13 7l-10 -13l-7 -19l20 -128l25 -130l13 -114l7 -76q0 -60 -31.5 -170.5t-73.5 -126.5t-89 -16h-208v195h287l33 6q19 6 34 24l-15 95l-28 172l-17 158l-11 72l-6 51l-7 33l-84 67q-39 32 -61 101l28 113l28 84q7 30 29 71l19 -8l-15 -24
l-6 -20l-1 -47q0 -72 89 -126z" />
    <glyph glyph-name="afii62818" unicode="&#x644;" horiz-adv-x="646" arabic-form="medial" 
d="M655 0h-33q-144 0 -246 115q-30 34 -44 66.5t-25 95.5l-15 -48q-5 -24 -29 -71l-32 -43q-43 -54 -103 -93q-44 -22 -96 -22h-39v195h31l37 2q13 0 38 10l42 20l21 8l20 13q90 65 123 210l-3 99l-8 221v37q0 23 -4 38l-5 46l-8 39l-14 58l-10 32q-2 5 -3 10t-8 14l76 132
l25 -80l13 -63q0 -21 3 -26l8 -45l9 -99l9 -316v-56l2 -45l2 -28l21 -85l18 -41q21 -37 58 -60l69 -35l33 -8l41 -2h26v-195z" />
    <glyph glyph-name="afii62822" unicode="&#x645;" horiz-adv-x="1163" arabic-form="final" 
d="M1174 0h-99q-41 0 -76 15q-15 0 -41 11q-69 26 -104 56l-8 -47q0 -15 -5 -20q-43 -8 -196 52t-173 115l-2 27q-6 59 27.5 129t87.5 107l-1 9h-39q-56 0 -100 -7.5t-100 -29.5q-18 -6 -36 -14t-47.5 -26t-52.5 -42l-13 -37l-9 -50q0 -25 7.5 -69.5t24.5 -104.5l57 -232
l21 -108l7 -46l2 -43q0 -69 -33 -153q-4 -11 -22.5 -43.5t-59.5 -97.5l-13 44l9 73l9 65q0 93 -28 211l-20 91l-32 149q-20 96 -20 165q0 52 7.5 89.5t29.5 81.5l47 97q44 93 186 155q123 48 259 48q37 0 55.5 -2t59.5 -12t63 -40q13 -20 36 -110l22 -97q17 -83 119 -130
q77 -34 164 -34h30v-195zM760 248l-11 26l-11 44l-20 88q-6 18 -38 18q-67 0 -104 -65q-7 -28 78.5 -74.5t105.5 -36.5z" />
    <glyph glyph-name="afii62820" unicode="&#x645;" horiz-adv-x="977" arabic-form="initial" 
d="M944 253q0 -33 -11 -65q-2 -6 -28 -58l-67 -128q-9 -5 -32 -9h-13q-110 22 -233 68l-214 80q-52 19 -104 30q-99 -171 -177 -171h-72v195h35q74 0 141 62q45 39 118 134l115 147q54 75 97 112q69 48 138 48h18l26 -5q6 -2 12.5 -5t21.5 -14q58 -50 143 -207
q71 -132 86 -214zM769 274q-13 35 -73 110q-72 87 -164 106q-11 -8 -18 -12q-28 -16 -50 -33l-53 -39l-31 -32q9 -9 158 -76q56 -26 119 -47l91 -28l12 23q5 20 9 28z" />
    <glyph glyph-name="afii62821" unicode="&#x645;" horiz-adv-x="1213" arabic-form="medial" 
d="M1221 0h-15q-48 0 -98 20.5t-110 67.5q-78 61 -119 135l-6 -52l-18 -72l-12 -26q-5 -19 -28 -58q-1 -8 -18 -20q-6 -11 -28 -15h-17l-100 27l-58 21l-63 26l-86 34l-58 22l-52 26l-93 35q-41 -41 -67 -65q-37 -35 -65 -58l-56 -33q-17 -11 -50 -15h-11v195h35
q71 0 141 62l69 73l52 55l116 133q65 76 93 98q37 34 76 34q28 0 51 -11l54 -39l113 -122q121 -130 227 -217q24 -19 80 -45q47 -21 84 -21h37v-195zM739 249q-17 68 -58 125q-63 93 -149 116q-11 0 -65 -43l-83 -80q18 -13 31 -21q37 -22 101 -54q123 -56 201 -83
q20 16 22 40z" />
    <glyph glyph-name="afii62825" unicode="&#x646;" horiz-adv-x="3168" arabic-form="final" 
d="M1783 627l-103 -160l-182 108l100 159zM3185 0h-86q-34 0 -61 11t-51 36l-2 -71l-9 -37q0 -15 -7 -35q-17 -77 -51 -129q-16 -24 -52 -44q-65 -60 -273 -131l-103 -30l-104 -28q-289 -65 -592 -65l-211 8l-167 3q-60 0 -171 14l-164 27q-261 43 -475 125
q-188 71 -283 140l-67 48l-75 60q-83 65 -124 115l50 15l169 -80l79 -39q223 -110 664 -177q194 -28 379 -43t364 -15q657 0 1043 185q119 57 130 97v26q0 85 -52 206l-56 121q-7 20 -35 67l5 48q0 13 17 52q13 38 45 75l65 -153l41 -108q17 -46 78 -74l22 -13l25 -8l48 -4
h47v-195z" />
    <glyph glyph-name="afii62823" unicode="&#x646;" horiz-adv-x="413" arabic-form="initial" 
d="M318 1022l-102 -164l-184 108l104 160zM363 451q0 -94 -33 -222q-17 -73 -36 -114l-33 -68l100 -21l-31 6q-30 0 -58 -1t-67 -9q-62 -22 -123 -22h-95v195h115h64q39 6 75 10t49 43q-16 169 -81 251l-79 102l32 88l9 15q11 33 24 46l4 4l8 9q46 -31 95 -113
q61 -104 61 -199z" />
    <glyph glyph-name="afii62824" unicode="&#x646;" horiz-adv-x="642" arabic-form="medial" 
d="M536 847l-102 -164l-185 110l107 157zM650 0h-84q-179 0 -259 160q-41 -58 -98 -100q-82 -60 -162 -60h-54v195h55q84 0 163 37.5t102 85.5l31 67l45 105l17 -17l-17 -45q-5 -30 -9 -53t-4 -45q28 -58 58 -84q56 -51 158 -51h58v-195z" />
    <glyph glyph-name="afii62828" unicode="&#x647;" horiz-adv-x="999" arabic-form="final" 
d="M1010 0h-69q-78 0 -141 58q-88 78 -127 257l-19 113l-83 -104q-60 -76 -101 -108l-61 -11l-97 -4h-49h-33q-58 0 -93 9q-69 15 -95 39l9 36l36 52q22 35 94 119l45 34l86 42l111 38l222 69v203l56 122l17 -9q-12 -72 -12 -194q0 -288 68 -420q22 -45 80 -97
q59 -49 111 -49h45v-195zM654 454v15l-2 26q0 24 -3 32v84l-50 -47l-54 -46q-28 -23 -228 -73q-72 -17 -78 -39q8 -22 78 -22l71 -8l78 -2h52l19 2q17 0 43 13q39 21 74 65z" />
    <glyph glyph-name="afii62827" unicode="&#x6be;" horiz-adv-x="718" arabic-form="final" 
d="M728 0h-108l6 -31l11 -49l15 -50l3 -28q-13 -126 -99.5 -201.5t-216.5 -75.5q-95 0 -164 80q-37 41 -54 96t-17 118l4 56l-47 -9l4 94h-72v195h143q22 12 112 190l35 84q101 266 101 471v34l65 -19q111 -177 111 -398q0 -192 -89 -324q13 -10 21 -13l31 -17l149 -8h56
v-195zM238 177q47 11 108 54q88 65 112 138q6 15 7.5 27t1.5 36q0 30 -9 68t-34 100l-22 33zM216 -27l-6 -32q0 -47 32 -89q7 -13 37 -38q62 -61 177 -61q75 0 129 37l7 13q0 9 -11 26l-17 15q-56 50 -141 88q-56 22 -97 32t-84 10z" />
    <glyph glyph-name="afii62829" unicode="&#x648;" horiz-adv-x="1145" arabic-form="final" 
d="M1171 -1h-173q-62 -179 -237 -349q-24 -24 -63 -50q-17 -13 -45.5 -32.5t-64.5 -39.5q-102 -62 -167 -88q-43 6 -218 88l-63 28l-47 24l-137 74l-119 64l7 14q119 -54 236 -91l61 -17l107 -24l44 -2l41 2q43 0 198 86q70 39 111 63q51 30 79 52q134 101 178 201l-69 2
l-48 13q-52 11 -121 50q-80 47 -80 162q0 50 11 99.5t37 105.5q52 110 121 173q36 32 97 32q43 0 71 -23q56 -50 97 -149l29 -188l4 -22l2 -19v-29l-6 -14h127v-196zM942 199l2 19v11l-6 54q-13 52 -64 110t-105 58q-43 -10 -72.5 -42.5t-29.5 -78.5q5 -56 115 -97
q73 -26 160 -34z" />
    <glyph glyph-name="afii62830" unicode="&#x649;" horiz-adv-x="2941" arabic-form="final" 
d="M2953 0h-34q-232 0 -325 -31q-64 -19 -56 -49l141 -57l114 -49q113 -50 149 -121l2 -13q0 -20 -23.5 -128t-55.5 -153q-16 -35 -154 -106q-151 -82 -373 -132q-288 -65 -590 -65l-149 3l-229 8q-117 0 -212 18l-123 23q-274 44 -475 123q-87 35 -152 69q-51 20 -126 71
t-221 172l-48 54l48 13l334 -154q210 -95 649 -151q373 -46 676 -46q170 0 328 13t286.5 38t212.5 52t156 66q106 56 118 99q0 24 -69 65q-54 30 -93 45l-179 63q-41 18 -65 38.5t-24 41.5q0 19 5.5 44t25.5 79q41 105 54 124q23 32 106 74q114 54 239 54h132v-195z" />
    <glyph glyph-name="afii62833" unicode="&#x64a;" horiz-adv-x="2941" arabic-form="final" 
d="M2953 0h-34q-232 0 -325 -31q-64 -19 -56 -49l141 -57l114 -49q113 -50 149 -121l2 -13q0 -20 -23.5 -128t-55.5 -153q-16 -35 -154 -106q-151 -82 -373 -132q-288 -65 -590 -65l-149 3l-229 8q-117 0 -212 18l-123 23q-274 44 -475 123q-87 35 -152 69q-51 20 -126 71
t-221 172l-48 54l48 13l334 -154q210 -95 649 -151q373 -46 676 -46q170 0 328 13t286.5 38t212.5 52t156 66q106 56 118 99q0 24 -69 65q-54 30 -93 45l-179 63q-41 18 -65 38.5t-24 41.5q0 19 5.5 44t25.5 79q41 105 54 124q23 32 106 74q114 54 239 54h132v-195z
M1995 -1101l-103 -162l-188 110l108 158zM1725 -1101l-103 -162l-184 110l106 158z" />
    <glyph glyph-name="afii62831" unicode="&#x64a;" horiz-adv-x="413" arabic-form="initial" 
d="M477 -232l-103 -162l-188 110l108 158zM207 -232l-103 -162l-184 110l106 158zM324 451q0 -86 -35 -222q-19 -73 -34 -110l-33 -72l-43 -19q-71 -28 -136 -28h-91v195h109q166 0 188 53q-7 74 -28.5 143t-51.5 108l-80 102l32 88l9 17l11 24l25 33q44 -24 97 -113
q27 -52 44 -103.5t17 -95.5z" />
    <glyph glyph-name="afii62832" unicode="&#x64a;" horiz-adv-x="642" arabic-form="medial" 
d="M650 0h-84q-179 0 -259 160q-41 -58 -98 -100q-82 -60 -162 -60h-54v195h55q84 0 163 37.5t102 85.5l31 67l45 105l17 -17l-17 -45q-5 -30 -9 -53t-4 -45q28 -58 58 -84q56 -51 158 -51h58v-195zM620 -322l-102 -156l-183 104l101 155zM350 -322l-102 -156l-183 104
l106 155z" />
    <glyph glyph-name="uni0676.fina" unicode="&#x676;" horiz-adv-x="1145" 
d="M1171 -1h-173q-62 -179 -237 -349q-24 -24 -63 -50q-17 -13 -45.5 -32.5t-64.5 -39.5q-102 -62 -167 -88q-43 6 -218 88l-63 28l-47 24l-137 74l-119 64l7 14q119 -54 236 -91l61 -17l107 -24l44 -2l41 2q43 0 198 86q70 39 111 63q51 30 79 52q134 101 178 201l-69 2
l-48 13q-52 11 -121 50q-80 47 -80 162q0 50 11 99.5t37 105.5q52 110 121 173q36 32 97 32q43 0 71 -23q56 -50 97 -149l29 -188l4 -22l2 -19v-29l-6 -14h127v-196zM942 199l2 19v11l-6 54q-13 52 -64 110t-105 58q-43 -10 -72.5 -42.5t-29.5 -78.5q5 -56 115 -97
q73 -26 160 -34zM486 1093l4 -24q0 -74 -132 -104l-21 -2l-31 4h-24l-19 -2q-19 -11 -24 -21l-15 15l18 24q21 12 69 23q51 0 79 20l3 17q-5 9 -9 11q-43 8 -63 50q-12 28 32 88.5t87 60.5l-6 -59q-22 -2 -43 -13l-18 -26q0 -13 52 -30q50 -6 61 -32z" />
    <glyph glyph-name="unifbda" unicode="&#x6c6;" horiz-adv-x="1145" arabic-form="final" 
d="M1171 -1h-173q-62 -179 -237 -349q-24 -24 -63 -50q-17 -13 -45.5 -32.5t-64.5 -39.5q-102 -62 -167 -88q-43 6 -218 88l-63 28l-47 24l-137 74l-119 64l7 14q119 -54 236 -91l61 -17l107 -24l44 -2l41 2q43 0 198 86q70 39 111 63q51 30 79 52q134 101 178 201l-69 2
l-48 13q-52 11 -121 50q-80 47 -80 162q0 50 11 99.5t37 105.5q52 110 121 173q36 32 97 32q43 0 71 -23q56 -50 97 -149l29 -188l4 -22l2 -19v-29l-6 -14h127v-196zM942 199l2 19v11l-6 54q-13 52 -64 110t-105 58q-43 -10 -72.5 -42.5t-29.5 -78.5q5 -56 115 -97
q73 -26 160 -34zM1024 1050q-75 -32 -130 -150q-16 -39 -30 -84t-24 -96h-19q-10 55 -29.5 104.5t-52.5 97.5q-60 94 -127 118l9 102q32 -11 68.5 -32t67.5 -68q28 -40 41.5 -68.5t30.5 -81.5q43 204 195 253v-95z" />
    <glyph glyph-name="FY1" unicode="&#x6cc;" horiz-adv-x="413" arabic-form="initial" 
d="M477 -232l-103 -162l-188 110l108 158zM207 -232l-103 -162l-184 110l106 158zM324 451q0 -86 -35 -222q-19 -73 -34 -110l-33 -72l-43 -19q-71 -28 -136 -28h-91v195h109q166 0 188 53q-7 74 -28.5 143t-51.5 108l-80 102l32 88l9 17l11 24l25 33q44 -24 97 -113
q27 -52 44 -103.5t17 -95.5z" />
    <glyph glyph-name="FY2" unicode="&#x6cc;" horiz-adv-x="642" arabic-form="medial" 
d="M650 0h-84q-179 0 -259 160q-41 -58 -98 -100q-82 -60 -162 -60h-54v195h55q84 0 163 37.5t102 85.5l31 67l45 105l17 -17l-17 -45q-5 -30 -9 -53t-4 -45q28 -58 58 -84q56 -51 158 -51h58v-195zM620 -322l-102 -156l-183 104l101 155zM350 -322l-102 -156l-183 104
l106 155z" />
    <glyph glyph-name=".notdef" horiz-adv-x="0" 
 />
    <glyph glyph-name="NULL" horiz-adv-x="0" 
 />
    <glyph glyph-name="nonmarkingreturn" horiz-adv-x="640" 
 />
    <glyph glyph-name="space" unicode=" " horiz-adv-x="640" 
 />
    <glyph glyph-name="exclam" unicode="!" horiz-adv-x="454" 
d="M232 1179l15 -5q54 -73 145 -166q0 -369 -95 -765l-65 31q18 170 18 451q0 246 -22 447zM382 65q0 -17 -47.5 -61t-62.5 -48q-15 0 -59 41.5t-47 65.5q0 17 46.5 64.5t64.5 47.5q10 0 56.5 -44.5t48.5 -65.5z" />
    <glyph glyph-name="quotedbl" unicode="&#x22;" horiz-adv-x="457" 
d="M326 975q-18 49 -26 79q-27 93 -27 148q0 39 12 60.5t41 21.5t41 -21.5t12 -60.5q0 -58 -26 -148q-8 -30 -27 -79zM111 973q-18 49 -26 79q-27 93 -27 148q0 39 12 60.5t41 21.5t41 -21.5t12 -60.5q0 -58 -26 -148q-8 -30 -27 -79z" />
    <glyph glyph-name="numbersign" unicode="#" 
d="M103 -25l87 426h-169v149h199l74 363h-273v149h303l87 429h150l-87 -429h315l87 429h151l-87 -429h173v-149h-203l-75 -363h278v-149h-308l-87 -426h-150l86 426h-314l-87 -426h-150zM370 550h314l75 363h-315z" />
    <glyph glyph-name="dollar" unicode="$" 
d="M510 -211v180q-135 17 -219.5 60.5t-146 140.5t-71.5 237l181 34q21 -145 74 -213q76 -96 182 -107v573q-111 21 -227 86q-86 48 -132.5 133t-46.5 193q0 192 136 311q91 80 270 98v86h106v-86q157 -15 249 -92q118 -98 142 -269l-186 -28q-16 106 -66.5 162.5
t-138.5 74.5v-519q136 -34 180 -53q84 -37 137 -90t81.5 -126t28.5 -158q0 -187 -119 -312t-308 -134v-182h-106zM510 1365q-105 -16 -165.5 -84t-60.5 -161q0 -92 51.5 -154t174.5 -99v498zM616 121q105 13 173.5 91t68.5 193q0 98 -48.5 157.5t-193.5 106.5v-548z" />
    <glyph glyph-name="percent" unicode="%" horiz-adv-x="1821" 
d="M119 1114q0 157 79 267t229 110q138 0 228.5 -98.5t90.5 -289.5q0 -186 -91.5 -286.5t-225.5 -100.5q-133 0 -221.5 99t-88.5 299zM432 1367q-67 0 -111.5 -58t-44.5 -213q0 -141 45 -198.5t111 -57.5q68 0 112.5 58t44.5 212q0 142 -45 199.5t-112 57.5zM433 -54
l802 1545h146l-799 -1545h-149zM1067 344q0 158 79 267.5t230 109.5q138 0 228.5 -98.5t90.5 -289.5q0 -186 -91.5 -286.5t-226.5 -100.5q-133 0 -221.5 99.5t-88.5 298.5zM1381 597q-68 0 -112.5 -58t-44.5 -213q0 -140 45 -198t111 -58q69 0 113.5 58t44.5 212
q0 142 -45 199.5t-112 57.5z" />
    <glyph glyph-name="ampersand" unicode="&#x26;" horiz-adv-x="1366" 
d="M973 173q-89 -99 -194 -148.5t-227 -49.5q-225 0 -357 152q-107 124 -107 277q0 136 87.5 245.5t261.5 192.5q-99 114 -132 185t-33 137q0 132 103.5 229.5t260.5 97.5q150 0 245.5 -92t95.5 -221q0 -209 -277 -357l263 -335q45 88 70 204l187 -40q-48 -192 -130 -316
q101 -134 229 -225l-121 -143q-109 70 -225 207zM607 937q117 69 151.5 121t34.5 115q0 75 -47.5 122.5t-118.5 47.5q-73 0 -121.5 -47t-48.5 -115q0 -34 17.5 -71.5t52.5 -79.5zM860 315l-330 409q-146 -87 -197 -161.5t-51 -147.5q0 -89 71 -185t201 -96q81 0 167.5 50.5
t138.5 130.5z" />
    <glyph glyph-name="quotesingle" unicode="'" horiz-adv-x="391" 
d="M136 947l-46 274v245h205v-245l-48 -274h-111z" />
    <glyph glyph-name="parenleft" unicode="(" horiz-adv-x="549" 
d="M548 -98l-80 -108q-279 310 -279 778q0 91 22.5 187.5t70.5 204.5q80 183 166 285q24 6 37 -24q-194 -296 -194 -629q0 -395 257 -694z" />
    <glyph glyph-name="parenright" unicode=")" horiz-adv-x="549" 
d="M546 486q0 -177 -94 -397q-37 -90 -77 -159t-88 -125q-28 0 -36 26q192 296 192 633q0 398 -255 688l78 110q280 -307 280 -776z" />
    <glyph glyph-name="asterisk" unicode="*" horiz-adv-x="1176" 
d="M602 801q3 -17 3 -33q0 -57 -23.5 -119.5t-34.5 -64.5q-10 -5 -38 62q-31 75 -31 132q0 15 2 32t19.5 31.5t41.5 14.5q49 0 61 -55zM451 547q-11 -5 -101 36q-98 44 -121 79q-9 14 -9 30q0 29 24.5 52.5t61.5 23.5q13 0 20 -2q30 -8 82.5 -109.5t42.5 -109.5zM870 645
q-43 -29 -129 -66.5t-94 -31.5q16 39 32 79q45 81 83 124q13 12 34 12q31 0 61 -27t30 -56q0 -20 -17 -34zM551 530q34 0 54 -21t20 -48t-21 -45.5t-63 -18.5q-32 0 -48 18t-16 44q0 28 20.5 49.5t53.5 21.5zM414 459q3 -11 -89 -36.5t-141 -25.5q-27 4 -42.5 23.5
t-15.5 45.5q0 23 12.5 40t37.5 22q18 2 28 2q60 0 139 -32q71 -29 71 -39zM928 389q-11 -3 -24 -3q-50 0 -132 30t-82 41q0 14 79 41t132 27q15 0 27 -3q25 -4 39 -21.5t14 -39.5q0 -50 -53 -72zM451 377q17 -11 -41 -106q-33 -53 -68 -81q-17 -14 -41 -14q-30 0 -56 19
t-26 46q0 47 112 97q104 46 120 39zM872 221q0 -23 -23.5 -42.5t-52.5 -19.5q-22 0 -40 15q-46 36 -84.5 113.5t-28.5 85.5q12 12 117 -41q112 -57 112 -111zM616 135q0 -27 -22 -43.5t-50 -16.5q-26 0 -44.5 13.5t-21.5 34t-3 30.5q0 50 29 120q25 61 37 67
q13 2 46.5 -81.5t28.5 -123.5z" />
    <glyph glyph-name="plus" unicode="+" horiz-adv-x="1483" 
d="M1394 492h-544v-546h-190v546h-547v189h547v546h190v-546h544v-189z" />
    <glyph glyph-name="comma" unicode="," horiz-adv-x="569" 
d="M182 0v205h205v-205q0 -113 -40 -182.5t-127 -107.5l-50 77q57 25 84 73.5t30 139.5h-102z" />
    <glyph glyph-name="hyphen" unicode="-" horiz-adv-x="682" 
d="M65 440v181h553v-181h-553z" />
    <glyph glyph-name="period" unicode="." horiz-adv-x="422" 
d="M407 65q0 -17 -49 -65q-48 -44 -59 -44q-15 0 -61.5 42.5t-48.5 64.5q0 17 46 65q47 43 67 47q15 0 60 -45.5t45 -64.5z" />
    <glyph glyph-name="slash" unicode="/" horiz-adv-x="569" 
d="M0 -25l425 1516h144l-424 -1516h-145z" />
    <glyph glyph-name="zero" unicode="0" 
d="M85 723q0 260 53.5 418.5t159 244.5t265.5 86q118 0 207 -47.5t147 -137t91 -218t33 -346.5q0 -258 -53 -416.5t-158.5 -245t-266.5 -86.5q-212 0 -333 152q-145 183 -145 596zM270 723q0 -361 84.5 -480.5t208.5 -119.5t208.5 120t84.5 480q0 362 -84.5 481t-210.5 119
q-124 0 -198 -105q-93 -134 -93 -495z" />
    <glyph glyph-name="one" unicode="1" 
d="M763 0h-180v1147q-65 -62 -170.5 -124t-189.5 -93v174q151 71 264 172t160 196h116v-1472z" />
    <glyph glyph-name="two" unicode="2" 
d="M1031 173v-173h-969q-2 65 21 125q37 99 118.5 195t235.5 222q239 196 323 310.5t84 216.5q0 107 -76.5 180.5t-199.5 73.5q-130 0 -208 -78t-79 -216l-185 19q19 207 143 315.5t333 108.5q211 0 334 -117t123 -290q0 -88 -36 -173t-119.5 -179t-277.5 -258
q-162 -136 -208 -184.5t-76 -97.5h719z" />
    <glyph glyph-name="three" unicode="3" 
d="M86 387l180 24q31 -153 105.5 -220.5t181.5 -67.5q127 0 214.5 88t87.5 218q0 124 -81 204.5t-206 80.5q-51 0 -127 -20l20 158q18 -2 29 -2q115 0 207 60t92 185q0 99 -67 164t-173 65q-105 0 -175 -66t-90 -198l-180 32q33 181 150 280.5t291 99.5q120 0 221 -51.5
t154.5 -140.5t53.5 -189q0 -95 -51 -173t-151 -124q130 -30 202 -124.5t72 -236.5q0 -192 -140 -325.5t-354 -133.5q-193 0 -320.5 115t-145.5 298z" />
    <glyph glyph-name="four" unicode="4" 
d="M662 0v351h-636v165l669 950h147v-950h198v-165h-198v-351h-180zM662 516v661l-459 -661h459z" />
    <glyph glyph-name="five" unicode="5" 
d="M85 384l189 16q21 -138 97.5 -207.5t184.5 -69.5q130 0 220 98t90 260q0 154 -86.5 243t-226.5 89q-87 0 -157 -39.5t-110 -102.5l-169 22l142 753h729v-172h-585l-79 -394q132 92 277 92q192 0 324 -133t132 -342q0 -199 -116 -344q-141 -178 -385 -178
q-200 0 -326.5 112t-144.5 297z" />
    <glyph glyph-name="six" unicode="6" 
d="M1019 1107l-179 -14q-24 106 -68 154q-73 77 -180 77q-86 0 -151 -48q-85 -62 -134 -181t-51 -339q65 99 159 147t197 48q180 0 306.5 -132.5t126.5 -342.5q0 -138 -59.5 -256.5t-163.5 -181.5t-236 -63q-225 0 -367 165.5t-142 545.5q0 425 157 618q137 168 369 168
q173 0 283.5 -97t132.5 -268zM284 475q0 -93 39.5 -178t110.5 -129.5t149 -44.5q114 0 196 92t82 250q0 152 -81 239.5t-204 87.5q-122 0 -207 -87.5t-85 -229.5z" />
    <glyph glyph-name="seven" unicode="7" 
d="M97 1274v173h949v-140q-140 -149 -277.5 -396t-212.5 -508q-54 -184 -69 -403h-185q3 173 68 418t186.5 472.5t258.5 383.5h-718z" />
    <glyph glyph-name="eight" unicode="8" 
d="M362 795q-112 41 -166 117t-54 182q0 160 115 269t306 109q192 0 309 -111.5t117 -271.5q0 -102 -53.5 -177.5t-162.5 -116.5q135 -44 205.5 -142t70.5 -234q0 -188 -133 -316t-350 -128t-350 128.5t-133 320.5q0 143 72.5 239.5t206.5 131.5zM326 1100q0 -104 67 -170
t174 -66q104 0 170.5 65.5t66.5 160.5q0 99 -68.5 166.5t-170.5 67.5q-103 0 -171 -66t-68 -158zM268 423q0 -77 36.5 -149t108.5 -111.5t155 -39.5q129 0 213 83t84 211q0 130 -86.5 215t-216.5 85q-127 0 -210.5 -84t-83.5 -210z" />
    <glyph glyph-name="nine" unicode="9" 
d="M112 339l173 16q22 -122 84 -177t159 -55q83 0 145.5 38t102.5 101.5t67 171.5t27 220q0 12 -1 36q-54 -86 -147.5 -139.5t-202.5 -53.5q-182 0 -308 132t-126 348q0 223 131.5 359t329.5 136q143 0 261.5 -77t180 -219.5t61.5 -412.5q0 -281 -61 -447.5t-181.5 -253.5
t-282.5 -87q-172 0 -281 95.5t-131 268.5zM849 986q0 155 -82.5 246t-198.5 91q-120 0 -209 -98t-89 -254q0 -140 84.5 -227.5t208.5 -87.5q125 0 205.5 87.5t80.5 242.5z" />
    <glyph glyph-name="colon" unicode=":" horiz-adv-x="422" 
d="M407 525q0 -26 -49 -63q-35 -47 -59 -49q-23 0 -67 45q-39 43 -43 67q0 17 46 63q47 43 67 47q14 0 59.5 -45.5t45.5 -64.5zM407 65q0 -17 -49 -65q-48 -44 -59 -44q-15 0 -61.5 42.5t-48.5 64.5q0 17 46 65q47 43 67 47q15 0 60 -45.5t45 -64.5z" />
    <glyph glyph-name="semicolon" unicode=";" horiz-adv-x="569" 
d="M182 857v205h205v-205h-205zM182 0v205h205v-205q0 -113 -40 -182.5t-127 -107.5l-50 77q57 25 84 73.5t30 139.5h-102z" />
    <glyph glyph-name="less" unicode="&#x3c;" horiz-adv-x="1196" 
d="M112 641v168l971 410v-179l-770 -316l770 -319v-179z" />
    <glyph glyph-name="equal" unicode="=" horiz-adv-x="1044" 
d="M926 540h-826v100h826v-100zM926 249h-826v103h826v-103z" />
    <glyph glyph-name="greater" unicode="&#x3e;" horiz-adv-x="1196" 
d="M1083 641l-971 -415v179l769 319l-769 316v179l971 -410v-168z" />
    <glyph glyph-name="question" unicode="?" 
d="M472 361q-1 36 -1 54q0 106 30 183q22 58 71 117q36 43 129.5 125.5t121.5 131.5t28 107q0 105 -82 184.5t-201 79.5q-115 0 -192 -72t-101 -225l-185 22q25 205 148.5 314t326.5 109q215 0 343 -117t128 -283q0 -96 -45 -177t-176 -197q-88 -78 -115 -115t-40 -85
t-15 -156h-173zM461 0v205h205v-205h-205z" />
    <glyph glyph-name="at" unicode="@" horiz-adv-x="2079" 
d="M1161 163q-65 -75 -145.5 -120.5t-161.5 -45.5q-89 0 -173 52t-136.5 160t-52.5 237q0 159 81.5 318.5t202.5 239.5t235 80q87 0 166 -45.5t136 -138.5l34 155h179l-144 -671q-30 -140 -30 -155q0 -27 20.5 -46.5t49.5 -19.5q53 0 139 61q114 80 180.5 214.5t66.5 277.5
q0 167 -85.5 312t-255 232t-374.5 87q-234 0 -427.5 -109.5t-300 -314t-106.5 -438.5q0 -245 106.5 -422t308 -261.5t446.5 -84.5q262 0 439 88t265 214h181q-51 -105 -175 -214t-295 -172.5t-412 -63.5q-222 0 -409.5 57t-319.5 171.5t-199 263.5q-84 189 -84 408
q0 244 100 465q122 271 346.5 415t544.5 144q248 0 445.5 -101.5t311.5 -302.5q97 -173 97 -376q0 -290 -204 -515q-182 -202 -398 -202q-69 0 -111.5 21t-62.5 60q-13 25 -19 86zM677 434q0 -137 65 -213t149 -76q56 0 118 33.5t118.5 99.5t92.5 167.5t36 203.5
q0 136 -67.5 211t-164.5 75q-64 0 -120.5 -32.5t-109.5 -104.5t-85 -175t-32 -189z" />
    <glyph glyph-name="A" unicode="A" horiz-adv-x="1366" 
d="M-3 0l563 1466h209l600 -1466h-221l-171 444h-613l-161 -444h-206zM420 602h497l-153 406q-70 185 -104 304q-28 -141 -79 -280z" />
    <glyph glyph-name="B" unicode="B" horiz-adv-x="1366" 
d="M150 0v1466h550q168 0 269.5 -44.5t159 -137t57.5 -193.5q0 -94 -51 -177t-154 -134q133 -39 204.5 -133t71.5 -222q0 -103 -43.5 -191.5t-107.5 -136.5t-160.5 -72.5t-236.5 -24.5h-559zM344 850h317q129 0 185 17q74 22 111.5 73t37.5 128q0 73 -35 128.5t-100 76
t-223 20.5h-293v-443zM344 173h365q94 0 132 7q67 12 112 40t74 81.5t29 123.5q0 82 -42 142.5t-116.5 85t-214.5 24.5h-339v-504z" />
    <glyph glyph-name="C" unicode="C" horiz-adv-x="1479" 
d="M1204 514l194 -49q-61 -239 -219.5 -364.5t-387.5 -125.5q-237 0 -385.5 96.5t-226 279.5t-77.5 393q0 229 87.5 399.5t249 259t355.5 88.5q220 0 370 -112t209 -315l-191 -45q-51 160 -148 233t-244 73q-169 0 -282.5 -81t-159.5 -217.5t-46 -281.5q0 -187 54.5 -326.5
t169.5 -208.5t249 -69q163 0 276 94t153 279z" />
    <glyph glyph-name="D" unicode="D" horiz-adv-x="1479" 
d="M158 0v1466h505q171 0 261 -21q126 -29 215 -105q116 -98 173.5 -250.5t57.5 -348.5q0 -167 -39 -296t-100 -213.5t-133.5 -133t-175 -73.5t-235.5 -25h-529zM352 173h313q145 0 227.5 27t131.5 76q69 69 107.5 185.5t38.5 282.5q0 230 -75.5 353.5t-183.5 165.5
q-78 30 -251 30h-308v-1120z" />
    <glyph glyph-name="E" unicode="E" horiz-adv-x="1366" 
d="M162 0v1466h1060v-173h-866v-449h811v-172h-811v-499h900v-173h-1094z" />
    <glyph glyph-name="F" unicode="F" horiz-adv-x="1251" 
d="M168 0v1466h989v-173h-795v-454h688v-173h-688v-666h-194z" />
    <glyph glyph-name="G" unicode="G" horiz-adv-x="1593" 
d="M844 575v172l621 1v-544q-143 -114 -295 -171.5t-312 -57.5q-216 0 -392.5 92.5t-266.5 267.5t-90 391q0 214 89.5 399.5t257.5 275.5t387 90q159 0 287.5 -51.5t201.5 -143.5t111 -240l-175 -48q-33 112 -82 176t-140 102.5t-202 38.5q-133 0 -230 -40.5t-156.5 -106.5
t-92.5 -145q-56 -136 -56 -295q0 -196 67.5 -328t196.5 -196t274 -64q126 0 246 48.5t182 103.5v273h-431z" />
    <glyph glyph-name="H" unicode="H" horiz-adv-x="1479" 
d="M164 0v1466h194v-602h762v602h194v-1466h-194v691h-762v-691h-194z" />
    <glyph glyph-name="I" unicode="I" horiz-adv-x="569" 
d="M191 0v1466h194v-1466h-194z" />
    <glyph glyph-name="J" unicode="J" horiz-adv-x="1024" 
d="M59 416l175 24q7 -168 63 -230t155 -62q73 0 126 33.5t73 91t20 183.5v1010h194v-999q0 -184 -44.5 -285t-141 -154t-226.5 -53q-193 0 -295.5 111t-98.5 330z" />
    <glyph glyph-name="K" unicode="K" horiz-adv-x="1366" 
d="M150 0v1466h194v-727l728 727h263l-615 -594l642 -872h-256l-522 742l-240 -234v-508h-194z" />
    <glyph glyph-name="L" unicode="L" 
d="M150 0v1466h194v-1293h722v-173h-916z" />
    <glyph glyph-name="M" unicode="M" horiz-adv-x="1706" 
d="M152 0v1466h292l347 -1038q48 -145 70 -217q25 80 78 235l351 1020h261v-1466h-187v1227l-426 -1227h-175l-424 1248v-1248h-187z" />
    <glyph glyph-name="N" unicode="N" horiz-adv-x="1479" 
d="M156 0v1466h199l770 -1151v1151h186v-1466h-199l-770 1152v-1152h-186z" />
    <glyph glyph-name="O" unicode="O" horiz-adv-x="1593" 
d="M99 714q0 365 196 571.5t506 206.5q203 0 366 -97t248.5 -270.5t85.5 -393.5q0 -223 -90 -399t-255 -266.5t-356 -90.5q-207 0 -370 100t-247 273t-84 366zM299 711q0 -265 142.5 -417.5t357.5 -152.5q219 0 360.5 154t141.5 437q0 179 -60.5 312.5t-177 207t-261.5 73.5
q-206 0 -354.5 -141.5t-148.5 -472.5z" />
    <glyph glyph-name="P" unicode="P" horiz-adv-x="1366" 
d="M158 0v1466h553q146 0 223 -14q108 -18 181 -68.5t117.5 -141.5t44.5 -200q0 -187 -119 -316.5t-430 -129.5h-376v-596h-194zM352 769h379q188 0 267 70t79 197q0 92 -46.5 157.5t-122.5 86.5q-49 13 -181 13h-375v-524z" />
    <glyph glyph-name="Q" unicode="Q" horiz-adv-x="1593" 
d="M1269 157q135 -93 249 -136l-57 -135q-158 57 -315 180q-163 -91 -360 -91q-199 0 -361 96t-249.5 270t-87.5 392q0 217 88 395t250.5 271t363.5 93q203 0 366 -96.5t248.5 -270t85.5 -391.5q0 -181 -55 -325.5t-166 -251.5zM842 405q168 -47 277 -140q171 156 171 469
q0 178 -60.5 311t-177 206.5t-261.5 73.5q-217 0 -360 -148.5t-143 -443.5q0 -286 141.5 -439t361.5 -153q104 0 196 39q-91 59 -192 84z" />
    <glyph glyph-name="R" unicode="R" horiz-adv-x="1479" 
d="M161 0v1466h650q196 0 298 -39.5t163 -139.5t61 -221q0 -156 -101 -263t-312 -136q77 -37 117 -73q85 -78 161 -195l255 -399h-244l-194 305q-85 132 -140 202t-98.5 98t-88.5 39q-33 7 -108 7h-225v-651h-194zM355 819h417q133 0 208 27.5t114 88t39 131.5
q0 104 -75.5 171t-238.5 67h-464v-485z" />
    <glyph glyph-name="S" unicode="S" horiz-adv-x="1366" 
d="M92 471l183 16q13 -110 60.5 -180.5t147.5 -114t225 -43.5q111 0 196 33t126.5 90.5t41.5 125.5q0 69 -40 120.5t-132 86.5q-59 23 -261 71.5t-283 91.5q-105 55 -156.5 136.5t-51.5 182.5q0 111 63 207.5t184 146.5t269 50q163 0 287.5 -52.5t191.5 -154.5t72 -231
l-186 -14q-15 139 -101.5 210t-255.5 71q-176 0 -256.5 -64.5t-80.5 -155.5q0 -79 57 -130q56 -51 292.5 -104.5t324.5 -93.5q128 -59 189 -149.5t61 -208.5q0 -117 -67 -220.5t-192.5 -161t-282.5 -57.5q-199 0 -333.5 58t-211 174.5t-80.5 263.5z" />
    <glyph glyph-name="T" unicode="T" horiz-adv-x="1251" 
d="M531 0v1293h-483v173h1162v-173h-485v-1293h-194z" />
    <glyph glyph-name="U" unicode="U" horiz-adv-x="1479" 
d="M1120 1466h194v-847q0 -221 -50 -351t-180.5 -211.5t-342.5 -81.5q-206 0 -337 71t-187 205.5t-56 367.5v847h194v-846q0 -191 35.5 -281.5t122 -139.5t211.5 -49q214 0 305 97t91 373v846z" />
    <glyph glyph-name="V" unicode="V" horiz-adv-x="1366" 
d="M577 0l-568 1466h210l381 -1065q46 -128 77 -240q34 120 79 240l396 1065h198l-574 -1466h-199z" />
    <glyph glyph-name="W" unicode="W" horiz-adv-x="1933" 
d="M414 0l-389 1466h199l223 -961q36 -151 62 -300q56 235 66 271l279 990h234l210 -742q79 -276 114 -519q28 139 73 319l230 942h195l-402 -1466h-187l-309 1117q-39 140 -46 172q-23 -101 -43 -172l-311 -1117h-198z" />
    <glyph glyph-name="X" unicode="X" horiz-adv-x="1366" 
d="M9 0l567 764l-500 702h231l266 -376q83 -117 118 -180q49 80 116 167l295 389h211l-515 -691l555 -775h-240l-369 523q-31 45 -64 98q-49 -80 -70 -110l-368 -511h-233z" />
    <glyph glyph-name="Y" unicode="Y" horiz-adv-x="1366" 
d="M571 0v621l-565 845h236l289 -442q80 -124 149 -248q66 115 160 259l284 431h226l-585 -845v-621h-194z" />
    <glyph glyph-name="Z" unicode="Z" horiz-adv-x="1251" 
d="M41 0v180l751 939q80 100 152 174h-818v173h1050v-173l-823 -1017l-89 -103h936v-173h-1159z" />
    <glyph glyph-name="bracketleft" unicode="[" horiz-adv-x="569" 
d="M139 -407v1873h397v-149h-217v-1575h217v-149h-397z" />
    <glyph glyph-name="backslash" unicode="\" horiz-adv-x="569" 
d="M425 -25l-425 1516h145l424 -1516h-144z" />
    <glyph glyph-name="bracketright" unicode="]" horiz-adv-x="569" 
d="M436 -407h-397v149h217v1575h-217v149h397v-1873z" />
    <glyph glyph-name="asciicircum" unicode="^" horiz-adv-x="961" 
d="M239 690h-185l353 801h145l355 -801h-181l-247 597z" />
    <glyph glyph-name="underscore" unicode="_" 
d="M-31 -407v130h1193v-130h-1193z" />
    <glyph glyph-name="grave" unicode="`" horiz-adv-x="682" 
d="M465 1194h-145l-231 280h241z" />
    <glyph glyph-name="a" unicode="a" 
d="M828 131q-100 -85 -192.5 -120t-198.5 -35q-175 0 -269 85.5t-94 218.5q0 78 35.5 142.5t93 103.5t129.5 59q53 14 160 27q218 26 321 62q1 37 1 47q0 110 -51 155q-69 61 -205 61q-127 0 -187.5 -44.5t-89.5 -157.5l-176 24q24 113 79 182.5t159 107t241 37.5
q136 0 221 -32t125 -80.5t56 -122.5q9 -46 9 -166v-240q0 -251 11.5 -317.5t45.5 -127.5h-188q-28 56 -36 131zM813 533q-98 -40 -294 -68q-111 -16 -157 -36t-71 -58.5t-25 -85.5q0 -72 54.5 -120t159.5 -48q104 0 185 45.5t119 124.5q29 61 29 180v66z" />
    <glyph glyph-name="b" unicode="b" 
d="M301 0h-167v1466h180v-523q114 143 291 143q98 0 185.5 -39.5t144 -111t88.5 -172.5t32 -216q0 -273 -135 -422t-324 -149q-188 0 -295 157v-133zM299 539q0 -191 52 -276q85 -139 230 -139q118 0 204 102.5t86 305.5q0 208 -82.5 307t-199.5 99q-118 0 -204 -102.5
t-86 -296.5z" />
    <glyph glyph-name="c" unicode="c" horiz-adv-x="1024" 
d="M828 389l177 -23q-29 -183 -148.5 -286.5t-293.5 -103.5q-218 0 -350.5 142.5t-132.5 408.5q0 172 57 301t173.5 193.5t253.5 64.5q173 0 283 -87.5t141 -248.5l-175 -27q-25 107 -88.5 161t-153.5 54q-136 0 -221 -97.5t-85 -308.5q0 -214 82 -311t214 -97q106 0 177 65
t90 200z" />
    <glyph glyph-name="d" unicode="d" 
d="M824 0v134q-101 -158 -297 -158q-127 0 -233.5 70t-165 195.5t-58.5 288.5q0 159 53 288.5t159 198.5t237 69q96 0 171 -40.5t122 -105.5v526h179v-1466h-167zM255 530q0 -204 86 -305t203 -101q118 0 200.5 96.5t82.5 294.5q0 218 -84 320t-207 102q-120 0 -200.5 -98
t-80.5 -309z" />
    <glyph glyph-name="e" unicode="e" 
d="M862 342l186 -23q-44 -163 -163 -253t-304 -90q-233 0 -369.5 143.5t-136.5 402.5q0 268 138 416t358 148q213 0 348 -145t135 -408q0 -16 -1 -48h-792q10 -175 99 -268t222 -93q99 0 169 52t111 166zM271 633h593q-12 134 -68 201q-86 104 -223 104q-124 0 -208.5 -83
t-93.5 -222z" />
    <glyph glyph-name="f" unicode="f" horiz-adv-x="569" 
d="M178 0v922h-159v140h159v113q0 107 19 159q26 70 91.5 113.5t183.5 43.5q76 0 168 -18l-27 -157q-56 10 -106 10q-82 0 -116 -35t-34 -131v-98h207v-140h-207v-922h-179z" />
    <glyph glyph-name="g" unicode="g" 
d="M102 -88l175 -26q11 -81 61 -118q67 -50 183 -50q125 0 193 50t92 140q14 55 13 231q-118 -139 -294 -139q-219 0 -339 158t-120 379q0 152 55 280.5t159.5 198.5t245.5 70q188 0 310 -152v128h166v-918q0 -248 -50.5 -351.5t-160 -163.5t-269.5 -60q-190 0 -307 85.5
t-113 257.5zM251 550q0 -209 83 -305t208 -96q124 0 208 95.5t84 299.5q0 195 -86.5 294t-208.5 99q-120 0 -204 -97.5t-84 -289.5z" />
    <glyph glyph-name="h" unicode="h" 
d="M135 0v1466h180v-526q126 146 318 146q118 0 205 -46.5t124.5 -128.5t37.5 -238v-673h-180v673q0 135 -58.5 196.5t-165.5 61.5q-80 0 -150.5 -41.5t-100.5 -112.5t-30 -196v-581h-180z" />
    <glyph glyph-name="i" unicode="i" horiz-adv-x="455" 
d="M136 1259v207h180v-207h-180zM136 0v1062h180v-1062h-180z" />
    <glyph glyph-name="j" unicode="j" horiz-adv-x="455" 
d="M134 1257v209h180v-209h-180zM-94 -412l34 153q54 -14 85 -14q55 0 82 36.5t27 182.5v1116h180v-1120q0 -196 -51 -273q-65 -100 -216 -100q-73 0 -141 19z" />
    <glyph glyph-name="k" unicode="k" horiz-adv-x="1024" 
d="M136 0v1466h180v-836l426 432h233l-406 -394l447 -668h-222l-351 543l-127 -122v-421h-180z" />
    <glyph glyph-name="l" unicode="l" horiz-adv-x="455" 
d="M131 0v1466h180v-1466h-180z" />
    <glyph glyph-name="m" unicode="m" horiz-adv-x="1706" 
d="M135 0v1062h161v-149q50 78 133 125.5t189 47.5q118 0 193.5 -49t106.5 -137q126 186 328 186q158 0 243 -87.5t85 -269.5v-729h-179v669q0 108 -17.5 155.5t-63.5 76.5t-108 29q-112 0 -186 -74.5t-74 -238.5v-617h-180v690q0 120 -44 180t-144 60q-76 0 -140.5 -40
t-93.5 -117t-29 -222v-551h-180z" />
    <glyph glyph-name="n" unicode="n" 
d="M135 0v1062h162v-151q117 175 338 175q96 0 176.5 -34.5t120.5 -90.5t56 -133q10 -50 10 -175v-653h-180v646q0 110 -21 164.5t-74.5 87t-125.5 32.5q-115 0 -198.5 -73t-83.5 -277v-580h-180z" />
    <glyph glyph-name="o" unicode="o" 
d="M68 531q0 295 164 437q137 118 334 118q219 0 358 -143.5t139 -396.5q0 -205 -61.5 -322.5t-179 -182.5t-256.5 -65q-223 0 -360.5 143t-137.5 412zM253 531q0 -204 89 -305.5t224 -101.5q134 0 223 102t89 311q0 197 -89.5 298.5t-222.5 101.5q-135 0 -224 -101
t-89 -305z" />
    <glyph glyph-name="p" unicode="p" 
d="M135 -407v1469h164v-138q58 81 131 121.5t177 40.5q136 0 240 -70t157 -197.5t53 -279.5q0 -163 -58.5 -293.5t-170 -200t-234.5 -69.5q-90 0 -161.5 38t-117.5 96v-517h-180zM298 525q0 -205 83 -303t201 -98q120 0 205.5 101.5t85.5 314.5q0 203 -83.5 304t-199.5 101
q-115 0 -203.5 -107.5t-88.5 -312.5z" />
    <glyph glyph-name="q" unicode="q" 
d="M812 -407v520q-42 -59 -117.5 -98t-160.5 -39q-189 0 -325.5 151t-136.5 414q0 160 55.5 287t161 192.5t231.5 65.5q197 0 310 -166v142h162v-1469h-180zM257 534q0 -205 86 -307.5t206 -102.5q115 0 198 97.5t83 296.5q0 212 -87.5 319t-205.5 107q-117 0 -198.5 -99.5
t-81.5 -310.5z" />
    <glyph glyph-name="r" unicode="r" horiz-adv-x="682" 
d="M133 0v1062h162v-161q62 113 114.5 149t115.5 36q91 0 185 -58l-62 -167q-66 39 -132 39q-59 0 -106 -35.5t-67 -98.5q-30 -96 -30 -210v-556h-180z" />
    <glyph glyph-name="s" unicode="s" horiz-adv-x="1024" 
d="M63 317l178 28q15 -107 83.5 -164t191.5 -57q124 0 184 50.5t60 118.5q0 61 -53 96q-37 24 -184 61q-198 50 -274.5 86.5t-116 101t-39.5 142.5q0 71 32.5 131.5t88.5 100.5q42 31 114.5 52.5t155.5 21.5q125 0 219.5 -36t139.5 -97.5t62 -164.5l-176 -24
q-12 82 -69.5 128t-162.5 46q-124 0 -177 -41t-53 -96q0 -35 22 -63q22 -29 69 -48q27 -10 159 -46q191 -51 266.5 -83.5t118.5 -94.5t43 -154q0 -90 -52.5 -169.5t-151.5 -123t-224 -43.5q-207 0 -315.5 86t-138.5 255z" />
    <glyph glyph-name="t" unicode="t" horiz-adv-x="569" 
d="M528 161l26 -159q-76 -16 -136 -16q-98 0 -152 31t-76 81.5t-22 212.5v611h-132v140h132v263l179 108v-371h181v-140h-181v-621q0 -77 9.5 -99t31 -35t61.5 -13q30 0 79 7z" />
    <glyph glyph-name="u" unicode="u" 
d="M831 0v156q-124 -180 -337 -180q-94 0 -175.5 36t-121 90.5t-55.5 133.5q-11 53 -11 168v658h180v-589q0 -141 11 -190q17 -71 72 -111.5t136 -40.5t152 41.5t100.5 113t29.5 207.5v569h180v-1062h-161z" />
    <glyph glyph-name="v" unicode="v" horiz-adv-x="1024" 
d="M430 0l-404 1062h190l228 -636q37 -103 68 -214q24 84 67 202l236 648h185l-402 -1062h-168z" />
    <glyph glyph-name="w" unicode="w" horiz-adv-x="1479" 
d="M331 0l-325 1062h186l169 -613l63 -228q4 17 55 219l169 622h185l159 -616l53 -203l61 205l182 614h175l-332 -1062h-187l-169 636l-41 181l-215 -817h-188z" />
    <glyph glyph-name="x" unicode="x" horiz-adv-x="1024" 
d="M15 0l388 552l-359 510h225l163 -249q46 -71 74 -119q44 66 81 117l179 251h215l-367 -500l395 -562h-221l-218 330l-58 89l-279 -419h-218z" />
    <glyph glyph-name="y" unicode="y" horiz-adv-x="1024" 
d="M127 -409l-20 169q59 -16 103 -16q60 0 96 20t59 56q17 27 55 134q5 15 16 44l-403 1064h194l221 -615q43 -117 77 -246q31 124 74 242l227 619h180l-404 -1080q-65 -175 -101 -241q-48 -89 -110 -130.5t-148 -41.5q-52 0 -116 22z" />
    <glyph glyph-name="z" unicode="z" horiz-adv-x="1024" 
d="M40 0v146l676 776q-115 -6 -203 -6h-433v146h868v-119l-575 -674l-111 -123q121 9 227 9h491v-155h-940z" />
    <glyph glyph-name="braceleft" unicode="{" horiz-adv-x="684" 
d="M57 612q77 2 125.5 41.5t64.5 108.5t17 236t6 220q9 84 33.5 135t60.5 81.5t92 46.5q38 10 124 10h56v-157h-31q-104 0 -138 -37.5t-34 -167.5q0 -262 -11 -331q-18 -107 -61.5 -165t-136.5 -103q110 -46 159.5 -140.5t49.5 -309.5q0 -195 4 -232q8 -68 40.5 -95
t127.5 -27h31v-157h-56q-98 0 -142 16q-64 23 -106 74.5t-54.5 130.5t-13.5 259t-17 249t-64.5 109t-125.5 42v163z" />
    <glyph glyph-name="bar" unicode="|" horiz-adv-x="532" 
d="M188 -431v1922h157v-1922h-157z" />
    <glyph glyph-name="braceright" unicode="}" horiz-adv-x="684" 
d="M626 612v-163q-77 -2 -125.5 -42t-64.5 -108.5t-17 -235.5t-6 -220q-9 -85 -33.5 -135.5t-60.5 -81t-92 -46.5q-38 -11 -124 -11h-56v157h31q104 0 138 37.5t34 168.5q0 250 9 317q16 111 64 177.5t136 103.5q-115 55 -162 145.5t-47 305.5q0 195 -5 233
q-7 67 -39.5 93.5t-127.5 26.5h-31v157h56q98 0 142 -16q64 -22 106 -74t54.5 -131t13.5 -259t17 -248.5t64.5 -108.5t125.5 -42z" />
    <glyph glyph-name="asciitilde" unicode="~" horiz-adv-x="1196" 
d="M87 557v205q106 120 278 120q60 0 126 -17.5t188 -69.5q69 -29 103.5 -38t69.5 -9q65 0 134.5 39t123.5 98v-212q-64 -60 -129.5 -87t-147.5 -27q-60 0 -114.5 14t-173 67t-197.5 53q-64 0 -120.5 -27.5t-140.5 -108.5z" />
    <glyph glyph-name="Ccedilla" unicode="&#xc7;" horiz-adv-x="1479" 
d="M1206 514l194 -49q-61 -239 -219.5 -364.5t-387.5 -125.5q-237 0 -385.5 96.5t-226 279.5t-77.5 393q0 229 87.5 399.5t249 259t355.5 88.5q220 0 370 -112t209 -315l-191 -45q-51 160 -148 233t-244 73q-169 0 -282.5 -81t-159.5 -217.5t-46 -281.5q0 -187 54.5 -326.5
t169.5 -208.5t249 -69q163 0 276 94t153 279zM622 -154l52 177h134l-33 -107q85 -10 128 -52.5t43 -94.5q0 -75 -72 -132.5t-217 -57.5q-82 0 -144 12l11 117q64 -4 94 -4q94 0 132 26q29 20 29 49q0 18 -11.5 32t-42.5 24t-103 11z" />
    <glyph glyph-name="ccedilla" unicode="&#xe7;" horiz-adv-x="1024" 
d="M828 389l177 -23q-29 -183 -148.5 -286.5t-293.5 -103.5q-218 0 -350.5 142.5t-132.5 408.5q0 172 57 301t173.5 193.5t253.5 64.5q173 0 283 -87.5t141 -248.5l-175 -27q-25 107 -88.5 161t-153.5 54q-136 0 -221 -97.5t-85 -308.5q0 -214 82 -311t214 -97q106 0 177 65
t90 200zM411 -134l52 177h134l-33 -107q85 -10 128 -52.5t43 -94.5q0 -75 -72 -132.5t-217 -57.5q-82 0 -144 12l11 117q64 -4 94 -4q94 0 132 26q29 20 29 49q0 18 -11.5 32t-42.5 24t-103 11z" />
    <glyph glyph-name="ecircumflex" unicode="&#xea;" 
d="M862 342l186 -23q-44 -163 -163 -253t-304 -90q-233 0 -369.5 143.5t-136.5 402.5q0 268 138 416t358 148q213 0 348 -145t135 -408q0 -16 -1 -48h-792q10 -175 99 -268t222 -93q99 0 169 52t111 166zM271 633h593q-12 134 -68 201q-86 104 -223 104q-124 0 -208.5 -83
t-93.5 -222zM567 1364l-113 -170h-206l216 280h192l225 -280h-204z" />
    <glyph glyph-name="icircumflex" unicode="&#xee;" horiz-adv-x="569" 
d="M188 0v1062h180v-1062h-180zM292 1364l-113 -170h-206l216 280h192l225 -280h-204z" />
    <glyph glyph-name="otilde" unicode="&#xf5;" 
d="M68 531q0 295 164 437q137 118 334 118q219 0 358 -143.5t139 -396.5q0 -205 -61.5 -322.5t-179 -182.5t-256.5 -65q-223 0 -360.5 143t-137.5 412zM253 531q0 -204 89 -305.5t224 -101.5q134 0 223 102t89 311q0 197 -89.5 298.5t-222.5 101.5q-135 0 -224 -101
t-89 -305zM231 1219q-1 104 57 166q57 62 146 62q62 0 169 -54q59 -30 94 -30q32 0 49 17.5t24 69.5h130q-3 -114 -57.5 -171t-138.5 -57q-63 0 -166 56q-67 36 -98 36q-34 0 -55 -24q-22 -24 -21 -71h-133z" />
    <glyph glyph-name="ucircumflex" unicode="&#xfb;" 
d="M831 0v156q-124 -180 -337 -180q-94 0 -175.5 36t-121 90.5t-55.5 133.5q-11 53 -11 168v658h180v-589q0 -141 11 -190q17 -71 72 -111.5t136 -40.5t152 41.5t100.5 113t29.5 207.5v569h180v-1062h-161zM564 1364l-113 -170h-206l216 280h192l225 -280h-204z" />
    <glyph glyph-name="cent" unicode="&#xa2;" 
d="M744 894l-222 -766q33 -9 61 -9q104 0 179.5 71t92.5 199l179 -20q-33 -185 -156.5 -291t-291.5 -106q-49 0 -103 14l-118 -395l-112 32l115 398q-115 55 -188 183.5t-73 321.5q0 178 58.5 305.5t175 191.5t237.5 64q36 0 100 -8l113 387l110 -32l-112 -387
q99 -43 152 -115.5t74 -181.5l-175 -27q-26 112 -96 171zM638 940q-32 3 -50 3q-82 0 -153.5 -45.5t-107 -141t-35.5 -221.5q0 -132 32 -223t91 -135z" />
    <glyph glyph-name="sterling" unicode="&#xa3;" 
d="M396 809h315v-148h-284q19 -44 19 -88q0 -87 -41.5 -184t-136.5 -198q79 22 144 22q83 0 187 -25q172 -41 233 -41q74 0 192 56l58 -165q-92 -39 -142.5 -51t-100.5 -12q-42 0 -85 8q-27 5 -129.5 36.5t-132.5 37.5q-47 8 -94 8q-72 0 -153.5 -25t-148.5 -68l-69 173
q96 53 163 151.5t67 240.5q0 61 -17 124h-196v148h154q-33 112 -42 163.5t-9 100.5q0 208 154 325q124 93 300 93q181 0 298.5 -99.5t144.5 -279.5l-179 -27q-15 120 -89.5 189t-178.5 69q-111 0 -184.5 -71.5t-73.5 -172.5q0 -111 57 -290z" />
    <glyph glyph-name="section" unicode="&#xa7;" 
d="M143 -70l181 26q28 -130 89 -182.5t166 -52.5q102 0 159.5 52t57.5 122q0 51 -36 94q-62 75 -340 245q-148 91 -206.5 142.5t-95.5 121.5t-37 146q0 96 60 174t165 109q-71 68 -100 125.5t-29 122.5q0 128 100 222t265 94q187 0 292 -89t126 -258l-187 -19
q-21 122 -73.5 170t-141.5 48q-92 0 -148.5 -49.5t-56.5 -109.5q0 -52 36 -96q56 -68 306 -220q157 -96 212 -141q71 -60 104.5 -124t33.5 -139q0 -113 -73 -193q-42 -46 -154 -93q80 -61 119.5 -131t39.5 -150q0 -88 -50 -166.5t-144 -120t-203 -41.5q-191 0 -303 95.5
t-134 265.5zM728 244q74 38 110.5 88.5t36.5 98.5q0 57 -52 120q-53 63 -225 169q-137 84 -204 138q-81 -46 -115.5 -92t-34.5 -102q0 -63 46 -120t207 -152q134 -79 231 -148z" />
    <glyph glyph-name="bullet" unicode="&#x2022;" horiz-adv-x="931" 
d="M817 662q0 -145 -103.5 -248t-248.5 -103t-248 103t-103 248t103 248t248 103t248.5 -103t103.5 -248z" />
    <glyph glyph-name="paragraph" unicode="&#xb6;" horiz-adv-x="1100" 
d="M405 -407v1045q-187 10 -295.5 121.5t-108.5 284.5q0 193 120.5 307.5t352.5 114.5h633v-173h-144v-1700h-170v1700h-223v-1700h-165z" />
    <glyph glyph-name="registered" unicode="&#xae;" horiz-adv-x="1509" 
d="M758 1491q190 0 371 -97.5t282 -279t101 -378.5q0 -195 -99.5 -375t-279 -279.5t-375.5 -99.5t-375.5 99.5t-279.5 279.5t-100 375q0 197 101.5 378.5t282.5 279t371 97.5zM758 1366q-159 0 -309.5 -81.5t-235.5 -233t-85 -315.5q0 -163 83.5 -312.5t233.5 -233
t313 -83.5t313 83.5t233 233t83 312.5q0 164 -84.5 315.5t-235.5 233t-309 81.5zM427 319v812h279q143 0 207 -22.5t102 -78.5t38 -119q0 -89 -63.5 -155t-168.5 -74q43 -18 69 -43q49 -48 120 -161l99 -159h-160l-72 128q-85 151 -137 189q-36 28 -105 28h-77v-345h-131z
M558 776h159q114 0 155.5 34t41.5 90q0 36 -20 64.5t-55.5 42.5t-131.5 14h-149v-245z" />
    <glyph glyph-name="copyright" unicode="&#xa9;" horiz-adv-x="1509" 
d="M758 1491q190 0 371 -97.5t282 -279t101 -378.5q0 -195 -99.5 -375t-279 -279.5t-375.5 -99.5t-375.5 99.5t-279.5 279.5t-100 375q0 197 101.5 378.5t282.5 279t371 97.5zM758 1366q-159 0 -309.5 -81.5t-235.5 -233t-85 -315.5q0 -163 83.5 -312.5t233.5 -233
t313 -83.5t313 83.5t233 233t83 312.5q0 164 -84.5 315.5t-235.5 233t-309 81.5zM1000 614l123 -36q-30 -125 -127.5 -199.5t-236.5 -74.5q-176 0 -286 114t-110 316q0 132 50 229.5t142.5 147t211.5 49.5q133 0 221 -63.5t120 -172.5l-119 -29q-30 74 -88.5 113.5
t-137.5 39.5q-115 0 -189.5 -82t-74.5 -235t70.5 -231.5t182.5 -78.5q90 0 158 52t90 141z" />
    <glyph glyph-name="trademark" unicode="&#x2122;" horiz-adv-x="2048" 
d="M489 651v694h-264v121h666v-121h-266v-694h-136zM982 651v815h200l206 -651l199 651h196v-815h-124v684l-210 -684h-123l-219 694v-694h-125z" />
    <glyph glyph-name="acute" unicode="&#xb4;" horiz-adv-x="682" 
d="M222 1194l133 280h236l-220 -280h-149z" />
    <glyph glyph-name="plusminus" unicode="&#xb1;" horiz-adv-x="1124" 
d="M477 260v403h-399v167h399v399h170v-399h399v-167h-399v-403h-170zM1046 0h-968v168h968v-168z" />
    <glyph glyph-name="lessequal" unicode="&#x2264;" horiz-adv-x="1124" 
d="M77 762v168l971 410v-180l-770 -315l770 -319v-179zM1046 106h-968v167h968v-167z" />
    <glyph glyph-name="greaterequal" unicode="&#x2265;" horiz-adv-x="1124" 
d="M1048 762l-971 -415v179l769 319l-769 315v180l971 -410v-168zM1046 106h-968v167h968v-167z" />
    <glyph glyph-name="yen" unicode="&#xa5;" 
d="M477 0v325h-415v139h415v143h-415v148h341l-406 711h200l290 -516q49 -88 76 -154q23 53 82 163l274 507h214l-405 -711h341v-148h-412v-143h412v-139h-412v-325h-180z" />
    <glyph glyph-name="guillemotleft" unicode="&#xab;" horiz-adv-x="731" 
d="M729 -26q5 -11 0 -18q-6 -9 -19 -2q-82 32 -155.5 143.5t-73.5 237.5q0 127 73 242q63 99 152 138q14 -2 17 -6q6 -5 0 -18l-85 -145q-19 -47 -30 -99t-11 -106q0 -116 48 -218q11 -41 84 -149zM437 -26q5 -11 0 -18q-2 -8 -10 -9l-5 1q-84 38 -158.5 150t-74.5 237
q0 129 76 240q69 103 151 136q7 6 15 -2q6 -5 0 -18q-123 -190 -123 -352q0 -112 45 -216q11 -26 30.5 -59.5t53.5 -89.5z" />
    <glyph glyph-name="guillemotright" unicode="&#xbb;" horiz-adv-x="748" 
d="M732 335q0 -119 -75.5 -235t-157.5 -152q-11 4 -15 8q-6 5 0 18l86 149q44 104 44 216q0 154 -124 352l-4 7q0 21 20 13q77 -28 151.5 -138.5t74.5 -237.5zM441 335q0 -121 -76 -240q-67 -106 -155 -141q-9 -6 -18 2q-6 5 0 18q63 99 87 149q43 100 43 218
q0 160 -123 350q-5 11 0 18q6 10 17 6q91 -39 151 -138q37 -58 55.5 -115.5t18.5 -126.5z" />
    <glyph glyph-name="endash" unicode="&#x2013;" 
d="M-4 458v145h1139v-145h-1139z" />
    <glyph glyph-name="emdash" unicode="&#x2014;" horiz-adv-x="2048" 
d="M0 458v145h2048v-145h-2048z" />
    <glyph glyph-name="quotedblleft" unicode="&#x201c;" horiz-adv-x="682" 
d="M276 1220v-209h-193v165q0 134 32 194q42 80 133 121l44 -70q-55 -23 -81 -68.5t-29 -132.5h94zM586 1220v-209h-193v165q0 134 32 194q42 80 133 121l44 -70q-55 -23 -81 -68.5t-29 -132.5h94z" />
    <glyph glyph-name="quotedblright" unicode="&#x201d;" horiz-adv-x="682" 
d="M87 1272v209h193v-165q0 -134 -31 -193q-43 -81 -134 -122l-44 71q54 22 80.5 69.5t29.5 130.5h-94zM397 1272v209h193v-165q0 -134 -31 -193q-43 -81 -134 -122l-44 71q54 22 80.5 69.5t29.5 130.5h-94z" />
    <glyph glyph-name="quoteleft" unicode="&#x2018;" horiz-adv-x="455" 
d="M321 1220v-209h-193v165q0 134 32 194q42 80 133 121l44 -70q-55 -23 -81 -68.5t-29 -132.5h94z" />
    <glyph glyph-name="quoteright" unicode="&#x2019;" horiz-adv-x="455" 
d="M124 1272v209h193v-165q0 -134 -31 -193q-43 -81 -134 -122l-44 71q54 22 80.5 69.5t29.5 130.5h-94z" />
    <glyph glyph-name="divide" unicode="&#xf7;" horiz-adv-x="1171" 
d="M710 744q0 -55 -42.5 -97.5t-96.5 -42.5q-56 0 -93 45q-34 42 -34 100q0 52 39.5 89.5t92.5 37.5t93.5 -39.5t40.5 -92.5zM1095 225h-1022v179h1022v-179zM700 -120q0 -55 -42 -94t-97 -39q-54 0 -91 44q-35 41 -35 96q0 57 40 93t98 36q53 0 90 -41t37 -95z" />
    <glyph glyph-name="fraction" unicode="&#x2044;" horiz-adv-x="1018" 
d="M926 1574l-642 -1772h-180l641 1772h181z" />
    <glyph glyph-name="Euro" unicode="&#x20ac;" 
d="M790 1325q-168 0 -282 -81q-68 -48 -123 -136q-56 -91 -66 -173h682l-27 -134h-671q-1 -21 -1 -40q0 -77 1 -92h644l-28 -134h-595q42 -229 202 -325q115 -69 249 -69q187 0 292 98v-206q-125 -58 -276 -58q-452 0 -611 376q-32 76 -55 184h-153l28 134h105q-3 42 -3 91
q0 20 1 41h-131l28 134h116q62 326 323 468q161 88 355 88q186 0 313 -81l-40 -186q-122 101 -277 101z" />
    <glyph glyph-name="guilsinglleft" unicode="&#x2039;" horiz-adv-x="682" 
d="M291 527l265 -455h-149l-315 455l315 457h149z" />
    <glyph glyph-name="guilsinglright" unicode="&#x203a;" horiz-adv-x="682" 
d="M357 530l-265 454h149l304 -448l-304 -464h-149z" />
    <glyph glyph-name="periodcentered" unicode="&#x2219;" horiz-adv-x="569" 
d="M185 619v205h205v-205h-205z" />
    <glyph glyph-name="Ecircumflex" unicode="&#xca;" horiz-adv-x="1366" 
d="M162 0v1466h1060v-173h-866v-449h811v-172h-811v-499h900v-173h-1094zM707 1836l-113 -170h-206l216 280h192l225 -280h-204z" />
    <glyph glyph-name="Icircumflex" unicode="&#xce;" horiz-adv-x="569" 
d="M191 0v1466h194v-1466h-194zM287 1836l-113 -170h-206l216 280h192l225 -280h-204z" />
    <glyph glyph-name="Ucircumflex" unicode="&#xdb;" horiz-adv-x="1479" 
d="M1120 1466h194v-847q0 -221 -50 -351t-180.5 -211.5t-342.5 -81.5q-206 0 -337 71t-187 205.5t-56 367.5v847h194v-846q0 -191 35.5 -281.5t122 -139.5t211.5 -49q214 0 305 97t91 373v846zM736 1836l-113 -170h-206l216 280h192l225 -280h-204z" />
    <glyph glyph-name="brokenbar" unicode="&#xa6;" horiz-adv-x="532" 
d="M345 1491v-790h-157v790h157zM345 360v-791h-157v791h157z" />
    <glyph glyph-name="minus" unicode="&#x2212;" horiz-adv-x="1196" 
d="M1082 639h-968v168h968v-168z" />
    <glyph glyph-name="multiply" unicode="&#xd7;" horiz-adv-x="1275" 
d="M1180 -90l-126 -126l-410 416l-419 -416l-124 123l419 418l-421 419l124 124l417 -418l419 420l121 -126l-414 -419z" />
    <glyph glyph-name="Scedilla" unicode="&#x15e;" horiz-adv-x="1366" 
d="M92 471l183 16q13 -110 60.5 -180.5t147.5 -114t225 -43.5q111 0 196 33t126.5 90.5t41.5 125.5q0 69 -40 120.5t-132 86.5q-59 23 -261 71.5t-283 91.5q-105 55 -156.5 136.5t-51.5 182.5q0 111 63 207.5t184 146.5t269 50q163 0 287.5 -52.5t191.5 -154.5t72 -231
l-186 -14q-15 139 -101.5 210t-255.5 71q-176 0 -256.5 -64.5t-80.5 -155.5q0 -79 57 -130q56 -51 292.5 -104.5t324.5 -93.5q128 -59 189 -149.5t61 -208.5q0 -117 -67 -220.5t-192.5 -161t-282.5 -57.5q-199 0 -333.5 58t-211 174.5t-80.5 263.5zM555 -144l52 177h134
l-33 -107q85 -10 128 -52.5t43 -94.5q0 -75 -72 -132.5t-217 -57.5q-82 0 -144 12l11 117q64 -4 94 -4q94 0 132 26q29 20 29 49q0 18 -11.5 32t-42.5 24t-103 11z" />
    <glyph glyph-name="scedilla" unicode="&#x15f;" horiz-adv-x="1024" 
d="M63 317l178 28q15 -107 83.5 -164t191.5 -57q124 0 184 50.5t60 118.5q0 61 -53 96q-37 24 -184 61q-198 50 -274.5 86.5t-116 101t-39.5 142.5q0 71 32.5 131.5t88.5 100.5q42 31 114.5 52.5t155.5 21.5q125 0 219.5 -36t139.5 -97.5t62 -164.5l-176 -24
q-12 82 -69.5 128t-162.5 46q-124 0 -177 -41t-53 -96q0 -35 22 -63q22 -29 69 -48q27 -10 159 -46q191 -51 266.5 -83.5t118.5 -94.5t43 -154q0 -90 -52.5 -169.5t-151.5 -123t-224 -43.5q-207 0 -315.5 86t-138.5 255zM375 -134l52 177h134l-33 -107q85 -10 128 -52.5
t43 -94.5q0 -75 -72 -132.5t-217 -57.5q-82 0 -144 12l11 117q64 -4 94 -4q94 0 132 26q29 20 29 49q0 18 -11.5 32t-42.5 24t-103 11z" />
    <glyph glyph-name="middot.001" unicode="&#xb7;" horiz-adv-x="724" 
d="M482 832h-239v285h239v-285z" />
    <glyph glyph-name="H18533" unicode="&#x25cf;" horiz-adv-x="1237" 
d="M177 576q0 183 129 312t312 129q182 0 311 -129t129 -312q0 -182 -129 -311t-311 -129q-183 0 -312 129t-129 311z" />
    <glyph glyph-name="openbullet" unicode="&#x25e6;" horiz-adv-x="726" 
d="M363 928q104 0 177.5 -73.5t73.5 -177.5t-73.5 -177.5t-177.5 -73.5t-177.5 73.5t-73.5 177.5t73 177.5t178 73.5zM363 852q-73 0 -124 -51.5t-51 -123.5q0 -73 51.5 -124t123.5 -51t123.5 51t51.5 124q0 72 -51 123.5t-124 51.5z" />
    <glyph glyph-name="afii61352" unicode="&#x2116;" horiz-adv-x="2336" 
d="M1173 0h-222l-615 1284v-1284h-185v1489h281l556 -1179v1179h185v-1489zM2202 1030q0 -227 -117 -358.5t-303 -131.5q-193 0 -307 131.5t-114 358.5q0 233 117 361.5t304 128.5t303.5 -128.5t116.5 -361.5zM2071 176h-578v162h578v-162zM2022 1030q0 175 -64.5 257.5
t-175.5 82.5t-176 -82.5t-65 -257.5q0 -169 64 -254.5t177 -85.5t176.5 85.5t63.5 254.5z" />
    <glyph glyph-name="currency" unicode="&#xa4;" 
d="M213 961l-139 136l115 119l139 -139q106 72 237 72q132 0 237 -72l139 139l116 -119l-139 -136q71 -110 71 -235q0 -126 -71 -236l139 -136l-116 -119l-139 140q-105 -73 -237 -73q-131 0 -237 73l-139 -140l-115 119l139 136q-71 110 -71 236q0 125 71 235zM305 726
q0 -108 76 -184t183 -76t183 76t76 184q0 107 -75.5 183t-183.5 76q-107 0 -183 -76t-76 -183z" />
    <glyph glyph-name="afii57388" unicode="&#x60c;" horiz-adv-x="516" 
d="M408 82q0 -30 -41 -71t-71 -45q-30 0 -73 38q-61 52 -61 147q0 56 72.5 148t113.5 92q15 0 21 -11l-10 -25q-78 -87 -78 -117q0 -65 56 -82q71 -17 71 -74z" />
    <glyph glyph-name="afii57403" unicode="&#x61b;" horiz-adv-x="450" 
d="M435 511q0 -30 -41 -71t-71 -45q-30 0 -73 38q-61 52 -61 147q0 56 72.5 148t113.5 92q15 0 21 -11l-10 -25q-78 -87 -78 -117q0 -65 56 -82q71 -17 71 -74zM422 65q0 -17 -47.5 -61t-62.5 -48q-15 0 -59 41.5t-47 65.5q0 17 46.5 64.5t64.5 47.5q10 0 56.5 -44.5
t48.5 -65.5z" />
    <glyph glyph-name="afii57407" unicode="&#x61f;" horiz-adv-x="709" 
d="M683 1109q-26 -72 -83 -143q-79 52 -144 52q-48 0 -91 -34q-37 -33 -37 -74q0 -67 106 -173q63 -62 115 -127q54 -82 54 -145q0 -110 -121 -218l-70 64q96 96 96 154q0 60 -87 140l-153 150q-87 92 -87 189q0 104 86.5 177.5t190.5 73.5q50 0 122 -24.5t103 -61.5z
M582 65q0 -17 -47.5 -61t-62.5 -48q-15 0 -59 41.5t-47 65.5q0 17 46.5 64.5t64.5 47.5q10 0 56.5 -44.5t48.5 -65.5z" />
    <glyph glyph-name="afii57409" unicode="&#x621;" horiz-adv-x="781" 
d="M692 356q-21 -75 -36 -93.5t-57 -40.5l-542 -262v26q0 61 100 122q23 13 155 71q-203 39 -255 124q-17 27 -17 60q0 41 35 123l43 74l58 73q115 142 212 142q47 0 83 -39.5t36 -85.5q0 -49 -61 -142q-63 92 -138 92q-56 0 -110 -45q-44 -50 -44 -106q0 -51 106 -97.5
t212 -46.5q82 0 143 23q30 7 77 28z" />
    <glyph glyph-name="tatweel" unicode="&#x640;" horiz-adv-x="508" 
d="M611 0h-670v181h670v-181z" />
    <glyph glyph-name="afii57392" unicode="&#x660;" horiz-adv-x="1303" 
d="M812 585q-8 -58 -39 -164l-23 -129l-136 80l-61 45q-34 22 -58 47l7 38.5t12 41.5l18 72l17 65l32 88l113 -99z" />
    <glyph glyph-name="afii57393" unicode="&#x661;" horiz-adv-x="1303" 
d="M812 313q0 -129 -30 -335h-30q0 221 -16.5 325.5t-68 266.5t-112.5 281l-62 115l-89 140l30 136l43 132q57 -86 108.5 -184.5t92.5 -207.5t73.5 -244t50.5 -269q10 -71 10 -156z" />
    <glyph glyph-name="afii57394" unicode="&#x662;" horiz-adv-x="1303" 
d="M967 1352q0 -242 -57.5 -342.5t-199.5 -100.5l-95 11l41 -105l32 -81l50 -229l11 -88l8 -130l-10 -159l-7 -142h-39q0 204 -34 321l-52 166l-61 197q-32 90 -62 149q-67 129 -223 346l76 203q110 -141 187.5 -190.5t164.5 -49.5q192 0 246 224h24z" />
    <glyph glyph-name="afii57395" unicode="&#x663;" horiz-adv-x="1303" 
d="M908 974q-43 0 -94 16q-33 23 -74 75q-50 -67 -82 -93q-50 -36 -113 -36h-30l-19 4q43 -119 73 -260q22 -110 22 -274q0 -140 -33 -406h-40l4 93q0 129 -9 223t-39 205q-51 205 -145 358q-10 24 -60 98l-41 62l-52 78l69 242q82 -113 119 -145q78 -73 167 -73
q92 0 157 58q69 56 112 177h16q23 -184 160 -184q131 0 164 184h26q0 -402 -258 -402z" />
    <glyph glyph-name="afii57396" unicode="&#x664;" horiz-adv-x="1303" 
d="M1004 203l-64 -210q-102 11 -221 46l-86 22q-220 71 -220 142q0 128 99 261q9 13 41.5 50t88.5 100l51 54l-200 88q-117 50 -117 125q0 96 125.5 244t308.5 262l-58 -214q-97 -37 -149 -75.5t-54 -66.5q0 -26 161 -107.5t167 -121.5q0 -26 -84 -121l-160 -171
q-84 -89 -84 -134q0 -39 186 -102l103 -28z" />
    <glyph glyph-name="afii57397" unicode="&#x665;" horiz-adv-x="1303" 
d="M1037 737q0 -35 -11 -91q-56 -181 -158 -285q-30 -33 -118 -61q-72 -23 -162 -23q-136 0 -223.5 68t-87.5 169q0 37 7.5 74.5t30.5 104.5q39 117 106 229q104 175 212 175q136 0 270 -114t134 -246zM946 588q0 79 -149 200t-251 121q-69 0 -121.5 -94t-52.5 -165
q0 -90 136 -134q51 -13 99 -20.5t108 -7.5q231 0 231 100z" />
    <glyph glyph-name="afii57398" unicode="&#x666;" horiz-adv-x="1303" 
d="M1043 292l-22 -268q-100 23 -158 121q-24 39 -38 89.5t-14 111.5l-19 293l-7 372l-151 -34l-119 -9l-38 2l-35 4l-43 7l-26 8q-56 13 -87 50l-13 26l-6 35l-5 110v47l1 31v23l4 31h26q75 -136 304 -136q123 0 286 54l-22 -95l-15 -98v-26l-2 -34l-3 -71q0 -173 54 -400
q9 -39 33 -106q15 -41 45 -76q16 -21 70 -62z" />
    <glyph glyph-name="afii57399" unicode="&#x667;" horiz-adv-x="1303" 
d="M1139 1048q-175 -100 -301 -469q-39 -121 -71.5 -262.5t-55.5 -299.5h-44q-23 171 -68.5 326.5t-120.5 304.5q-141 294 -296 367l21 320q74 -34 142 -116.5t126 -211.5q48 -110 102 -290.5t120 -439.5q184 942 446 1067v-296z" />
    <glyph glyph-name="afii57400" unicode="&#x668;" horiz-adv-x="1303" 
d="M1139 331l-20 -324q-153 62 -268 328q-93 209 -220 732q-190 -942 -449 -1067v298q146 82 259.5 357.5t169.5 673.5h44q25 -182 65 -323.5t120 -307.5q139 -288 299 -367z" />
    <glyph glyph-name="afii57401" unicode="&#x669;" horiz-adv-x="1303" 
d="M1038 261l-35 -307q-103 45 -151 195q-58 184 -58 603l-65 -54l-69 -39l-61 -17l-69 -9q-101 0 -165 66t-64 172v43l7 36q0 18 35 106q51 137 103 203q78 98 192 98q102 0 147.5 -69t58.5 -227l34 -404l7 -134q32 -210 153 -262zM764 927q-28 198 -193 198
q-71 0 -129 -30q-71 -37 -71 -101q0 -52 56 -97q32 -18 67.5 -28.5t70.5 -10.5q89 0 199 69z" />
    <glyph glyph-name="afii57381" unicode="&#x66a;" horiz-adv-x="884" 
d="M368 1071l-140 -155l-160 140l130 150zM792 1262l-618 -1399l-74 30l618 1397zM814 99q-18 -23 -51.5 -61.5t-85.5 -94.5l-160 139l130 154z" />
    <glyph glyph-name="afii63167" unicode="&#x66d;" horiz-adv-x="1077" 
d="M868 1174q0 -29 -22 -47t-55 -18q-53 0 -127 25l-74 26l-10 -30l118 -58q86 -47 86 -101q0 -28 -18.5 -47.5t-46.5 -19.5q-52 0 -158 207q-9 -6 -21 -9q22 -68 31 -102q17 -60 17 -104q0 -30 -16.5 -50t-48.5 -20q-31 0 -47.5 19.5t-16.5 50.5q0 45 18 100t36 106l-27 9
q-34 -64 -67 -127q-46 -80 -94 -80q-28 0 -46 19t-18 48q0 54 86 100q8 4 121 59q-8 16 -11 30q-67 -23 -100 -33q-59 -18 -102 -18q-33 0 -54.5 17.5t-21.5 47.5q0 31 21 49t55 18q44 0 97.5 -18.5t104.5 -36.5q3 16 11 34q-61 28 -121 57q-86 45 -86 99q0 29 18 49t46 20
q47 0 93 -80q40 -76 68 -128l25 8q-2 9 -25 76q-27 81 -27 130q0 30 16.5 51.5t47.5 21.5q32 0 48.5 -21t16.5 -52q0 -45 -18.5 -99.5t-35.5 -104.5l27 -10q63 122 66 127q46 81 92 81q29 0 47 -20t18 -49q0 -53 -85 -98q-73 -36 -119 -58l10 -34q65 24 98 35q60 20 103 20
q35 0 56 -17.5t21 -49.5zM563 1174q0 18 -11 29t-29 11q-17 0 -28 -11t-11 -29q0 -16 11 -28t28 -12t28.5 11.5t11.5 28.5z" />
    <glyph glyph-name="aekurdi" unicode="&#x6d5;" horiz-adv-x="724" 
d="M631 495q0 -139 -80 -238q-86 -108 -221 -108q-94 0 -154.5 70t-60.5 166v36l6 28l2 11l2 11l18 76l13 30l36 75l61 128l26 39q8 24 19 32q26 45 65 45q80 0 168 -110q100 -123 100 -291zM546 464q0 11 -19 35q-22 37 -93 82q-47 30 -93 45l-39 5q-41 0 -80 -50
q-30 -54 -30 -125q0 -39 39 -67q56 -26 108 -26q84 0 145.5 28t61.5 73z" />
    <glyph glyph-name="afii62843" unicode="&#x6f4;" horiz-adv-x="1303" 
d="M1004 203l-64 -210q-102 11 -221 46l-86 22q-220 71 -220 142q0 128 99 261q9 13 41.5 50t88.5 100l51 54l-200 88q-117 50 -117 125q0 96 125.5 244t308.5 262l-58 -214q-97 -37 -149 -75.5t-54 -66.5q0 -26 161 -107.5t167 -121.5q0 -26 -84 -121l-160 -171
q-84 -89 -84 -134q0 -39 186 -102l103 -28z" />
    <glyph glyph-name="afii62844" unicode="&#x6f5;" horiz-adv-x="1303" 
d="M1037 737q0 -35 -11 -91q-56 -181 -158 -285q-30 -33 -118 -61q-72 -23 -162 -23q-136 0 -223.5 68t-87.5 169q0 37 7.5 74.5t30.5 104.5q39 117 106 229q104 175 212 175q136 0 270 -114t134 -246zM946 588q0 79 -149 200t-251 121q-69 0 -121.5 -94t-52.5 -165
q0 -90 136 -134q51 -13 99 -20.5t108 -7.5q231 0 231 100z" />
    <glyph glyph-name="afii62845" unicode="&#x6f6;" horiz-adv-x="1303" 
d="M1043 292l-22 -268q-100 23 -158 121q-24 39 -38 89.5t-14 111.5l-19 293l-7 372l-151 -34l-119 -9l-38 2l-35 4l-43 7l-26 8q-56 13 -87 50l-13 26l-6 35l-5 110v47l1 31v23l4 31h26q75 -136 304 -136q123 0 286 54l-22 -95l-15 -98v-26l-2 -34l-3 -71q0 -173 54 -400
q9 -39 33 -106q15 -41 45 -76q16 -21 70 -62z" />
    <glyph glyph-name="afii57506" unicode="&#x67e;" horiz-adv-x="2338" 
d="M2316 467l2 -24l2 -30q0 -52 -4.5 -89t-21.5 -86l-23 -69q-7 -13 -82 -35l-115 -30l-112 -28l-156 -29l-223 -28l-239 -19l-123 -3l-113 -4q-309 0 -538 50q-267 61 -384 173q-46 43 -76 127q-21 85 -21 175q0 72 28 139q15 45 47 101l22 -10l-17 -50l-11 -31l-17 -103
l6 -32q22 -117 97 -173q41 -29 180 -82l142 -33l80 -13l69 -9l140 -12l171 -3l180 -4q189 0 332 17l104 2l227 31l248 41l82 17q43 11 54 33q-6 51 -29 105t-57 91l-93 99l21 85q13 58 35 88q39 -26 98.5 -121t87.5 -224zM1326 -495l100 166l183 -112l-107 -156zM1108 -256
l104 158l181 -104l-105 -159zM1378 -256l100 158l185 -104l-105 -159z" />
    <glyph glyph-name="afii57505" unicode="&#x6a4;" horiz-adv-x="1457" 
d="M1334 592q0 -227 -97 -363t-269 -218.5t-362 -82.5q-315 0 -412 210q-29 65 -29 147q0 186 180 490l26 -17q-111 -201 -111 -345q0 -132 95 -210q100 -76 266 -76q160 0 341.5 64t269.5 178q57 74 57 139v28l-2 10q0 18 -6.5 36t-19.5 44q-18 31 -29 50
q-47 -60 -95.5 -90.5t-107.5 -30.5q-67 0 -123 45q-26 24 -39 51t-13 64q0 78 40.5 172t98.5 169l47 37q26 9 48 13l23 -2l20 -9q15 -6 33 -28l38 -41l39 -65q93 -166 93 -369zM1122 817q-23 34 -45 51q-35 22 -60 26q-16 0 -39.5 -16t-23.5 -42q0 -19 19 -39l48 -15l28 2
l30 11l17 9zM1141 1634l-103 -166l-180 112l106 156zM1357 1398l-103 -159l-180 103l102 158zM1087 1398l-99 -159l-184 103l102 158z" />
    <glyph glyph-name="afii57507" unicode="&#x686;" horiz-adv-x="1329" 
d="M1577 -899l-4 -39l-434 -192l-165 -69q-62 -11 -134 -11q-149 0 -331.5 53t-266.5 139q-60 60 -108 162q-69 143 -69 307q0 30 1 66.5t13 95t51 172.5q127 347 417 502l133 72q-71 26 -146.5 39t-174.5 13q-80 0 -117 -24q-54 -26 -106 -113l-21 9q51 149 108 216
q84 101 213 101h41l28 -8l206 -32q21 0 52 -11l95 -18l34 -6l37 -6l82 -1h315l-92 -174q-143 0 -264 -20.5t-240 -66.5q-216 -86 -363 -233q-95 -94 -170 -249l-59 -180l-8 -66q0 -130 88 -242q76 -98 203 -165l102 -38q21 0 67 -13l78 -16q157 -28 341 -28q168 0 287 18
l139 19q86 15 142 37zM694 -586l101 166l182 -110l-104 -158zM477 -346l104 158l180 -104l-104 -158zM748 -346l99 158l184 -104l-104 -158z" />
    <glyph glyph-name="afii57508" unicode="&#x698;" horiz-adv-x="1029" 
d="M1007 298q0 -47 -10 -142t-42 -182q-39 -113 -113 -206q-21 -28 -40 -49q-31 -37 -59 -57q-41 -47 -186 -134q-52 -32 -94 -54.5t-74 -33.5q-46 8 -188 78q-46 24 -92 49.5t-102 60.5l-88 54l9 17l72 -32l102 -41q93 -28 147 -28h36q20 2 58 17q93 26 212 97
q76 43 113 71q69 52 123 110q49 50 88 114l28 69q5 13 10.5 31t5.5 51l-1 28l-4 23q-2 14 -22 48l-13 19l-53 80l-102 111l78 240q49 -39 78 -81l54 -77q23 -33 47 -93l15 -74zM670 1181l-103 -166l-180 112l106 156zM886 945l-103 -159l-180 103l102 158zM616 945l-99 -159
l-184 103l102 158z" />
    <glyph glyph-name="afii57567" unicode="&#x6a9;" horiz-adv-x="3468" 
d="M2969 302q-25 -75 -66 -153q-55 -117 -98 -149h-1613l-208 2q-37 0 -88.5 5.5t-86.5 9.5q-233 20 -373.5 59t-229.5 125q-97 91 -97 304q0 63 30 145q13 37 46 100l24 -11q-44 -100 -44 -184v-15l3 -13q17 -156 175 -229q88 -43 250 -69l147 -22l136 -6l194 -4h100l73 -2
h1584q30 23 52 88l24 67l-39 60l-57 82l-105 124l-46 -39l-84 153q-67 117 -67 132q0 67 41 218t67 177l1044 316q0 -31 -28.5 -116t-47.5 -103l-934 -287q-17 0 -23 -36l2 -11l285 -415q20 -32 39 -132.5t19 -170.5z" />
    <glyph glyph-name="afii57509" unicode="&#x6af;" horiz-adv-x="2111" 
d="M1684 301q-25 -76 -67 -155q-56 -119 -106 -156h-319l-208 2q-38 0 -90 5.5t-87 9.5q-235 20 -378 60t-235 128q-100 94 -100 310q0 64 30 147q14 37 53 113l49 -22q-46 -105 -46 -188v-14l3 -13q16 -152 168 -222q86 -42 245 -67l146 -22l135 -6l193 -4h100l73 -2h278
q22 17 43 80l23 64l-37 57l-56 82l-94 110l-49 -41l-93 170q-68 118 -68 135q0 68 41.5 220t71.5 183l1069 323q0 -47 -29 -133.5t-52 -108.5l-941 -289q-7 0 -11 -26l2 -9l284 -413q21 -34 40 -135.5t19 -172.5zM2456 1827q-28 -122 -102 -153l-999 -290q22 90 48 109
q25 28 109 57z" />
    <glyph glyph-name="afii57555" unicode="&#x6cc;" horiz-adv-x="3027" 
d="M2991 413v-13q0 -56 -23.5 -154.5t-58.5 -157.5q-61 -84 -324 -173q-125 -43 -203 -62q-128 -29 -279 -46t-309 -17l-149 2l-229 9q-104 0 -211 17l-124 22q-276 49 -475 125q-181 67 -283 143l-67 50l-75 58q-72 56 -124 114l50 14l166 -80l167 -78q157 -72 581 -139
q80 -12 172.5 -23t205.5 -20q75 0 117 -2q216 -9 246 -9q199 0 345.5 11t287.5 43q233 52 354 115q104 56 119 95q0 20 -63 48l-21 6l-41 13l-82 20q-76 19 -208 64q-121 52 -132 97l-2 18q0 37 17.5 150t32.5 139q69 165 235 266q139 84 264 84q69 0 101 -30l16 -45l6 -69
q0 -80 -21 -100l-37 11l-35 11l-78 6q-146 0 -285 -116q-110 -93 -104 -134q11 -52 148 -96l244 -73q140 -43 168 -114z" />
    <glyph glyph-name="afii52400" unicode="&#x622;" horiz-adv-x="692" 
d="M405 432v-65l-6 -43l-5 -45v-16l-6 -12l-2 -7q0 -19 -3.5 -37.5t-15.5 -58.5t-25 -79t-30 -76l-21 7l15 43l8 24l5 35l10 90l3 121q0 54 -4.5 96.5t-19.5 128.5l-48 281q-28 151 -28 181q0 52 35 112l21 37l29 43l12 -12l-6 -50l-2 -37l21 -147l41 -268q22 -146 22 -246z
M47 1257l51 61q93 93 110 95l42 6q19 -2 52.5 -10.5t57.5 -15.5q47 -15 75.5 -20.5t51.5 -5.5l39 3q65 25 80 29.5t43 13.5l50 28l28 19l28 20l2 -45q-58 -93 -91 -122q-56 -49 -136 -66l-41 -3l-95 18q-119 30 -144 30l-41 -4q-119 -50 -193 -136l-2 49z" />
    <glyph glyph-name="afii57411" unicode="&#x623;" horiz-adv-x="627" 
d="M405 432v-65l-6 -43l-5 -45v-16l-6 -12l-2 -7q0 -19 -3.5 -37.5t-15.5 -58.5t-25 -79t-30 -76l-21 7l15 43l8 24l5 35l10 90l3 121q0 54 -4.5 96.5t-19.5 128.5l-48 281q-28 151 -28 181q0 52 35 112l21 37l29 43l12 -12l-6 -50l-2 -37l21 -147l41 -268q22 -146 22 -246z
M401 1462l4 -23q0 -37 -47 -71q-39 -26 -85 -33l-13 -2h-13l-28 2l-28 2l-13 -2l-24 -22l-17 16l22 25q9 11 67 20q47 0 75 22l5 17q-5 9 -9 11q-15 0 -47 17l-18 21v24q0 26 34.5 80t84.5 59l-6 -55q-24 -4 -39 -19q-9 -4 -20 -28q0 -9 31 -21q73 -16 84 -40z" />
    <glyph glyph-name="afii57412" unicode="&#x624;" horiz-adv-x="988" 
d="M914 385q0 -318 -163 -589.5t-366 -271.5q-93 0 -175 32q-31 11 -64.5 25.5t-97.5 50.5l28 22l82 -26l49 -7h35q86 0 195 50t179 121q86 86 157.5 217t71.5 237v31l-5 25l-6 26l-17 28l-31 -41l-36 -32q-24 -20 -67 -20q-67 0 -115 48q-49 54 -49 119q0 50 20.5 110.5
t67.5 142.5q19 51 60 88q11 17 31 24l36 7q63 0 124 -126q28 -54 41 -132l8 -67zM745 519q-6 34 -24 41q-15 21 -49 21q-45 0 -45 -50q0 -28 10.5 -43t38.5 -17q24 0 41 11q20 21 28 37zM486 1093l4 -24q0 -74 -132 -104l-21 -2l-31 4h-24l-19 -2q-19 -11 -24 -21l-15 15
l18 24q21 12 69 23q51 0 79 20l3 17q-5 9 -9 11q-43 8 -63 50q-12 28 32 88.5t87 60.5l-6 -59q-22 -2 -43 -13l-18 -26q0 -13 52 -30q50 -6 61 -32z" />
    <glyph glyph-name="afii57413" unicode="&#x625;" horiz-adv-x="627" 
d="M405 432v-65l-6 -43l-5 -45v-16l-6 -12l-2 -7q0 -19 -3.5 -37.5t-15.5 -58.5t-25 -79t-30 -76l-21 7l15 43l8 24l5 35l10 90l3 121q0 54 -4.5 96.5t-19.5 128.5l-48 281q-28 151 -28 181q0 52 35 112l21 37l29 43l12 -12l-6 -50l-2 -37l21 -147l41 -268q22 -146 22 -246z
M416 -290l4 -24q0 -74 -132 -104l-21 -2l-31 4h-24l-19 -2q-19 -11 -24 -21l-15 15l18 24q21 12 69 23q51 0 79 20l3 17q-5 9 -9 11q-43 8 -63 50q-12 28 32 88.5t87 60.5l-6 -59q-22 -2 -43 -13l-18 -26q0 -13 52 -30q50 -6 61 -32z" />
    <glyph glyph-name="afii57414" unicode="&#x626;" horiz-adv-x="3027" 
d="M2991 413v-13q0 -56 -23.5 -154.5t-58.5 -157.5q-61 -84 -324 -173q-125 -43 -203 -62q-128 -29 -279 -46t-309 -17l-149 2l-229 9q-104 0 -211 17l-124 22q-276 49 -475 125q-181 67 -283 143l-67 50l-75 58q-72 56 -124 114l50 14l166 -80l167 -78q157 -72 581 -139
q80 -12 172.5 -23t205.5 -20q75 0 117 -2q216 -9 246 -9q199 0 345.5 11t287.5 43q233 52 354 115q104 56 119 95q0 20 -63 48l-21 6l-41 13l-82 20q-76 19 -208 64q-121 52 -132 97l-2 18q0 37 17.5 150t32.5 139q69 165 235 266q139 84 264 84q69 0 101 -30l16 -45l6 -69
q0 -80 -21 -100l-37 11l-35 11l-78 6q-146 0 -285 -116q-110 -93 -104 -134q11 -52 148 -96l244 -73q140 -43 168 -114zM650 1042l4 -24q0 -74 -132 -104l-21 -2l-31 4h-24l-19 -2q-19 -11 -24 -21l-15 15l18 24q21 12 69 23q51 0 79 20l3 17q-5 9 -9 11q-43 8 -63 50
q-12 28 32 88.5t87 60.5l-6 -59q-22 -2 -43 -13l-18 -26q0 -13 52 -30q50 -6 61 -32z" />
    <glyph glyph-name="afii57415" unicode="&#x627;" horiz-adv-x="627" 
d="M405 432v-65l-6 -43l-5 -45v-16l-6 -12l-2 -7q0 -19 -3.5 -37.5t-15.5 -58.5t-25 -79t-30 -76l-21 7l15 43l8 24l5 35l10 90l3 121q0 54 -4.5 96.5t-19.5 128.5l-48 281q-28 151 -28 181q0 52 35 112l21 37l29 43l12 -12l-6 -50l-2 -37l21 -147l41 -268q22 -146 22 -246z
" />
    <glyph glyph-name="afii57416" unicode="&#x628;" horiz-adv-x="2338" 
d="M2316 467l2 -24l2 -30q0 -52 -4.5 -89t-21.5 -86l-23 -69q-7 -13 -82 -35l-115 -30l-112 -28l-156 -29l-223 -28l-239 -19l-123 -3l-113 -4q-309 0 -538 50q-267 61 -384 173q-46 43 -76 127q-21 85 -21 175q0 72 28 139q15 45 47 101l22 -10l-17 -50l-11 -31l-17 -103
l6 -32q22 -117 97 -173q41 -29 180 -82l142 -33l80 -13l69 -9l140 -12l171 -3l180 -4q189 0 332 17l104 2l227 31l248 41l82 17q43 11 54 33q-6 51 -29 105t-57 91l-93 99l21 85q13 58 35 88q39 -26 98.5 -121t87.5 -224zM1514 -333l-105 -162l-178 106l98 164z" />
    <glyph glyph-name="afii57417" unicode="&#x629;" horiz-adv-x="724" 
d="M631 495q0 -139 -80 -238q-86 -108 -221 -108q-94 0 -154.5 70t-60.5 166v36l6 28l2 11l2 11l18 76l13 30l36 75l61 128l26 39q8 24 19 32q26 45 65 45q80 0 168 -110q100 -123 100 -291zM546 464q0 11 -19 35q-22 37 -93 82q-47 30 -93 45l-39 5q-41 0 -80 -50
q-30 -54 -30 -125q0 -39 39 -67q56 -26 108 -26q84 0 145.5 28t61.5 73zM603 1190l-106 -164l-182 108l108 159zM328 1190l-97 -164l-184 108l100 159z" />
    <glyph glyph-name="afii57418" unicode="&#x62a;" horiz-adv-x="2275" 
d="M1478 927l-106 -164l-182 108l108 159zM1203 927l-97 -164l-184 108l100 159zM2253 467v-24l2 -30l-6 -85q-2 -21 -7.5 -44t-12.5 -46l-23 -69q-5 -11 -82 -33l-227 -60q-33 -9 -160 -29l-220 -28l-240 -19l-234 -7q-693 0 -922 223q-97 93 -97 302q0 61 28 139
q22 69 47 101l22 -10l-17 -50l-9 -31q-7 -23 -11 -51t-4 -52l2 -32q0 -37 14 -67.5t42 -64.5q26 -41 119 -82.5t242 -73.5l80 -13l73 -9l139 -12l170 -3l182 -4q190 0 330 17l104 2l227 31q136 19 248 41l82 17q39 7 54 33q-6 54 -30 108t-56 88l-91 99l18 85q19 64 36 88
q30 -21 100 -119q62 -107 88 -226z" />
    <glyph glyph-name="afii57419" unicode="&#x62b;" horiz-adv-x="2275" 
d="M1257 1132l-103 -166l-180 112l106 156zM1473 896l-103 -159l-180 103l102 158zM1203 896l-99 -159l-184 103l102 158zM2253 467v-24l2 -30l-6 -85q-2 -21 -7.5 -44t-12.5 -46l-23 -69q-5 -11 -82 -33l-227 -60q-33 -9 -160 -29l-220 -28l-240 -19l-234 -7
q-693 0 -922 223q-97 93 -97 302q0 61 28 139q22 69 47 101l22 -10l-17 -50l-9 -31q-7 -23 -11 -51t-4 -52l2 -32q0 -37 14 -67.5t42 -64.5q26 -41 119 -82.5t242 -73.5l80 -13l73 -9l139 -12l170 -3l182 -4q190 0 330 17l104 2l227 31q136 19 248 41l82 17q39 7 54 33
q-6 54 -30 108t-56 88l-91 99l18 85q19 64 36 88q30 -21 100 -119q62 -107 88 -226z" />
    <glyph glyph-name="afii57420" unicode="&#x62c;" horiz-adv-x="1329" 
d="M1577 -899l-4 -39l-434 -192l-165 -69q-62 -11 -134 -11q-149 0 -331.5 53t-266.5 139q-60 60 -108 162q-69 143 -69 307q0 30 1 66.5t13 95t51 172.5q127 347 417 502l133 72q-71 26 -146.5 39t-174.5 13q-80 0 -117 -24q-54 -26 -106 -113l-21 9q51 149 108 216
q84 101 213 101h41l28 -8l206 -32q21 0 52 -11l95 -18l34 -6l37 -6l82 -1h315l-92 -174q-143 0 -264 -20.5t-240 -66.5q-216 -86 -363 -233q-95 -94 -170 -249l-59 -180l-8 -66q0 -130 88 -242q76 -98 203 -165l102 -38q21 0 67 -13l78 -16q157 -28 341 -28q168 0 287 18
l139 19q86 15 142 37zM996 -340l-100 -168l-185 112l103 156z" />
    <glyph glyph-name="afii57421" unicode="&#x62d;" horiz-adv-x="1329" 
d="M1577 -899l-4 -39l-434 -192l-165 -69q-62 -11 -134 -11q-149 0 -331.5 53t-266.5 139q-60 60 -108 162q-69 143 -69 307q0 30 1 66.5t13 95t51 172.5q127 347 417 502l133 72q-71 26 -146.5 39t-174.5 13q-80 0 -117 -24q-54 -26 -106 -113l-21 9q51 149 108 216
q84 101 213 101h41l28 -8l206 -32q21 0 52 -11l95 -18l34 -6l37 -6l82 -1h315l-92 -174q-143 0 -264 -20.5t-240 -66.5q-216 -86 -363 -233q-95 -94 -170 -249l-59 -180l-8 -66q0 -130 88 -242q76 -98 203 -165l102 -38q21 0 67 -13l78 -16q157 -28 341 -28q168 0 287 18
l139 19q86 15 142 37z" />
    <glyph glyph-name="afii57422" unicode="&#x62e;" horiz-adv-x="1329" 
d="M894 964l-103 -167l-184 110l104 158zM1577 -899l-4 -39l-434 -192l-165 -69q-62 -11 -134 -11q-149 0 -331.5 53t-266.5 139q-60 60 -108 162q-69 143 -69 307q0 30 1 66.5t13 95t51 172.5q127 347 417 502l133 72q-71 26 -146.5 39t-174.5 13q-80 0 -117 -24
q-54 -26 -106 -113l-21 9q51 149 108 216q84 101 213 101h41l28 -8l206 -32q21 0 52 -11l95 -18l34 -6l37 -6l82 -1h315l-92 -174q-143 0 -264 -20.5t-240 -66.5q-216 -86 -363 -233q-95 -94 -170 -249l-59 -180l-8 -66q0 -130 88 -242q76 -98 203 -165l102 -38q21 0 67 -13
l78 -16q157 -28 341 -28q168 0 287 18l139 19q86 15 142 37z" />
    <glyph glyph-name="afii57423" unicode="&#x62f;" horiz-adv-x="1117" 
d="M1030 426l-2 -22v-35l-2 -23q-37 -98 -153 -219q-171 -177 -352 -199l-48 -4q-104 0 -183 80q-83 93 -121 279q0 15 -3.5 31.5t-5.5 26.5l-4 123v28l4 54l6 52l11 44l15 -11l-6 -67l-2 -43l-2 -44l4 -75l17 -72l13 -36q39 -110 153 -143l39 -6q24 0 37 -4h24l19 4l20 4
l56 11l71 24q43 15 69 38q57 27 132 100q39 37 48 86l13 85l-3 15l-116 213l-87 175l-36 48l-35 52l-6 35v101q0 20 6 30q6 -4 11.5 -8.5t14.5 -19.5l7 -15q0 -11 8 -19l41 -83q48 -86 84 -140q9 -21 33 -54l37 -50l103 -173l35 -82z" />
    <glyph glyph-name="afii57424" unicode="&#x630;" horiz-adv-x="1117" 
d="M588 1458l-54 -177l-204 54l55 179zM1030 426l-2 -22v-35l-2 -23q-37 -98 -153 -219q-171 -177 -352 -199l-48 -4q-104 0 -183 80q-83 93 -121 279q0 15 -3.5 31.5t-5.5 26.5l-4 123v28l4 54l6 52l11 44l15 -11l-6 -67l-2 -43l-2 -44l4 -75l17 -72l13 -36
q39 -110 153 -143l39 -6q24 0 37 -4h24l19 4l20 4l56 11l71 24q43 15 69 38q57 27 132 100q39 37 48 86l13 85l-3 15l-116 213l-87 175l-36 48l-35 52l-6 35v101q0 20 6 30q6 -4 11.5 -8.5t14.5 -19.5l7 -15q0 -11 8 -19l41 -83q48 -86 84 -140q9 -21 33 -54l37 -50
l103 -173l35 -82z" />
    <glyph glyph-name="afii57425" unicode="&#x631;" horiz-adv-x="1076" 
d="M1007 298q0 -47 -10 -142t-42 -182q-39 -113 -113 -206q-21 -28 -40 -49q-31 -37 -59 -57q-41 -47 -186 -134q-52 -32 -94 -54.5t-74 -33.5q-46 8 -188 78q-46 24 -92 49.5t-102 60.5l-88 54l9 17l72 -32l102 -41q93 -28 147 -28h36q20 2 58 17q93 26 212 97
q76 43 113 71q69 52 123 110q49 50 88 114l28 69q5 13 10.5 31t5.5 51l-1 28l-4 23q-2 14 -22 48l-13 19l-53 80l-102 111l78 240q49 -39 78 -81l54 -77q23 -33 47 -93l15 -74z" />
    <glyph glyph-name="afii57426" unicode="&#x632;" horiz-adv-x="1029" 
d="M1007 298q0 -47 -10 -142t-42 -182q-39 -113 -113 -206q-21 -28 -40 -49q-31 -37 -59 -57q-41 -47 -186 -134q-52 -32 -94 -54.5t-74 -33.5q-46 8 -188 78q-46 24 -92 49.5t-102 60.5l-88 54l9 17l72 -32l102 -41q93 -28 147 -28h36q20 2 58 17q93 26 212 97
q76 43 113 71q69 52 123 110q49 50 88 114l28 69q5 13 10.5 31t5.5 51l-1 28l-4 23q-2 14 -22 48l-13 19l-53 80l-102 111l78 240q49 -39 78 -81l54 -77q23 -33 47 -93l15 -74zM642 1072l-104 -167l-179 113l99 157z" />
    <glyph glyph-name="afii57427" unicode="&#x633;" horiz-adv-x="1763" 
d="M1743 287q0 -41 -19 -101.5t-50 -131.5q-11 -24 -24 -47t-32 -51q-34 0 -62.5 7.5t-66.5 29.5l-117 87q-30 -30 -166 -58l-83 -7l-92 -2q-18 0 -35 15q0 -98 -13 -163q-11 -71 -41 -129q-56 -95 -208 -153q-73 -27 -152 -44t-150 -17q-82 0 -146 13t-122 47
q-108 61 -142 227l-2 20v11q0 84 62 290l33 112l64 179l22 -10l-76 -234q-43 -132 -52 -197q0 -168 178 -233l134 -37l51 -4l33 -3q71 0 143.5 15.5t160.5 52.5q143 64 165 142l2 24q0 28 -14 79t-42 121t-91 193q0 39 24 104q19 48 39 69q38 -73 67.5 -145.5t53.5 -158.5
l10 -7l30 -6l67 -4q67 0 99.5 3t84.5 18q110 28 145 74l34 99l42 151l19 -11l-35 -142q-32 -126 -32 -158q9 -19 67 -60l75 -39l33 -2q21 0 30 23l7 57q0 41 -11 90l-37 106l52 80l37 52l32 32l15 -108l7 -134z" />
    <glyph glyph-name="afii57428" unicode="&#x634;" horiz-adv-x="1763" 
d="M1400 1097l-102 -170l-181 112l102 160zM1616 856l-102 -160l-183 106l104 161zM1344 856l-102 -160l-181 106l104 161zM1743 287q0 -41 -19 -101.5t-50 -131.5q-11 -24 -24 -47t-32 -51q-34 0 -62.5 7.5t-66.5 29.5l-117 87q-30 -30 -166 -58l-83 -7l-92 -2
q-18 0 -35 15q0 -98 -13 -163q-11 -71 -41 -129q-56 -95 -208 -153q-73 -27 -152 -44t-150 -17q-82 0 -146 13t-122 47q-108 61 -142 227l-2 20v11q0 84 62 290l33 112l64 179l22 -10l-76 -234q-43 -132 -52 -197q0 -168 178 -233l134 -37l51 -4l33 -3q71 0 143.5 15.5
t160.5 52.5q143 64 165 142l2 24q0 28 -14 79t-42 121t-91 193q0 39 24 104q19 48 39 69q38 -73 67.5 -145.5t53.5 -158.5l10 -7l30 -6l67 -4q67 0 99.5 3t84.5 18q110 28 145 74l34 99l42 151l19 -11l-35 -142q-32 -126 -32 -158q9 -19 67 -60l75 -39l33 -2q21 0 30 23
l7 57q0 41 -11 90l-37 106l52 80l37 52l32 32l15 -108l7 -134z" />
    <glyph glyph-name="afii57429" unicode="&#x635;" horiz-adv-x="2213" 
d="M2189 473q0 -50 -52 -149q-57 -108 -109 -164q-86 -89 -317 -158l-17 -2l-22 -3l-47 -2l-368 -2q0 -15 -11 -46q-10 -47 -30 -86l-24 -69l-21 -2l9 69l13 80l17 58h-61l-17 2q-41 0 -65 8l-32 15l-37 23l-2 -89l-11 -80q-17 -97 -43 -140q-50 -91 -207 -153
q-72 -27 -151 -44t-152 -17q-82 0 -146 13t-122 47q-108 61 -142 227l-2 20v11q0 84 62 290l33 112l64 179l22 -10l-76 -234q-43 -132 -52 -197q0 -168 178 -233l134 -37l51 -4l33 -3q71 0 143.5 15.5t160.5 52.5q143 64 165 142l2 24q0 28 -14 79t-42 121t-91 193
q0 39 24 104q19 48 39 69l64 -108l28 -64l28 -63q0 -17 108 -35q48 -6 89 -9.5t80 -3.5h13l91 78l285 214l229 160q50 22 82 22q84 0 160 -67.5t76 -153.5zM2074 346q4 26 -34.5 76.5t-65.5 70.5l-30 19l-36 13q-33 13 -74 13q-43 0 -80 -22l-153 -105l-50 -35l-82 -63
l-136 -103l37 -1l86 -2l73 2h72l37 7l90 9q123 11 238 58q102 39 108 63z" />
    <glyph glyph-name="afii57430" unicode="&#x636;" horiz-adv-x="2213" 
d="M1629 946l-102 -164l-181 114l101 156zM2189 473q0 -50 -52 -149q-57 -108 -109 -164q-86 -89 -317 -158l-17 -2l-22 -3l-47 -2l-368 -2q0 -15 -11 -46q-10 -47 -30 -86l-24 -69l-21 -2l9 69l13 80l17 58h-61l-17 2q-41 0 -65 8l-32 15l-37 23l-2 -89l-11 -80
q-17 -97 -43 -140q-50 -91 -207 -153q-72 -27 -151 -44t-152 -17q-82 0 -146 13t-122 47q-108 61 -142 227l-2 20v11q0 84 62 290l33 112l64 179l22 -10l-76 -234q-43 -132 -52 -197q0 -168 178 -233l134 -37l51 -4l33 -3q71 0 143.5 15.5t160.5 52.5q143 64 165 142l2 24
q0 28 -14 79t-42 121t-91 193q0 39 24 104q19 48 39 69l64 -108l28 -64l28 -63q0 -17 108 -35q48 -6 89 -9.5t80 -3.5h13l91 78l285 214l229 160q50 22 82 22q84 0 160 -67.5t76 -153.5zM2074 346q4 26 -34.5 76.5t-65.5 70.5l-30 19l-36 13q-33 13 -74 13q-43 0 -80 -22
l-153 -105l-50 -35l-82 -63l-136 -103l37 -1l86 -2l73 2h72l37 7l90 9q123 11 238 58q102 39 108 63z" />
    <glyph glyph-name="afii57431" unicode="&#x637;" horiz-adv-x="1560" 
d="M1491 505q0 -209 -287.5 -348.5t-739.5 -139.5h-118l-24 3q-45 0 -82 25q-28 11 -74 52l-41 44l-60 69l242 -26h36q203 0 275.5 67t72.5 274q0 201 -38 404l-74 423v37q0 15 15 46l20 41l36 54l115 -173q-67 -78 -67 -151l36 -270l9 -130q5 -50 5 -130v-121l-5 -36
l-2 -27l-4 -38l-15 -98q19 18 70 65.5t107 96.5q56 52 153 115q143 91 255 91q84 0 134 -67t50 -152zM1389 417q0 41 -80 75q-13 3 -49.5 13.5t-66.5 10.5q-294 0 -515 -324h16q218 0 468 91q227 82 227 134z" />
    <glyph glyph-name="afii57432" unicode="&#x638;" horiz-adv-x="1560" 
d="M1215 1082l-90 -142l-141 91l93 153zM1507 490q0 -263 -411 -397q-295 -93 -622 -93h-91h-23q-11 0 -26 4q-41 0 -82 24t-71 54l-42 45l-58 70l164 -20l74 -8h39q205 0 275 68t70 275q0 199 -36 406l-74 417v35l6 23l11 26l50 97l121 -172l-32 -41l-13 -20l-9 -17
q-6 -19 -9.5 -40t-5.5 -34l35 -272l12 -129l1 -74l2 -58v-121l-5 -33v-30q0 -19 -8 -43l-5 -41l-6 -50q184 190 324 279q71 43 135 67t124 24q82 0 138 -69q48 -69 48 -152zM1403 402q0 43 -78 75q-62 22 -116 22q-152 0 -279 -78t-237 -242h13q116 0 228.5 20.5t237.5 66.5
q231 84 231 136z" />
    <glyph glyph-name="afii57433" unicode="&#x639;" horiz-adv-x="1457" 
d="M1417 -698l-428 -160l-69 -9l-86 -4q-171 0 -308 38.5t-247 121.5q-212 157 -212 425q0 111 20.5 208.5t67.5 194.5q70 153 240 339q-240 60 -240 194l1 46q4 23 21 56q22 80 65 149q104 186 231 186q37 0 87 -26q47 -20 116 -84q-134 0 -272 -52q-89 -33 -134 -78
t-45 -104q0 -56 99 -106q35 -17 81.5 -28t99.5 -11q41 0 100 24q17 4 34 15l39 22l52 30l61 33l164 80l-125 -180l-117 -65l-82 -52q-490 -319 -490 -665q0 -244 265 -411q45 -28 117 -58q43 -17 89.5 -29t102.5 -19l86 -11h70l134 -6l183 4l45 2l50 7l126 13z" />
    <glyph glyph-name="afii57434" unicode="&#x63a;" horiz-adv-x="1457" 
d="M531 1488l-90 -146l-136 86l84 149zM1417 -698l-428 -160l-69 -9l-86 -4q-171 0 -308 38.5t-247 121.5q-212 157 -212 425q0 111 20.5 208.5t67.5 194.5q70 153 240 339q-240 60 -240 194l1 46q4 23 21 56q22 80 65 149q104 186 231 186q37 0 87 -26q47 -20 116 -84
q-134 0 -272 -52q-89 -33 -134 -78t-45 -104q0 -56 99 -106q35 -17 81.5 -28t99.5 -11q41 0 100 24q17 4 34 15l39 22l52 30l61 33l164 80l-125 -180l-117 -65l-82 -52q-490 -319 -490 -665q0 -244 265 -411q45 -28 117 -58q43 -17 89.5 -29t102.5 -19l86 -11h70l134 -6
l183 4l45 2l50 7l126 13z" />
    <glyph glyph-name="afii57441" unicode="&#x641;" horiz-adv-x="2075" 
d="M1653 1555l-91 -146l-143 82l87 149zM1960 715q0 -164 -111 -259q-60 -48 -265 -136q-74 -28 -204 -67l-235 -54q-76 -18 -154.5 -31t-150.5 -13l-118 -6q-588 0 -588 346q0 101 32 181q15 35 83 160l36 -11q-41 -65 -65 -127q-17 -45 -17 -98q0 -144 197 -222
q151 -58 319 -58q221 0 497.5 61.5t487.5 158.5q109 50 124 60q88 50 88 94q0 23 -11 51l-19 37l-26 43q-52 -78 -80 -103q-54 -50 -116 -50q-63 0 -112.5 44.5t-49.5 119.5q0 56 14 84l22 54l13 20q5 23 28 62q84 150 158 150q102 0 171 -204q26 -82 39 -149t13 -138z
M1748 936q0 23 -32.5 41.5t-62.5 18.5q-24 0 -40.5 -15t-16.5 -37q0 -17 22 -45l24 -16l32 -6q74 0 74 59z" />
    <glyph glyph-name="afii57442" unicode="&#x642;" horiz-adv-x="1457" 
d="M1302 1396l-89 -152l-149 102l-76 -130l-153 106l86 140l150 -97l82 130zM1334 592q0 -227 -97 -363t-269 -218.5t-362 -82.5q-315 0 -412 210q-29 65 -29 147q0 186 180 490l26 -17q-111 -201 -111 -345q0 -132 95 -210q100 -76 266 -76q160 0 341.5 64t269.5 178
q57 74 57 139v28l-2 10q0 18 -6.5 36t-19.5 44q-18 31 -29 50q-47 -60 -95.5 -90.5t-107.5 -30.5q-67 0 -123 45q-26 24 -39 51t-13 64q0 78 40.5 172t98.5 169l47 37q26 9 48 13l23 -2l20 -9q15 -6 33 -28l38 -41l39 -65q93 -166 93 -369zM1122 817q-23 34 -45 51
q-35 22 -60 26q-16 0 -39.5 -16t-23.5 -42q0 -19 19 -39l48 -15l28 2l30 11l17 9z" />
    <glyph glyph-name="afii57443" unicode="&#x643;" horiz-adv-x="3468" 
d="M2969 302q-25 -75 -66 -153q-55 -117 -98 -149h-1613l-208 2q-37 0 -88.5 5.5t-86.5 9.5q-233 20 -373.5 59t-229.5 125q-97 91 -97 304q0 63 30 145q13 37 46 100l24 -11q-44 -100 -44 -184v-15l3 -13q17 -156 175 -229q88 -43 250 -69l147 -22l136 -6l194 -4h100l73 -2
h1584q30 23 52 88l24 67l-39 60l-57 82l-105 124l-46 -39l-84 153q-67 117 -67 132q0 67 41 218t67 177l1044 316q0 -31 -28.5 -116t-47.5 -103l-934 -287q-17 0 -23 -36l2 -11l285 -415q20 -32 39 -132.5t19 -170.5z" />
    <glyph glyph-name="afii57444" unicode="&#x644;" horiz-adv-x="1247" 
d="M1087 346q0 -20 -1.5 -59t-7.5 -95q-19 -65 -48 -119q-66 -102 -216 -173q-77 -37 -152.5 -56.5t-147.5 -19.5q-164 0 -281.5 90t-117.5 235q0 24 2 47.5t8 45.5l13 71q9 44 61 156q23 50 26 56q23 47 45 84l35 -21l-74 -143q-36 -97 -36 -166q0 -128 107 -201
q95 -63 229 -63l98 5q45 6 106 23q101 28 161 65q9 0 57 33l54 45q30 34 30 91q0 144 -43 445l-41 300l-46 296l-39 272q0 48 11 76q0 19 15 39q11 21 28 36l117 -164q-21 -21 -43 -65l-7 -41l-2 -52q0 -52 24 -270l50 -419l21 -225z" />
    <glyph glyph-name="afii57445" unicode="&#x645;" horiz-adv-x="834" 
d="M759 559v-34q-6 -19 -8 -30t-4.5 -20.5t-10.5 -25.5l-15 -38l-89 6l-67 4l-76 -4q-101 0 -221 -62.5t-120 -155.5q0 -44 46 -241l88 -384l47 -225q0 -47 -43 -101q0 32 -18 110t-51 212l-80 321q-39 154 -39 219v65l5 50q4 41 7.5 57t18.5 70q28 100 62 138q24 24 126 74
l172 49l-39 40l-41 21l-38 7q-28 0 -59 -22q-30 -13 -64 -50l-40 7q37 119 78 177q63 86 162 86q104 0 223 -138q88 -102 88 -182z" />
    <glyph glyph-name="afii57446" unicode="&#x646;" horiz-adv-x="3027" 
d="M1783 940l-103 -160l-182 112l100 152zM2987 361l-5 -78q0 -54 -16 -98.5t-48 -96.5q-13 -19 -50 -45l-102 -59q-164 -80 -380 -131q-136 -29 -287 -46t-305 -17l-149 2l-229 9q-104 0 -211 17l-124 22q-276 49 -475 125q-181 67 -283 143l-67 50l-75 58q-72 56 -124 114
l50 14l166 -80l167 -78q157 -72 581 -139q80 -12 172.5 -23t205.5 -20q75 0 117 -2q216 -9 246 -9q367 0 652 59q244 50 391 125q119 56 130 97v26q0 87 -52 208l-34 73q-7 19 -21 46.5t-36 65.5q0 14 3 22q0 24 4 33l19 51q18 48 41 65q18 -32 65 -149l41 -104l9 -41
l11 -43l4 -91l-2 -39v-36z" />
    <glyph glyph-name="afii57447" unicode="&#x647;" horiz-adv-x="724" 
d="M631 495q0 -139 -80 -238q-86 -108 -221 -108q-94 0 -154.5 70t-60.5 166v36l6 28l2 11l2 11l18 76l13 30l36 75l61 128l26 39q8 24 19 32q26 45 65 45q80 0 168 -110q100 -123 100 -291zM546 464q0 11 -19 35q-22 37 -93 82q-47 30 -93 45l-39 5q-41 0 -80 -50
q-30 -54 -30 -125q0 -39 39 -67q56 -26 108 -26q84 0 145.5 28t61.5 73z" />
    <glyph glyph-name="afii57470" unicode="&#x6be;" horiz-adv-x="1076" 
d="M1039 192l4 -75v-22l-2 -41q0 -26 -8 -54l-13 -46l-24 -75l-110 38l-100 30l-92 18l-128 22l-110 12l-112 1h-357v195l71 4l-4 28l4 19l26 126q17 93 37 123l56 73q13 30 39 46q43 62 89 93q-48 34 -82 77l-28 43l276 115q6 -59 156 -199q194 -177 256 -248
q76 -89 116 -163.5t40 -139.5zM879 209q-2 22 -19 48l-43 65l-57 73q-13 20 -62 61l-61 37l-60 38l-61 35l11 -43l5 -69v-70l-5 -25l-2 -35v-30q-6 -15 -7 -20l-8 -25q0 -11 -7 -24h40.5t50.5 -3l48 -4l77 -13q59 -10 87 -19q47 -9 65 -20l6 22zM454 302l-3 41q-4 31 -10 39
l-13 35q-30 89 -78 101q-65 5 -141 -66l-38 -44q-11 -11 24 -69q28 -47 107 -106l33 -13q37 13 62 37z" />
    <glyph glyph-name="afii57448" unicode="&#x648;" horiz-adv-x="988" 
d="M914 385q0 -318 -163 -589.5t-366 -271.5q-93 0 -175 32q-31 11 -64.5 25.5t-97.5 50.5l28 22l82 -26l49 -7h35q86 0 195 50t179 121q86 86 157.5 217t71.5 237v31l-5 25l-6 26l-17 28l-31 -41l-36 -32q-24 -20 -67 -20q-67 0 -115 48q-49 54 -49 119q0 50 20.5 110.5
t67.5 142.5q19 51 60 88q11 17 31 24l36 7q63 0 124 -126q28 -54 41 -132l8 -67zM745 519q-6 34 -24 41q-15 21 -49 21q-45 0 -45 -50q0 -28 10.5 -43t38.5 -17q24 0 41 11q20 21 28 37z" />
    <glyph glyph-name="afii57449" unicode="&#x649;" horiz-adv-x="3027" 
d="M2991 413v-13q0 -56 -23.5 -154.5t-58.5 -157.5q-61 -84 -324 -173q-125 -43 -203 -62q-128 -29 -279 -46t-309 -17l-149 2l-229 9q-104 0 -211 17l-124 22q-276 49 -475 125q-181 67 -283 143l-67 50l-75 58q-72 56 -124 114l50 14l166 -80l167 -78q157 -72 581 -139
q80 -12 172.5 -23t205.5 -20q75 0 117 -2q216 -9 246 -9q199 0 345.5 11t287.5 43q233 52 354 115q104 56 119 95q0 20 -63 48l-21 6l-41 13l-82 20q-76 19 -208 64q-121 52 -132 97l-2 18q0 37 17.5 150t32.5 139q69 165 235 266q139 84 264 84q69 0 101 -30l16 -45l6 -69
q0 -80 -21 -100l-37 11l-35 11l-78 6q-146 0 -285 -116q-110 -93 -104 -134q11 -52 148 -96l244 -73q140 -43 168 -114z" />
    <glyph glyph-name="afii57450" unicode="&#x64a;" horiz-adv-x="3027" 
d="M2991 413v-13q0 -56 -23.5 -154.5t-58.5 -157.5q-61 -84 -324 -173q-125 -43 -203 -62q-128 -29 -279 -46t-309 -17l-149 2l-229 9q-104 0 -211 17l-124 22q-276 49 -475 125q-181 67 -283 143l-67 50l-75 58q-72 56 -124 114l50 14l166 -80l167 -78q157 -72 581 -139
q80 -12 172.5 -23t205.5 -20q75 0 117 -2q216 -9 246 -9q199 0 345.5 11t287.5 43q233 52 354 115q104 56 119 95q0 20 -63 48l-21 6l-41 13l-82 20q-76 19 -208 64q-121 52 -132 97l-2 18q0 37 17.5 150t32.5 139q69 165 235 266q139 84 264 84q69 0 101 -30l16 -45l6 -69
q0 -80 -21 -100l-37 11l-35 11l-78 6q-146 0 -285 -116q-110 -93 -104 -134q11 -52 148 -96l244 -73q140 -43 168 -114zM1995 -431l-103 -162l-188 110l108 158zM1725 -431l-103 -162l-184 110l106 158z" />
    <glyph glyph-name="uni0676" unicode="&#x676;" horiz-adv-x="988" 
d="M914 385q0 -318 -163 -589.5t-366 -271.5q-93 0 -175 32q-31 11 -64.5 25.5t-97.5 50.5l28 22l82 -26l49 -7h35q86 0 195 50t179 121q86 86 157.5 217t71.5 237v31l-5 25l-6 26l-17 28l-31 -41l-36 -32q-24 -20 -67 -20q-67 0 -115 48q-49 54 -49 119q0 50 20.5 110.5
t67.5 142.5q19 51 60 88q11 17 31 24l36 7q63 0 124 -126q28 -54 41 -132l8 -67zM745 519q-6 34 -24 41q-15 21 -49 21q-45 0 -45 -50q0 -28 10.5 -43t38.5 -17q24 0 41 11q20 21 28 37zM486 1093l4 -24q0 -74 -132 -104l-21 -2l-31 4h-24l-19 -2q-19 -11 -24 -21l-15 15
l18 24q21 12 69 23q51 0 79 20l3 17q-5 9 -9 11q-43 8 -63 50q-12 28 32 88.5t87 60.5l-6 -59q-22 -2 -43 -13l-18 -26q0 -13 52 -30q50 -6 61 -32z" />
    <glyph glyph-name="uni0695" unicode="&#x695;" horiz-adv-x="1076" 
d="M1007 298q0 -47 -10 -142t-42 -182q-39 -113 -113 -206q-21 -28 -40 -49q-31 -37 -59 -57q-41 -47 -186 -134q-52 -32 -94 -54.5t-74 -33.5q-46 8 -188 78q-46 24 -92 49.5t-102 60.5l-88 54l9 17l72 -32l102 -41q93 -28 147 -28h36q20 2 58 17q93 26 212 97
q76 43 113 71q69 52 123 110q49 50 88 114l28 69q5 13 10.5 31t5.5 51l-1 28l-4 23q-2 14 -22 48l-13 19l-53 80l-102 111l78 240q49 -39 78 -81l54 -77q23 -33 47 -93l15 -74zM582 -658q-75 -32 -130 -150q-16 -39 -30 -84t-24 -96h-19q-10 55 -29.5 104.5t-52.5 97.5
q-60 94 -127 118l9 102q32 -11 68.5 -32t67.5 -68q28 -40 41.5 -68.5t30.5 -81.5q43 204 195 253v-95z" />
    <glyph glyph-name="uniE001" unicode="&#xe001;" horiz-adv-x="1083" 
d="M1171 0h-104q-26 0 -77 17l-93 43l-29 -6q0 -50 -12 -128q-7 -74 -44 -136.5t-196.5 -206t-209.5 -143.5q-110 0 -272 127q-123 95 -195 195l17 13q154 -195 286 -195q35 0 80 18q26 10 45.5 20t53.5 31q102 55 257 210q141 141 147 180q0 34 -43 102l-104 172
q-15 24 -25 56l17 85q15 80 32 101l54 -82l39 -63l45 -80q35 -43 122.5 -89t141.5 -46h67v-195zM582 -658q-75 -32 -130 -150q-16 -39 -30 -84t-24 -96h-19q-10 55 -29.5 104.5t-52.5 97.5q-60 94 -127 118l9 102q32 -11 68.5 -32t67.5 -68q28 -40 41.5 -68.5t30.5 -81.5
q43 204 195 253v-95z" />
    <glyph glyph-name="uni06b5" unicode="&#x6b5;" horiz-adv-x="1247" 
d="M1087 346q0 -20 -1.5 -59t-7.5 -95q-19 -65 -48 -119q-66 -102 -216 -173q-77 -37 -152.5 -56.5t-147.5 -19.5q-164 0 -281.5 90t-117.5 235q0 24 2 47.5t8 45.5l13 71q9 44 61 156q23 50 26 56q23 47 45 84l35 -21l-74 -143q-36 -97 -36 -166q0 -128 107 -201
q95 -63 229 -63l98 5q45 6 106 23q101 28 161 65q9 0 57 33l54 45q30 34 30 91q0 144 -43 445l-41 300l-46 296l-39 272q0 48 11 76q0 19 15 39q11 21 28 36l117 -164q-21 -21 -43 -65l-7 -41l-2 -52q0 -52 24 -270l50 -419l21 -225zM1001 1976q-75 -32 -130 -150
q-16 -39 -30 -84t-24 -96h-19q-10 55 -29.5 104.5t-52.5 97.5q-60 94 -127 118l9 102q32 -11 68.5 -32t67.5 -68q28 -40 41.5 -68.5t30.5 -81.5q43 204 195 253v-95z" />
    <glyph glyph-name="uniE007" unicode="&#xe007;" horiz-adv-x="1260" 
d="M1051 80l-2 -43l-4 -44v-33q-5 -17 -7 -25q0 -16 -9 -33q-34 -144 -88 -211t-192 -126q-70 -30 -146.5 -46.5t-152.5 -16.5q-166 0 -265 57q-112 71 -143 231l-2 32q0 52 12 114.5t46 173.5l100 294l23 -13l-81 -233q-46 -139 -46 -198q0 -123 91 -192q60 -45 220 -78
l71 -8q69 0 139.5 16t161.5 57q153 69 181 143l18 54l12 65l-6 104l-2 181v48q-5 22 -7 32l-6 52q0 33 -9 58l-17 158l-9 72l-13 84l-84 67q-39 32 -61 101q0 56 52 195l31 73l21 -8l-15 -24q0 -15 -6 -20l-3 -47q0 -35 21 -66t68 -60l138 -54l-45 -179l-20 2l-17 7l-11 -18
l-4 -14l35 -197q32 -193 32 -242v-35q26 -60 123 -88l48 -4h43v-195h-67q-39 0 -83 21.5t-64 58.5zM1169 1524q-75 -32 -130 -150q-16 -39 -30 -84t-24 -96h-19q-10 55 -29.5 104.5t-52.5 97.5q-60 94 -127 118l9 102q32 -11 68.5 -32t67.5 -68q28 -40 41.5 -68.5
t30.5 -81.5q43 204 195 253v-95z" />
    <glyph glyph-name="uniE008" unicode="&#xe008;" horiz-adv-x="446" 
d="M408 963l-45 -179l-22 2l-13 7l-10 -13l-7 -19l20 -128l25 -130l13 -114l7 -76q0 -60 -31.5 -170.5t-73.5 -126.5t-89 -16h-208v195h287l33 6q19 6 34 24l-15 95l-28 172l-17 158l-11 72l-6 51l-7 33l-84 67q-39 32 -61 101l28 113l28 84q7 30 29 71l19 -8l-15 -24
l-6 -20l-1 -47q0 -72 89 -126zM470 1496q-75 -32 -130 -150q-16 -39 -30 -84t-24 -96h-19q-10 55 -29.5 104.5t-52.5 97.5q-60 94 -127 118l9 102q32 -11 68.5 -32t67.5 -68q28 -40 41.5 -68.5t30.5 -81.5q43 204 195 253v-95z" />
    <glyph glyph-name="uniE009" unicode="&#xe009;" horiz-adv-x="646" 
d="M655 0h-33q-144 0 -246 115q-30 34 -44 66.5t-25 95.5l-15 -48q-5 -24 -29 -71l-32 -43q-43 -54 -103 -93q-44 -22 -96 -22h-39v195h31l37 2q13 0 38 10l42 20l21 8l20 13q90 65 123 210l-3 99l-8 221v37q0 23 -4 38l-5 46l-8 39l-14 58l-10 32q-2 5 -3 10t-8 14l76 132
l25 -80l13 -63q0 -21 3 -26l8 -45l9 -99l9 -316v-56l2 -45l2 -28l21 -85l18 -41q21 -37 58 -60l69 -35l33 -8l41 -2h26v-195zM440 1496q-75 -32 -130 -150q-16 -39 -30 -84t-24 -96h-19q-10 55 -29.5 104.5t-52.5 97.5q-60 94 -127 118l9 102q32 -11 68.5 -32t67.5 -68
q28 -40 41.5 -68.5t30.5 -81.5q43 204 195 253v-95z" />
    <glyph glyph-name="uni06c6" unicode="&#x6c6;" horiz-adv-x="988" 
d="M914 385q0 -318 -163 -589.5t-366 -271.5q-93 0 -175 32q-31 11 -64.5 25.5t-97.5 50.5l28 22l82 -26l49 -7h35q86 0 195 50t179 121q86 86 157.5 217t71.5 237v31l-5 25l-6 26l-17 28l-31 -41l-36 -32q-24 -20 -67 -20q-67 0 -115 48q-49 54 -49 119q0 50 20.5 110.5
t67.5 142.5q19 51 60 88q11 17 31 24l36 7q63 0 124 -126q28 -54 41 -132l8 -67zM745 519q-6 34 -24 41q-15 21 -49 21q-45 0 -45 -50q0 -28 10.5 -43t38.5 -17q24 0 41 11q20 21 28 37zM916 1194q-75 -32 -130 -150q-16 -39 -30 -84t-24 -96h-19q-10 55 -29.5 104.5
t-52.5 97.5q-60 94 -127 118l9 102q32 -11 68.5 -32t67.5 -68q28 -40 41.5 -68.5t30.5 -81.5q43 204 195 253v-95z" />
    <glyph glyph-name="uni06ce" unicode="&#x6ce;" horiz-adv-x="3027" 
d="M2991 413v-13q0 -56 -23.5 -154.5t-58.5 -157.5q-61 -84 -324 -173q-125 -43 -203 -62q-128 -29 -279 -46t-309 -17l-149 2l-229 9q-104 0 -211 17l-124 22q-276 49 -475 125q-181 67 -283 143l-67 50l-75 58q-72 56 -124 114l50 14l166 -80l167 -78q157 -72 581 -139
q80 -12 172.5 -23t205.5 -20q75 0 117 -2q216 -9 246 -9q199 0 345.5 11t287.5 43q233 52 354 115q104 56 119 95q0 20 -63 48l-21 6l-41 13l-82 20q-76 19 -208 64q-121 52 -132 97l-2 18q0 37 17.5 150t32.5 139q69 165 235 266q139 84 264 84q69 0 101 -30l16 -45l6 -69
q0 -80 -21 -100l-37 11l-35 11l-78 6q-146 0 -285 -116q-110 -93 -104 -134q11 -52 148 -96l244 -73q140 -43 168 -114zM1591 875q-75 -32 -130 -150q-16 -39 -30 -84t-24 -96h-19q-10 55 -29.5 104.5t-52.5 97.5q-60 94 -127 118l9 102q32 -11 68.5 -32t67.5 -68
q28 -40 41.5 -68.5t30.5 -81.5q43 204 195 253v-95z" />
    <glyph glyph-name="uniE004" unicode="&#xe004;" horiz-adv-x="2941" 
d="M2953 0h-34q-232 0 -325 -31q-64 -19 -56 -49l141 -57l114 -49q113 -50 149 -121l2 -13q0 -20 -23.5 -128t-55.5 -153q-16 -35 -154 -106q-151 -82 -373 -132q-288 -65 -590 -65l-149 3l-229 8q-117 0 -212 18l-123 23q-274 44 -475 123q-87 35 -152 69q-51 20 -126 71
t-221 172l-48 54l48 13l334 -154q210 -95 649 -151q373 -46 676 -46q170 0 328 13t286.5 38t212.5 52t156 66q106 56 118 99q0 24 -69 65q-54 30 -93 45l-179 63q-41 18 -65 38.5t-24 41.5q0 19 5.5 44t25.5 79q41 105 54 124q23 32 106 74q114 54 239 54h132v-195z
M1670 147q-75 -32 -130 -150q-16 -39 -30 -84t-24 -96h-19q-10 55 -29.5 104.5t-52.5 97.5q-60 94 -127 118l9 102q32 -11 68.5 -32t67.5 -68q28 -40 41.5 -68.5t30.5 -81.5q43 204 195 253v-95z" />
    <glyph glyph-name="uniE005" unicode="&#xe005;" horiz-adv-x="413" 
d="M477 -232l-103 -162l-188 110l108 158zM207 -232l-103 -162l-184 110l106 158zM324 451q0 -86 -35 -222q-19 -73 -34 -110l-33 -72l-43 -19q-71 -28 -136 -28h-91v195h109q166 0 188 53q-7 74 -28.5 143t-51.5 108l-80 102l32 88l9 17l11 24l25 33q44 -24 97 -113
q27 -52 44 -103.5t17 -95.5zM212 1011q-75 -32 -130 -150q-16 -39 -30 -84t-24 -96h-19q-10 55 -29.5 104.5t-52.5 97.5q-60 94 -127 118l9 102q32 -11 68.5 -32t67.5 -68q28 -40 41.5 -68.5t30.5 -81.5q43 204 195 253v-95z" />
    <glyph glyph-name="uniE006" unicode="&#xe006;" horiz-adv-x="642" 
d="M650 0h-84q-179 0 -259 160q-41 -58 -98 -100q-82 -60 -162 -60h-54v195h55q84 0 163 37.5t102 85.5l31 67l45 105l17 -17l-17 -45q-5 -30 -9 -53t-4 -45q28 -58 58 -84q56 -51 158 -51h58v-195zM620 -322l-102 -156l-183 104l101 155zM350 -322l-102 -156l-183 104
l106 155zM531 965q-75 -32 -130 -150q-16 -39 -30 -84t-24 -96h-19q-10 55 -29.5 104.5t-52.5 97.5q-60 94 -127 118l9 102q32 -11 68.5 -32t67.5 -68q28 -40 41.5 -68.5t30.5 -81.5q43 204 195 253v-95z" />
    <glyph glyph-name="aekurdiFinal" unicode="&#xe000;" horiz-adv-x="999" 
d="M1010 0h-69q-78 0 -141 58q-88 78 -127 257l-19 113l-83 -104q-60 -76 -101 -108l-61 -11l-97 -4h-49h-33q-58 0 -93 9q-69 15 -95 39l9 36l36 52q22 35 94 119l45 34l86 42l111 38l222 69v203l56 122l17 -9q-12 -72 -12 -194q0 -288 68 -420q22 -45 80 -97
q59 -49 111 -49h45v-195zM654 454v15l-2 26q0 24 -3 32v84l-50 -47l-54 -46q-28 -23 -228 -73q-72 -17 -78 -39q8 -22 78 -22l71 -8l78 -2h52l19 2q17 0 43 13q39 21 74 65z" />
    <glyph glyph-name="nonJoiner" unicode="&#x200c;" horiz-adv-x="0" 
 />
    <glyph glyph-name=".notdef.001" horiz-adv-x="1536" 
d="M256 0v1280h1024v-1280h-1024zM288 32h960v1216h-960v-1216z" />
    </font>
</defs>
</svg>
